<?xml version="1.0" encoding="UTF-8" standalone="no"?>
<!-- Created with Inkscape (http://www.inkscape.org/) -->

<svg
   version="1.0"
   width="1817.6971pt"
   height="723.48694pt"
   viewBox="0 0 1817.6971 723.48694"
   id="svg2"
   xmlns="http://www.w3.org/2000/svg"
   xmlns:svg="http://www.w3.org/2000/svg">
  <defs
     id="defs10" />
  <g
     transform="matrix(0.1,0,0,-0.1,-32.109519,925.82759)"
     id="g4"
     style="fill:#000000;stroke:none">
    <path
       d="m 8806,9238 c -9,-12 -16,-30 -16,-38 0,-9 -13,-29 -30,-45 -26,-25 -30,-36 -30,-80 0,-48 -3,-54 -56,-110 -68,-73 -84,-107 -84,-183 0,-57 -1,-58 -56,-112 -55,-55 -94,-117 -94,-152 0,-31 -35,-111 -76,-172 -77,-115 -114,-181 -114,-206 0,-30 -12,-49 -102,-157 -50,-60 -68,-90 -68,-111 0,-22 -12,-42 -43,-74 -62,-62 -87,-110 -86,-166 1,-61 15,-99 62,-164 21,-29 66,-96 100,-148 71,-109 122,-177 175,-235 166,-178 200,-245 150,-293 -28,-25 -202,-48 -487,-62 -102,-5 -206,-12 -231,-15 -25,-3 -133,-10 -240,-15 -107,-5 -229,-14 -270,-19 -79,-11 -188,-23 -430,-45 -80,-8 -161,-17 -180,-20 -19,-3 -98,-10 -175,-16 -77,-6 -174,-15 -215,-20 -107,-14 -631,-68 -815,-85 -87,-8 -287,-40 -380,-61 -113,-25 -434,-45 -820,-51 -483,-7 -533,2 -684,116 -74,57 -179,133 -305,223 -103,75 -241,204 -329,308 -56,67 -106,125 -189,220 -97,112 -262,308 -373,445 -49,61 -94,115 -100,121 -5,6 -32,37 -60,69 -98,114 -324,345 -464,473 -378,348 -680,498 -768,383 -18,-24 -16,-46 13,-125 22,-59 28,-97 35,-221 4,-82 12,-195 18,-250 6,-55 18,-171 27,-259 9,-87 22,-175 29,-196 7,-20 18,-75 24,-121 25,-196 31,-234 41,-263 5,-17 19,-65 30,-106 11,-41 27,-88 35,-103 8,-16 18,-47 21,-70 6,-46 7,-49 57,-157 84,-181 100,-219 122,-290 28,-90 134,-314 174,-363 48,-61 106,-337 96,-454 -13,-138 -43,-230 -141,-431 -52,-106 -94,-197 -94,-201 0,-5 -7,-14 -15,-21 -8,-6 -30,-40 -50,-75 -19,-35 -39,-65 -43,-67 -8,-3 -99,-120 -167,-215 -35,-49 -195,-310 -195,-319 0,-3 -8,-17 -18,-32 -64,-93 -110,-175 -130,-227 -13,-33 -29,-73 -36,-90 -8,-16 -21,-52 -31,-80 -19,-57 -80,-206 -101,-248 -8,-16 -14,-33 -14,-39 0,-5 -6,-24 -14,-41 -18,-40 -42,-127 -51,-187 -4,-25 -22,-68 -41,-95 -18,-28 -48,-98 -68,-155 -35,-106 -48,-138 -91,-220 -26,-49 -32,-121 -12,-138 25,-21 130,-33 191,-21 80,14 195,45 231,61 130,58 355,180 450,245 64,43 127,85 140,93 13,8 38,28 57,43 18,15 96,77 173,137 77,60 156,122 175,138 19,17 69,59 111,94 41,35 131,112 200,172 68,59 135,118 149,130 14,11 52,44 85,71 32,28 80,66 106,85 26,19 93,71 150,115 57,44 131,98 164,120 34,22 74,50 91,63 16,12 67,48 114,79 47,31 119,80 161,108 42,28 91,61 110,72 19,11 72,44 119,73 47,29 135,77 195,107 61,30 117,58 126,63 9,5 34,12 55,15 22,4 57,13 79,20 84,27 269,40 580,40 361,0 554,-5 576,-16 8,-4 62,-10 120,-12 96,-3 147,-10 389,-52 126,-22 158,-25 236,-28 54,-1 77,-7 93,-21 32,-29 27,-61 -11,-79 -38,-17 -226,-70 -308,-86 -30,-6 -80,-18 -110,-26 -30,-8 -72,-15 -93,-15 -44,0 -72,-13 -87,-39 -9,-17 1,-28 68,-81 42,-33 95,-76 118,-95 22,-19 58,-47 80,-61 37,-25 130,-100 165,-133 9,-9 52,-41 94,-71 42,-30 103,-76 134,-102 31,-26 60,-48 64,-48 4,0 40,-28 80,-61 160,-137 306,-288 369,-384 69,-106 135,-188 238,-298 79,-85 77,-82 196,-195 151,-142 163,-155 170,-174 3,-9 13,-20 22,-23 9,-3 46,-42 82,-87 138,-170 375,-435 486,-543 32,-31 62,-81 88,-147 8,-21 27,-54 42,-74 22,-28 32,-34 51,-29 71,17 172,128 238,259 25,49 49,94 53,100 8,11 111,231 137,291 7,17 29,68 49,115 20,47 36,89 36,93 0,4 26,63 59,130 60,125 103,216 185,392 26,55 53,113 61,128 8,16 15,45 15,65 0,64 6,67 101,48 46,-9 116,-26 154,-37 39,-11 86,-24 105,-28 19,-5 105,-28 190,-53 210,-62 242,-68 415,-78 257,-16 547,-39 615,-49 36,-5 108,-12 160,-16 52,-3 120,-10 150,-16 30,-6 65,-13 78,-15 45,-9 20,-22 -54,-29 -63,-6 -82,-13 -117,-39 -52,-39 -58,-68 -46,-199 10,-109 16,-122 99,-247 31,-48 73,-117 92,-156 67,-129 96,-189 103,-214 5,-14 20,-43 34,-65 14,-22 30,-48 36,-57 5,-9 27,-45 49,-80 46,-75 55,-117 32,-149 -40,-58 -3,-90 65,-56 57,28 102,58 112,74 4,7 14,13 22,13 15,0 158,117 240,197 70,69 175,188 220,253 72,103 162,236 176,262 8,14 26,45 40,69 53,89 104,185 126,239 25,61 47,83 72,71 9,-4 81,-7 161,-6 481,7 872,17 985,25 72,6 153,12 180,14 28,3 140,7 250,11 110,4 211,11 224,16 12,5 78,13 145,18 66,5 137,14 156,20 19,6 48,11 64,11 15,0 60,7 100,16 39,8 114,25 166,36 52,11 118,26 145,33 94,25 140,36 180,44 22,4 56,13 75,19 19,6 62,19 95,28 33,9 105,30 160,46 55,17 141,43 190,58 92,28 137,44 190,66 17,7 64,22 105,34 41,13 79,27 84,31 6,5 20,9 32,9 13,0 26,4 29,10 3,5 25,14 48,20 23,6 51,15 62,20 11,5 63,25 115,45 52,20 113,45 136,56 23,10 48,19 56,19 8,0 18,4 24,9 5,5 52,27 104,49 100,42 205,91 255,120 151,85 256,150 285,177 19,17 49,38 67,44 17,7 46,24 64,37 18,13 40,24 48,24 8,0 57,32 109,72 51,39 127,88 169,109 93,48 123,65 187,107 28,17 54,32 59,32 4,0 13,4 20,10 7,5 48,34 92,63 100,66 136,92 201,142 28,22 62,47 74,55 13,8 40,29 59,46 20,17 62,46 94,64 71,40 325,288 443,432 92,114 165,234 195,326 26,80 22,169 -10,213 -13,17 -21,43 -21,66 0,32 -7,44 -56,90 -31,29 -62,53 -70,53 -8,0 -17,6 -20,14 -6,16 -60,31 -164,46 -41,6 -118,24 -170,40 -188,57 -375,101 -530,125 -97,14 -185,31 -250,47 -96,23 -274,53 -465,78 -49,6 -130,18 -180,25 -49,8 -130,17 -180,19 -49,3 -106,10 -125,16 -19,5 -55,10 -80,10 -25,0 -76,6 -115,14 -38,8 -101,20 -140,26 -38,6 -122,20 -185,31 -417,70 -848,109 -1485,133 -71,3 -242,10 -380,16 -532,22 -784,31 -1150,40 -209,5 -508,14 -665,20 -157,6 -449,15 -650,20 -972,27 -1282,43 -1299,67 -3,5 -33,45 -65,88 -33,44 -94,134 -136,200 -41,66 -87,136 -101,155 -14,19 -29,42 -33,50 -3,8 -15,29 -25,45 -11,17 -45,82 -77,145 -32,63 -77,144 -99,180 -40,63 -125,196 -155,244 -62,97 -112,186 -218,386 -31,58 -71,132 -89,165 -18,33 -64,124 -103,202 -60,120 -72,154 -79,213 -6,62 -11,74 -37,95 -36,30 -49,31 -68,3 z"
       id="path6" />
  </g>
</svg>
