<svg version="1.1" xmlns="http://www.w3.org/2000/svg" width="700" height="550"><defs><clipPath id="FrhuEPlaRAms"><path fill="none" stroke="none" d="M 61.5 27.5 L 670.5 27.5 L 670.5 505.5 L 61.5 505.5 L 61.5 27.5"/></clipPath><clipPath id="uipTpVydZtBT"><path fill="none" stroke="none" d="M 61.5 27.5 L 670.5 27.5 L 670.5 505.5 L 61.5 505.5 L 61.5 27.5"/></clipPath><clipPath id="sUMIWxzuDwZr"><path fill="none" stroke="none" d="M 61.5 27.5 L 670.5 27.5 L 670.5 505.5 L 61.5 505.5 L 61.5 27.5"/></clipPath><clipPath id="rKwSsGJWlSJH"><path fill="none" stroke="none" d="M 61.5 27.5 L 670.5 27.5 L 670.5 505.5 L 61.5 505.5 L 61.5 27.5"/></clipPath><clipPath id="tAtUPvkxISIT"><path fill="none" stroke="none" d="M 61.5 27.5 L 670.5 27.5 L 670.5 505.5 L 61.5 505.5 L 61.5 27.5"/></clipPath><clipPath id="BwMQrcBDRXLc"><path fill="none" stroke="none" d="M 61.5 27.5 L 670.5 27.5 L 670.5 505.5 L 61.5 505.5 L 61.5 27.5"/></clipPath><clipPath id="GsrOTLbxGTgS"><path fill="none" stroke="none" d="M 61.5 27.5 L 670.5 27.5 L 670.5 505.5 L 61.5 505.5 L 61.5 27.5"/></clipPath><clipPath id="ylznIWxiRqiN"><path fill="none" stroke="none" d="M 61.5 27.5 L 670.5 27.5 L 670.5 505.5 L 61.5 505.5 L 61.5 27.5"/></clipPath><clipPath id="MIQAWszCqlwJ"><path fill="none" stroke="none" d="M 61.5 27.5 L 670.5 27.5 L 670.5 505.5 L 61.5 505.5 L 61.5 27.5"/></clipPath><clipPath id="vhKfyGpqGtbc"><path fill="none" stroke="none" d="M 61.5 27.5 L 670.5 27.5 L 670.5 505.5 L 61.5 505.5 L 61.5 27.5"/></clipPath><clipPath id="qQfqsMhTULzs"><path fill="none" stroke="none" d="M 61.5 27.5 L 670.5 27.5 L 670.5 505.5 L 61.5 505.5 L 61.5 27.5"/></clipPath><clipPath id="WnoDrHaRrJdu"><path fill="none" stroke="none" d="M 61.5 27.5 L 670.5 27.5 L 670.5 505.5 L 61.5 505.5 L 61.5 27.5"/></clipPath><clipPath id="yUcPZHHIlSIG"><path fill="none" stroke="none" d="M 61.5 27.5 L 670.5 27.5 L 670.5 505.5 L 61.5 505.5 L 61.5 27.5"/></clipPath></defs><path fill="rgb(255,255,255)" stroke="none" paint-order="stroke" d="M 0.5 0.5 L 700.5 0.5 L 700.5 550.5 L 0.5 550.5 L 0.5 0.5" fill-opacity="1"/><rect fill="#FFFFFF" stroke="none" x="61" y="27" width="609" height="478" transform="matrix(1, 0, 0, 1, 0.5, 0.5)"/><path fill="rgb(255,255,255)" stroke="none" paint-order="stroke" d="M 61.5 27.5 L 670.5 27.5 L 670.5 505.5 L 61.5 505.5 L 61.5 27.5" fill-opacity="1"/><path fill="none" stroke="rgb(229,229,229)" paint-order="fill" d="M 61.5 27.5 L 670.5 27.5 L 670.5 505.5 L 61.5 505.5 L 61.5 27.5" stroke-opacity="1" stroke-linejoin="bevel" stroke-miterlimit="10" stroke-dasharray=""/><path fill="none" stroke="rgb(229,229,229)" paint-order="fill" d="M 183.5 505.5 L 183.5 27.5 M 305.5 505.5 L 305.5 27.5 M 426.5 505.5 L 426.5 27.5 M 548.5 505.5 L 548.5 27.5" stroke-opacity="1" stroke-linejoin="bevel" stroke-miterlimit="10" stroke-dasharray="" clip-path="url(#FrhuEPlaRAms)"/><path fill="none" stroke="rgb(229,229,229)" paint-order="fill" d="M 61.5 483.5 L 670.5 483.5 M 61.5 365.5 L 670.5 365.5 M 61.5 248.5 L 670.5 248.5 M 61.5 130.5 L 670.5 130.5" stroke-opacity="1" stroke-linejoin="bevel" stroke-miterlimit="10" stroke-dasharray="" clip-path="url(#uipTpVydZtBT)"/><path fill="none" stroke="rgb(0,0,4)" paint-order="fill" d="M 61.5 483.7727355957031 L 85.86000061035156 483.7727355957031 L 110.22000122070312 479.1060791015625 L 134.5800018310547 478.12799072265625 L 158.94000244140625 477.9394226074219 L 183.3000030517578 467.9344482421875 L 207.66000366210938 461.46478271484375 L 232.02000427246094 431.3260498046875 L 256.3800048828125 405.2294006347656 L 280.739990234375 395.59564208984375 L 305.1000061035156 347.6152648925781 L 329.4599914550781 305.4387512207031 L 353.82000732421875 257.2992858886719 L 378.17999267578125 203.00836181640625 L 402.5400085449219 169.41680908203125 L 426.8999938964844 128.54246520996094 L 451.260009765625 95.5047836303711 L 475.6199951171875 73.13790893554688 L 499.9800109863281 56.233123779296875 L 524.3400268554688 54.67757797241211 L 548.7000122070312 53.13970947265625 L 573.0599975585938 49.227272033691406 L 597.4199829101562 49.227272033691406 L 621.780029296875 49.227272033691406 L 646.1400146484375 49.227272033691406" stroke-opacity="1" stroke-linejoin="bevel" stroke-miterlimit="10" stroke-width="2.25" stroke-dasharray="" clip-path="url(#sUMIWxzuDwZr)"/><path fill="none" stroke="rgb(87,15,109)" paint-order="fill" d="M 61.5 483.7727355957031 L 85.86000061035156 483.7727355957031 L 110.22000122070312 480.8148193359375 L 134.5800018310547 479.7424621582031 L 158.94000244140625 479.6128234863281 L 183.3000030517578 470.9100036621094 L 207.66000366210938 466.0018005371094 L 232.02000427246094 441.8200988769531 L 256.3800048828125 423.72509765625 L 280.739990234375 418.734375 L 305.1000061035156 377.24725341796875 L 329.4599914550781 347.6034851074219 L 353.82000732421875 308.2139892578125 L 378.17999267578125 258.7723388671875 L 402.5400085449219 224.40301513671875 L 426.8999938964844 188.9966583251953 L 451.260009765625 167.40756225585938 L 475.6199951171875 147.3975830078125 L 499.9800109863281 132.6611328125 L 524.3400268554688 132.00120544433594 L 548.7000122070312 131.30003356933594 L 573.0599975585938 128.17125701904297 L 597.4199829101562 128.17125701904297 L 621.780029296875 128.17125701904297 L 646.1400146484375 128.17125701904297" stroke-opacity="1" stroke-linejoin="bevel" stroke-miterlimit="10" stroke-width="2.25" stroke-dasharray="" clip-path="url(#rKwSsGJWlSJH)"/><path fill="none" stroke="rgb(187,55,84)" paint-order="fill" d="M 61.5 483.7727355957031 L 85.86000061035156 483.7727355957031 L 110.22000122070312 481.0387268066406 L 134.5800018310547 480.6793212890625 L 158.94000244140625 480.58502197265625 L 183.3000030517578 472.08843994140625 L 207.66000366210938 467.3393249511719 L 232.02000427246094 446.6694030761719 L 256.3800048828125 430.2006530761719 L 280.739990234375 425.85809326171875 L 305.1000061035156 385.490478515625 L 329.4599914550781 358.4981994628906 L 353.82000732421875 318.9967346191406 L 378.17999267578125 267.9053039550781 L 402.5400085449219 232.85836791992188 L 426.8999938964844 199.1195068359375 L 451.260009765625 177.51272583007812 L 475.6199951171875 157.46148681640625 L 499.9800109863281 142.8428955078125 L 524.3400268554688 142.18885803222656 L 548.7000122070312 141.45233154296875 L 573.0599975585938 138.28231811523438 L 597.4199829101562 138.28231811523438 L 621.780029296875 138.28231811523438 L 646.1400146484375 138.28231811523438" stroke-opacity="1" stroke-linejoin="bevel" stroke-miterlimit="10" stroke-width="2.25" stroke-dasharray="" clip-path="url(#tAtUPvkxISIT)"/><path fill="none" stroke="rgb(249,140,9)" paint-order="fill" d="M 61.5 483.7727355957031 L 85.86000061035156 483.7727355957031 L 110.22000122070312 481.06231689453125 L 134.5800018310547 480.84429931640625 L 158.94000244140625 480.7853698730469 L 183.3000030517578 472.12969970703125 L 207.66000366210938 468.05816650390625 L 232.02000427246094 447.6416320800781 L 256.3800048828125 431.3614196777344 L 280.739990234375 427.05419921875 L 305.1000061035156 388.28338623046875 L 329.4599914550781 361.9156799316406 L 353.82000732421875 323.8990783691406 L 378.17999267578125 271.0576477050781 L 402.5400085449219 237.73123168945312 L 426.8999938964844 204.9763641357422 L 451.260009765625 183.97059631347656 L 475.6199951171875 164.1138153076172 L 499.9800109863281 149.0179443359375 L 524.3400268554688 148.3697967529297 L 548.7000122070312 147.63327026367188 L 573.0599975585938 144.41021728515625 L 597.4199829101562 144.41021728515625 L 621.780029296875 144.41021728515625 L 646.1400146484375 144.41021728515625" stroke-opacity="1" stroke-linejoin="bevel" stroke-miterlimit="10" stroke-width="2.25" stroke-dasharray="" clip-path="url(#BwMQrcBDRXLc)"/><path fill="none" stroke="rgb(255,165,0)" paint-order="fill" d="M 61.5 483.7727355957031 L 85.86000061035156 483.7727355957031 L 110.22000122070312 482.5353698730469 L 134.5800018310547 482.4175109863281 L 158.94000244140625 482.35858154296875 L 183.3000030517578 479.1767883300781 L 207.66000366210938 477.5859069824219 L 232.02000427246094 465.4479064941406 L 256.3800048828125 456.84527587890625 L 280.739990234375 452.7207336425781 L 305.1000061035156 435.0440673828125 L 329.4599914550781 421.9043884277344 L 353.82000732421875 397.3338317871094 L 378.17999267578125 365.869384765625 L 402.5400085449219 339.4132995605469 L 426.8999938964844 321.3241882324219 L 451.260009765625 305.2384033203125 L 475.6199951171875 289.32940673828125 L 499.9800109863281 277.4860534667969 L 524.3400268554688 276.77899169921875 L 548.7000122070312 275.8362121582031 L 573.0599975585938 272.6544189453125 L 597.4199829101562 272.6544189453125 L 621.780029296875 272.6544189453125 L 646.1400146484375 272.6544189453125" stroke-opacity="1" stroke-linejoin="bevel" stroke-miterlimit="10" stroke-width="2.5" stroke-dasharray="2,4,6,4" clip-path="url(#GsrOTLbxGTgS)"/><path fill="none" stroke="rgb(0,0,0)" paint-order="fill" d="M 61.5 505.5 L 670.5 505.5" stroke-opacity="1" stroke-linejoin="bevel" stroke-miterlimit="10" stroke-dasharray=""/><path fill="none" stroke="rgb(0,0,0)" paint-order="fill" d="M 61.5 511.5 L 61.5 503.5 M 183.5 511.5 L 183.5 503.5 M 305.5 511.5 L 305.5 503.5 M 426.5 511.5 L 426.5 503.5 M 548.5 511.5 L 548.5 503.5 M 670.5 511.5 L 670.5 503.5" stroke-opacity="1" stroke-linejoin="bevel" stroke-miterlimit="10" stroke-dasharray=""/><path fill="none" stroke="rgb(0,0,0)" paint-order="fill" d="M 61.5 509.5 L 61.5 505.5 M 85.5 509.5 L 85.5 505.5 M 110.5 509.5 L 110.5 505.5 M 134.5 509.5 L 134.5 505.5 M 158.5 509.5 L 158.5 505.5 M 183.5 509.5 L 183.5 505.5 M 207.5 509.5 L 207.5 505.5 M 232.5 509.5 L 232.5 505.5 M 256.5 509.5 L 256.5 505.5 M 280.5 509.5 L 280.5 505.5 M 305.5 509.5 L 305.5 505.5 M 329.5 509.5 L 329.5 505.5 M 353.5 509.5 L 353.5 505.5 M 378.5 509.5 L 378.5 505.5 M 402.5 509.5 L 402.5 505.5 M 426.5 509.5 L 426.5 505.5 M 451.5 509.5 L 451.5 505.5 M 475.5 509.5 L 475.5 505.5 M 499.5 509.5 L 499.5 505.5 M 524.5 509.5 L 524.5 505.5 M 548.5 509.5 L 548.5 505.5 M 573.5 509.5 L 573.5 505.5 M 597.5 509.5 L 597.5 505.5 M 621.5 509.5 L 621.5 505.5 M 646.5 509.5 L 646.5 505.5 M 670.5 509.5 L 670.5 505.5" stroke-opacity="1" stroke-linejoin="bevel" stroke-miterlimit="10" stroke-dasharray=""/><text fill="rgb(68,68,68)" stroke="none" font-family="helvetica" font-size="11px" font-style="normal" font-weight="normal" text-decoration="normal" x="57.941162109375" y="523.89013671875" text-anchor="start" dominant-baseline="alphabetic" transform="matrix(1, 0, 0, 1, 0.5, 0.5)" fill-opacity="1">0</text><text fill="rgb(68,68,68)" stroke="none" font-family="helvetica" font-size="11px" font-style="normal" font-weight="normal" text-decoration="normal" x="175.1542510986328" y="523.89013671875" text-anchor="start" dominant-baseline="alphabetic" transform="matrix(1, 0, 0, 1, 0.5, 0.5)" fill-opacity="1">0.2</text><text fill="rgb(68,68,68)" stroke="none" font-family="helvetica" font-size="11px" font-style="normal" font-weight="normal" text-decoration="normal" x="296.9542541503906" y="523.89013671875" text-anchor="start" dominant-baseline="alphabetic" transform="matrix(1, 0, 0, 1, 0.5, 0.5)" fill-opacity="1">0.4</text><text fill="rgb(68,68,68)" stroke="none" font-family="helvetica" font-size="11px" font-style="normal" font-weight="normal" text-decoration="normal" x="418.7542419433594" y="523.89013671875" text-anchor="start" dominant-baseline="alphabetic" transform="matrix(1, 0, 0, 1, 0.5, 0.5)" fill-opacity="1">0.6</text><text fill="rgb(68,68,68)" stroke="none" font-family="helvetica" font-size="11px" font-style="normal" font-weight="normal" text-decoration="normal" x="540.5542602539062" y="523.89013671875" text-anchor="start" dominant-baseline="alphabetic" transform="matrix(1, 0, 0, 1, 0.5, 0.5)" fill-opacity="1">0.8</text><text fill="rgb(68,68,68)" stroke="none" font-family="helvetica" font-size="11px" font-style="normal" font-weight="normal" text-decoration="normal" x="666.941162109375" y="523.89013671875" text-anchor="start" dominant-baseline="alphabetic" transform="matrix(1, 0, 0, 1, 0.5, 0.5)" fill-opacity="1">1</text><text fill="rgb(68,68,68)" stroke="none" font-family="helvetica" font-size="13px" font-style="italic" font-weight="normal" text-decoration="normal" x="351.2939453125" y="543.89013671875" text-anchor="start" dominant-baseline="alphabetic" transform="matrix(1, 0, 0, 1, 0.5, 0.5)" fill-opacity="1">Time</text><path fill="none" stroke="rgb(0,0,0)" paint-order="fill" d="M 61.5 505.5 L 61.5 27.5" stroke-opacity="1" stroke-linejoin="bevel" stroke-miterlimit="10" stroke-dasharray=""/><path fill="none" stroke="rgb(0,0,0)" paint-order="fill" d="M 55.5 483.5 L 63.5 483.5 M 55.5 365.5 L 63.5 365.5 M 55.5 248.5 L 63.5 248.5 M 55.5 130.5 L 63.5 130.5" stroke-opacity="1" stroke-linejoin="bevel" stroke-miterlimit="10" stroke-dasharray=""/><path fill="none" stroke="rgb(0,0,0)" paint-order="fill" d="M 57.5 483.5 L 61.5 483.5 M 57.5 460.5 L 61.5 460.5 M 57.5 436.5 L 61.5 436.5 M 57.5 413.5 L 61.5 413.5 M 57.5 389.5 L 61.5 389.5 M 57.5 365.5 L 61.5 365.5 M 57.5 342.5 L 61.5 342.5 M 57.5 318.5 L 61.5 318.5 M 57.5 295.5 L 61.5 295.5 M 57.5 271.5 L 61.5 271.5 M 57.5 248.5 L 61.5 248.5 M 57.5 224.5 L 61.5 224.5 M 57.5 200.5 L 61.5 200.5 M 57.5 177.5 L 61.5 177.5 M 57.5 153.5 L 61.5 153.5 M 57.5 130.5 L 61.5 130.5 M 57.5 106.5 L 61.5 106.5 M 57.5 83.5 L 61.5 83.5 M 57.5 59.5 L 61.5 59.5 M 57.5 35.5 L 61.5 35.5" stroke-opacity="1" stroke-linejoin="bevel" stroke-miterlimit="10" stroke-dasharray=""/><text fill="rgb(68,68,68)" stroke="none" font-family="helvetica" font-size="11px" font-style="normal" font-weight="normal" text-decoration="normal" x="43.88232421875" y="487.2178039550781" text-anchor="start" dominant-baseline="alphabetic" transform="matrix(1, 0, 0, 1, 0.5, 0.5)" fill-opacity="1">0</text><text fill="rgb(68,68,68)" stroke="none" font-family="helvetica" font-size="11px" font-style="normal" font-weight="normal" text-decoration="normal" x="25.529296875" y="369.37335205078125" text-anchor="start" dominant-baseline="alphabetic" transform="matrix(1, 0, 0, 1, 0.5, 0.5)" fill-opacity="1">2000</text><text fill="rgb(68,68,68)" stroke="none" font-family="helvetica" font-size="11px" font-style="normal" font-weight="normal" text-decoration="normal" x="25.529296875" y="251.5289306640625" text-anchor="start" dominant-baseline="alphabetic" transform="matrix(1, 0, 0, 1, 0.5, 0.5)" fill-opacity="1">4000</text><text fill="rgb(68,68,68)" stroke="none" font-family="helvetica" font-size="11px" font-style="normal" font-weight="normal" text-decoration="normal" x="25.529296875" y="133.6844940185547" text-anchor="start" dominant-baseline="alphabetic" transform="matrix(1, 0, 0, 1, 0.5, 0.5)" fill-opacity="1">6000</text><text fill="rgb(68,68,68)" stroke="none" font-family="helvetica" font-size="13px" font-style="italic" font-weight="normal" text-decoration="normal" x="-100.97509765625" y="263" text-anchor="start" dominant-baseline="alphabetic" transform="matrix(6.123233995736766e-17, -1, 1, 6.123233995736766e-17, -247.970703125, 284.029296875)" fill-opacity="1">Cumulative number of column operations</text><path fill="rgb(255,255,255)" stroke="rgb(0,0,0)" paint-order="fill" d="M 71.5 37.5 L 192.33544921875 37.5 L 192.33544921875 160.5 L 71.5 160.5 L 71.5 37.5" fill-opacity="0.9490196078431372" clip-path="url(#ylznIWxiRqiN)" stroke-opacity="0.5019607843137255" stroke-linejoin="bevel" stroke-miterlimit="10" stroke-dasharray=""/><g clip-path="url(#ylznIWxiRqiN)"><text fill="rgb(68,68,68)" stroke="none" font-family="helvetica" font-size="13px" font-style="normal" font-weight="normal" text-decoration="normal" x="106" y="74.5" text-anchor="start" dominant-baseline="central" transform="matrix(1, 0, 0, 1, 0.5, 0.5)" fill-opacity="1">0 (none)</text></g><path fill="none" stroke="rgb(0,0,4)" paint-order="fill" d="M 81.5 72.5 L 101.5 72.5" stroke-opacity="1" stroke-linejoin="bevel" stroke-miterlimit="10" stroke-width="2.25" stroke-dasharray="" clip-path="url(#ylznIWxiRqiN)"/><g clip-path="url(#ylznIWxiRqiN)"><text fill="rgb(68,68,68)" stroke="none" font-family="helvetica" font-size="13px" font-style="normal" font-weight="normal" text-decoration="normal" x="106" y="91.5" text-anchor="start" dominant-baseline="central" transform="matrix(1, 0, 0, 1, 0.5, 0.5)" fill-opacity="1">1</text></g><path fill="none" stroke="rgb(87,15,109)" paint-order="fill" d="M 81.5 89.5 L 101.5 89.5" stroke-opacity="1" stroke-linejoin="bevel" stroke-miterlimit="10" stroke-width="2.25" stroke-dasharray="" clip-path="url(#ylznIWxiRqiN)"/><g clip-path="url(#ylznIWxiRqiN)"><text fill="rgb(68,68,68)" stroke="none" font-family="helvetica" font-size="13px" font-style="normal" font-weight="normal" text-decoration="normal" x="106" y="108.5" text-anchor="start" dominant-baseline="central" transform="matrix(1, 0, 0, 1, 0.5, 0.5)" fill-opacity="1">2</text></g><path fill="none" stroke="rgb(187,55,84)" paint-order="fill" d="M 81.5 106.5 L 101.5 106.5" stroke-opacity="1" stroke-linejoin="bevel" stroke-miterlimit="10" stroke-width="2.25" stroke-dasharray="" clip-path="url(#ylznIWxiRqiN)"/><g clip-path="url(#ylznIWxiRqiN)"><text fill="rgb(68,68,68)" stroke="none" font-family="helvetica" font-size="13px" font-style="normal" font-weight="normal" text-decoration="normal" x="106" y="125.5" text-anchor="start" dominant-baseline="central" transform="matrix(1, 0, 0, 1, 0.5, 0.5)" fill-opacity="1">3 (maximum)</text></g><path fill="none" stroke="rgb(249,140,9)" paint-order="fill" d="M 81.5 123.5 L 101.5 123.5" stroke-opacity="1" stroke-linejoin="bevel" stroke-miterlimit="10" stroke-width="2.25" stroke-dasharray="" clip-path="url(#ylznIWxiRqiN)"/><g clip-path="url(#ylznIWxiRqiN)"><text fill="rgb(68,68,68)" stroke="none" font-family="helvetica" font-size="13px" font-style="normal" font-weight="normal" text-decoration="normal" x="106" y="142.5" text-anchor="start" dominant-baseline="central" transform="matrix(1, 0, 0, 1, 0.5, 0.5)" fill-opacity="1">3 (greedy)</text></g><path fill="none" stroke="rgb(255,165,0)" paint-order="fill" d="M 81.5 140.5 L 101.5 140.5" stroke-opacity="1" stroke-linejoin="bevel" stroke-miterlimit="10" stroke-width="2.5" stroke-dasharray="2,4,6,4" clip-path="url(#ylznIWxiRqiN)"/><g clip-path="url(#ylznIWxiRqiN)"><text fill="rgb(68,68,68)" stroke="none" font-family="helvetica" font-size="13px" font-style="italic" font-weight="normal" text-decoration="normal" x="10" y="5" text-anchor="start" dominant-baseline="text-after-edge" transform="matrix(1, 0, 0, 1, 71.5, 57.5)" fill-opacity="1">Coarsening level</text></g><path fill="rgb(0,0,4)" stroke="none" paint-order="stroke" d="M 61.5 483.7727355957031 L 61.5 483.7727355957031 L 85.86000061035156 483.7727355957031 L 110.22000122070312 481.3569030761719 L 134.5800018310547 480.5909423828125 L 158.94000244140625 480.4141540527344 L 183.3000030517578 473.04888916015625 L 207.66000366210938 465.5657653808594 L 232.02000427246094 438.75616455078125 L 256.3800048828125 415.4229431152344 L 280.739990234375 407.7630615234375 L 305.1000061035156 358.8576354980469 L 329.4599914550781 322.7383117675781 L 353.82000732421875 271.41705322265625 L 378.17999267578125 223.63113403320312 L 402.5400085449219 190.51686096191406 L 426.8999938964844 141.90602111816406 L 451.260009765625 116.39270782470703 L 475.6199951171875 96.59484100341797 L 499.9800109863281 79.68416595458984 L 524.3400268554688 79.0949478149414 L 548.7000122070312 78.38787841796875 L 573.0599975585938 73.55625915527344 L 597.4199829101562 73.55625915527344 L 621.780029296875 73.55625915527344 L 646.1400146484375 73.55625915527344 L 646.1400146484375 25.416805267333984 L 621.780029296875 25.416805267333984 L 597.4199829101562 25.416805267333984 L 573.0599975585938 25.416805267333984 L 548.7000122070312 28.834293365478516 L 524.3400268554688 31.544715881347656 L 499.9800109863281 32.1928596496582 L 475.6199951171875 47.041259765625 L 451.260009765625 65.3660659790039 L 426.8999938964844 108.26144409179688 L 402.5400085449219 147.03225708007812 L 378.17999267578125 180.5590057373047 L 353.82000732421875 237.00648498535156 L 329.4599914550781 290.3310852050781 L 305.1000061035156 337.4688720703125 L 280.739990234375 384.60662841796875 L 256.3800048828125 395.0358581542969 L 232.02000427246094 423.31854248046875 L 207.66000366210938 457.6701965332031 L 183.3000030517578 463.7391662597656 L 158.94000244140625 475.7593078613281 L 134.5800018310547 475.9360656738281 L 110.22000122070312 476.5252990722656 L 85.86000061035156 483.7727355957031 L 61.5 483.7727355957031 Z" fill-opacity="0.10196078431372549" clip-path="url(#MIQAWszCqlwJ)"/><path fill="none" stroke="rgb(204,204,204)" paint-order="fill" d="M 61.5 483.7727355957031 L 61.5 483.7727355957031 L 85.86000061035156 483.7727355957031 L 110.22000122070312 481.3569030761719 L 134.5800018310547 480.5909423828125 L 158.94000244140625 480.4141540527344 L 183.3000030517578 473.04888916015625 L 207.66000366210938 465.5657653808594 L 232.02000427246094 438.75616455078125 L 256.3800048828125 415.4229431152344 L 280.739990234375 407.7630615234375 L 305.1000061035156 358.8576354980469 L 329.4599914550781 322.7383117675781 L 353.82000732421875 271.41705322265625 L 378.17999267578125 223.63113403320312 L 402.5400085449219 190.51686096191406 L 426.8999938964844 141.90602111816406 L 451.260009765625 116.39270782470703 L 475.6199951171875 96.59484100341797 L 499.9800109863281 79.68416595458984 L 524.3400268554688 79.0949478149414 L 548.7000122070312 78.38787841796875 L 573.0599975585938 73.55625915527344 L 597.4199829101562 73.55625915527344 L 621.780029296875 73.55625915527344 L 646.1400146484375 73.55625915527344" stroke-opacity="0.30196078431372547" stroke-linejoin="bevel" stroke-miterlimit="10" stroke-dasharray="" clip-path="url(#MIQAWszCqlwJ)"/><path fill="none" stroke="rgb(204,204,204)" paint-order="fill" d="M 61.5 483.7727355957031 L 61.5 483.7727355957031 L 85.86000061035156 483.7727355957031 L 110.22000122070312 476.5252990722656 L 134.5800018310547 475.9360656738281 L 158.94000244140625 475.7593078613281 L 183.3000030517578 463.7391662597656 L 207.66000366210938 457.6701965332031 L 232.02000427246094 423.31854248046875 L 256.3800048828125 395.0358581542969 L 280.739990234375 384.60662841796875 L 305.1000061035156 337.4688720703125 L 329.4599914550781 290.3310852050781 L 353.82000732421875 237.00648498535156 L 378.17999267578125 180.5590057373047 L 402.5400085449219 147.03225708007812 L 426.8999938964844 108.26144409179688 L 451.260009765625 65.3660659790039 L 475.6199951171875 47.041259765625 L 499.9800109863281 32.1928596496582 L 524.3400268554688 31.544715881347656 L 548.7000122070312 28.834293365478516 L 573.0599975585938 25.416805267333984 L 597.4199829101562 25.416805267333984 L 621.780029296875 25.416805267333984 L 646.1400146484375 25.416805267333984" stroke-opacity="0.30196078431372547" stroke-linejoin="bevel" stroke-miterlimit="10" stroke-dasharray="" clip-path="url(#MIQAWszCqlwJ)"/><path fill="rgb(87,15,109)" stroke="none" paint-order="stroke" d="M 61.5 483.7727355957031 L 61.5 483.7727355957031 L 85.86000061035156 483.7727355957031 L 110.22000122070312 482.1228942871094 L 134.5800018310547 482.00506591796875 L 158.94000244140625 481.9461364746094 L 183.3000030517578 475.05224609375 L 207.66000366210938 469.8670959472656 L 232.02000427246094 449.0675354003906 L 256.3800048828125 430.6248779296875 L 280.739990234375 424.732666015625 L 305.1000061035156 389.02581787109375 L 329.4599914550781 357.4434814453125 L 353.82000732421875 317.4942321777344 L 378.17999267578125 272.18304443359375 L 402.5400085449219 237.3011016845703 L 426.8999938964844 206.36692810058594 L 451.260009765625 185.2727813720703 L 475.6199951171875 165.23922729492188 L 499.9800109863281 149.8605194091797 L 524.3400268554688 149.21238708496094 L 548.7000122070312 148.38746643066406 L 573.0599975585938 145.14674377441406 L 597.4199829101562 145.14674377441406 L 621.780029296875 145.14674377441406 L 646.1400146484375 145.14674377441406 L 646.1400146484375 120.7529525756836 L 621.780029296875 120.7529525756836 L 597.4199829101562 120.7529525756836 L 573.0599975585938 120.7529525756836 L 548.7000122070312 123.40444946289062 L 524.3400268554688 124.11151885986328 L 499.9800109863281 124.75965881347656 L 475.6199951171875 139.78482055664062 L 451.260009765625 160.1719207763672 L 426.8999938964844 179.7930145263672 L 402.5400085449219 216.03018188476562 L 378.17999267578125 253.32794189453125 L 353.82000732421875 302.29229736328125 L 329.4599914550781 336.1725769042969 L 305.1000061035156 370.7599182128906 L 280.739990234375 408.352294921875 L 256.3800048828125 413.4195861816406 L 232.02000427246094 431.68548583984375 L 207.66000366210938 462.38397216796875 L 183.3000030517578 467.51019287109375 L 158.94000244140625 478.5286560058594 L 134.5800018310547 478.58758544921875 L 110.22000122070312 479.70709228515625 L 85.86000061035156 483.7727355957031 L 61.5 483.7727355957031 Z" fill-opacity="0.10196078431372549" clip-path="url(#vhKfyGpqGtbc)"/><path fill="none" stroke="rgb(204,204,204)" paint-order="fill" d="M 61.5 483.7727355957031 L 61.5 483.7727355957031 L 85.86000061035156 483.7727355957031 L 110.22000122070312 482.1228942871094 L 134.5800018310547 482.00506591796875 L 158.94000244140625 481.9461364746094 L 183.3000030517578 475.05224609375 L 207.66000366210938 469.8670959472656 L 232.02000427246094 449.0675354003906 L 256.3800048828125 430.6248779296875 L 280.739990234375 424.732666015625 L 305.1000061035156 389.02581787109375 L 329.4599914550781 357.4434814453125 L 353.82000732421875 317.4942321777344 L 378.17999267578125 272.18304443359375 L 402.5400085449219 237.3011016845703 L 426.8999938964844 206.36692810058594 L 451.260009765625 185.2727813720703 L 475.6199951171875 165.23922729492188 L 499.9800109863281 149.8605194091797 L 524.3400268554688 149.21238708496094 L 548.7000122070312 148.38746643066406 L 573.0599975585938 145.14674377441406 L 597.4199829101562 145.14674377441406 L 621.780029296875 145.14674377441406 L 646.1400146484375 145.14674377441406" stroke-opacity="0.30196078431372547" stroke-linejoin="bevel" stroke-miterlimit="10" stroke-dasharray="" clip-path="url(#vhKfyGpqGtbc)"/><path fill="none" stroke="rgb(204,204,204)" paint-order="fill" d="M 61.5 483.7727355957031 L 61.5 483.7727355957031 L 85.86000061035156 483.7727355957031 L 110.22000122070312 479.70709228515625 L 134.5800018310547 478.58758544921875 L 158.94000244140625 478.5286560058594 L 183.3000030517578 467.51019287109375 L 207.66000366210938 462.38397216796875 L 232.02000427246094 431.68548583984375 L 256.3800048828125 413.4195861816406 L 280.739990234375 408.352294921875 L 305.1000061035156 370.7599182128906 L 329.4599914550781 336.1725769042969 L 353.82000732421875 302.29229736328125 L 378.17999267578125 253.32794189453125 L 402.5400085449219 216.03018188476562 L 426.8999938964844 179.7930145263672 L 451.260009765625 160.1719207763672 L 475.6199951171875 139.78482055664062 L 499.9800109863281 124.75965881347656 L 524.3400268554688 124.11151885986328 L 548.7000122070312 123.40444946289062 L 573.0599975585938 120.7529525756836 L 597.4199829101562 120.7529525756836 L 621.780029296875 120.7529525756836 L 646.1400146484375 120.7529525756836" stroke-opacity="0.30196078431372547" stroke-linejoin="bevel" stroke-miterlimit="10" stroke-dasharray="" clip-path="url(#vhKfyGpqGtbc)"/><path fill="rgb(187,55,84)" stroke="none" paint-order="stroke" d="M 61.5 483.7727355957031 L 61.5 483.7727355957031 L 85.86000061035156 483.7727355957031 L 110.22000122070312 482.4175109863281 L 134.5800018310547 482.2996826171875 L 158.94000244140625 482.1228942871094 L 183.3000030517578 475.70037841796875 L 207.66000366210938 472.45965576171875 L 232.02000427246094 455.13653564453125 L 256.3800048828125 440.1702880859375 L 280.739990234375 436.7528076171875 L 305.1000061035156 402.9903564453125 L 329.4599914550781 373.8827819824219 L 353.82000732421875 338.8240661621094 L 378.17999267578125 294.5145568847656 L 402.5400085449219 255.6259002685547 L 426.8999938964844 221.62779235839844 L 451.260009765625 201.06393432617188 L 475.6199951171875 181.73744201660156 L 499.9800109863281 168.5388641357422 L 524.3400268554688 167.89073181152344 L 548.7000122070312 167.18365478515625 L 573.0599975585938 163.76617431640625 L 597.4199829101562 163.76617431640625 L 621.780029296875 163.76617431640625 L 646.1400146484375 163.76617431640625 L 646.1400146484375 123.69905853271484 L 621.780029296875 123.69905853271484 L 597.4199829101562 123.69905853271484 L 573.0599975585938 123.69905853271484 L 548.7000122070312 126.70409393310547 L 524.3400268554688 127.47008514404297 L 499.9800109863281 128.11822509765625 L 475.6199951171875 143.1433868408203 L 451.260009765625 162.70556640625 L 426.8999938964844 182.2677459716797 L 402.5400085449219 215.6766357421875 L 378.17999267578125 251.4424285888672 L 353.82000732421875 306.88824462890625 L 329.4599914550781 350.13714599609375 L 305.1000061035156 377.8305969238281 L 280.739990234375 418.427978515625 L 256.3800048828125 423.6131591796875 L 232.02000427246094 439.5810546875 L 207.66000366210938 463.32672119140625 L 183.3000030517578 468.27618408203125 L 158.94000244140625 480.0606384277344 L 134.5800018310547 480.1195373535156 L 110.22000122070312 480.29632568359375 L 85.86000061035156 483.7727355957031 L 61.5 483.7727355957031 Z" fill-opacity="0.10196078431372549" clip-path="url(#qQfqsMhTULzs)"/><path fill="none" stroke="rgb(204,204,204)" paint-order="fill" d="M 61.5 483.7727355957031 L 61.5 483.7727355957031 L 85.86000061035156 483.7727355957031 L 110.22000122070312 482.4175109863281 L 134.5800018310547 482.2996826171875 L 158.94000244140625 482.1228942871094 L 183.3000030517578 475.70037841796875 L 207.66000366210938 472.45965576171875 L 232.02000427246094 455.13653564453125 L 256.3800048828125 440.1702880859375 L 280.739990234375 436.7528076171875 L 305.1000061035156 402.9903564453125 L 329.4599914550781 373.8827819824219 L 353.82000732421875 338.8240661621094 L 378.17999267578125 294.5145568847656 L 402.5400085449219 255.6259002685547 L 426.8999938964844 221.62779235839844 L 451.260009765625 201.06393432617188 L 475.6199951171875 181.73744201660156 L 499.9800109863281 168.5388641357422 L 524.3400268554688 167.89073181152344 L 548.7000122070312 167.18365478515625 L 573.0599975585938 163.76617431640625 L 597.4199829101562 163.76617431640625 L 621.780029296875 163.76617431640625 L 646.1400146484375 163.76617431640625" stroke-opacity="0.30196078431372547" stroke-linejoin="bevel" stroke-miterlimit="10" stroke-dasharray="" clip-path="url(#qQfqsMhTULzs)"/><path fill="none" stroke="rgb(204,204,204)" paint-order="fill" d="M 61.5 483.7727355957031 L 61.5 483.7727355957031 L 85.86000061035156 483.7727355957031 L 110.22000122070312 480.29632568359375 L 134.5800018310547 480.1195373535156 L 158.94000244140625 480.0606384277344 L 183.3000030517578 468.27618408203125 L 207.66000366210938 463.32672119140625 L 232.02000427246094 439.5810546875 L 256.3800048828125 423.6131591796875 L 280.739990234375 418.427978515625 L 305.1000061035156 377.8305969238281 L 329.4599914550781 350.13714599609375 L 353.82000732421875 306.88824462890625 L 378.17999267578125 251.4424285888672 L 402.5400085449219 215.6766357421875 L 426.8999938964844 182.2677459716797 L 451.260009765625 162.70556640625 L 475.6199951171875 143.1433868408203 L 499.9800109863281 128.11822509765625 L 524.3400268554688 127.47008514404297 L 548.7000122070312 126.70409393310547 L 573.0599975585938 123.69905853271484 L 597.4199829101562 123.69905853271484 L 621.780029296875 123.69905853271484 L 646.1400146484375 123.69905853271484" stroke-opacity="0.30196078431372547" stroke-linejoin="bevel" stroke-miterlimit="10" stroke-dasharray="" clip-path="url(#qQfqsMhTULzs)"/><path fill="rgb(249,140,9)" stroke="none" paint-order="stroke" d="M 61.5 483.7727355957031 L 61.5 483.7727355957031 L 85.86000061035156 483.7727355957031 L 110.22000122070312 481.88720703125 L 134.5800018310547 481.7693786621094 L 158.94000244140625 481.71044921875 L 183.3000030517578 475.34686279296875 L 207.66000366210938 472.45965576171875 L 232.02000427246094 451.2476501464844 L 256.3800048828125 437.2831115722656 L 280.739990234375 433.099609375 L 305.1000061035156 397.74627685546875 L 329.4599914550781 373.2346496582031 L 353.82000732421875 334.1692199707031 L 378.17999267578125 282.9068908691406 L 402.5400085449219 250.32290649414062 L 426.8999938964844 219.91903686523438 L 451.260009765625 195.9966278076172 L 475.6199951171875 177.43612670898438 L 499.9800109863281 163.23587036132812 L 524.3400268554688 162.5877227783203 L 548.7000122070312 161.9395751953125 L 573.0599975585938 158.5220947265625 L 597.4199829101562 158.5220947265625 L 621.780029296875 158.5220947265625 L 646.1400146484375 158.5220947265625 L 646.1400146484375 120.7529525756836 L 621.780029296875 120.7529525756836 L 597.4199829101562 120.7529525756836 L 573.0599975585938 120.7529525756836 L 548.7000122070312 123.8758316040039 L 524.3400268554688 124.64181518554688 L 499.9800109863281 125.28996276855469 L 475.6199951171875 141.4346466064453 L 451.260009765625 164.76785278320312 L 426.8999938964844 185.92092895507812 L 402.5400085449219 216.08909606933594 L 378.17999267578125 249.32122802734375 L 353.82000732421875 311.24847412109375 L 329.4599914550781 351.84588623046875 L 305.1000061035156 378.5965576171875 L 280.739990234375 419.5475158691406 L 256.3800048828125 424.1434326171875 L 232.02000427246094 441.1719665527344 L 207.66000366210938 464.85870361328125 L 183.3000030517578 469.80816650390625 L 158.94000244140625 479.53033447265625 L 134.5800018310547 479.5892639160156 L 110.22000122070312 479.70709228515625 L 85.86000061035156 483.7727355957031 L 61.5 483.7727355957031 Z" fill-opacity="0.10196078431372549" clip-path="url(#WnoDrHaRrJdu)"/><path fill="none" stroke="rgb(204,204,204)" paint-order="fill" d="M 61.5 483.7727355957031 L 61.5 483.7727355957031 L 85.86000061035156 483.7727355957031 L 110.22000122070312 481.88720703125 L 134.5800018310547 481.7693786621094 L 158.94000244140625 481.71044921875 L 183.3000030517578 475.34686279296875 L 207.66000366210938 472.45965576171875 L 232.02000427246094 451.2476501464844 L 256.3800048828125 437.2831115722656 L 280.739990234375 433.099609375 L 305.1000061035156 397.74627685546875 L 329.4599914550781 373.2346496582031 L 353.82000732421875 334.1692199707031 L 378.17999267578125 282.9068908691406 L 402.5400085449219 250.32290649414062 L 426.8999938964844 219.91903686523438 L 451.260009765625 195.9966278076172 L 475.6199951171875 177.43612670898438 L 499.9800109863281 163.23587036132812 L 524.3400268554688 162.5877227783203 L 548.7000122070312 161.9395751953125 L 573.0599975585938 158.5220947265625 L 597.4199829101562 158.5220947265625 L 621.780029296875 158.5220947265625 L 646.1400146484375 158.5220947265625" stroke-opacity="0.30196078431372547" stroke-linejoin="bevel" stroke-miterlimit="10" stroke-dasharray="" clip-path="url(#WnoDrHaRrJdu)"/><path fill="none" stroke="rgb(204,204,204)" paint-order="fill" d="M 61.5 483.7727355957031 L 61.5 483.7727355957031 L 85.86000061035156 483.7727355957031 L 110.22000122070312 479.70709228515625 L 134.5800018310547 479.5892639160156 L 158.94000244140625 479.53033447265625 L 183.3000030517578 469.80816650390625 L 207.66000366210938 464.85870361328125 L 232.02000427246094 441.1719665527344 L 256.3800048828125 424.1434326171875 L 280.739990234375 419.5475158691406 L 305.1000061035156 378.5965576171875 L 329.4599914550781 351.84588623046875 L 353.82000732421875 311.24847412109375 L 378.17999267578125 249.32122802734375 L 402.5400085449219 216.08909606933594 L 426.8999938964844 185.92092895507812 L 451.260009765625 164.76785278320312 L 475.6199951171875 141.4346466064453 L 499.9800109863281 125.28996276855469 L 524.3400268554688 124.64181518554688 L 548.7000122070312 123.8758316040039 L 573.0599975585938 120.7529525756836 L 597.4199829101562 120.7529525756836 L 621.780029296875 120.7529525756836 L 646.1400146484375 120.7529525756836" stroke-opacity="0.30196078431372547" stroke-linejoin="bevel" stroke-miterlimit="10" stroke-dasharray="" clip-path="url(#WnoDrHaRrJdu)"/><text fill="rgb(68,68,68)" stroke="none" font-family="helvetica" font-size="13px" font-style="normal" font-weight="bold" text-decoration="normal" x="61" y="19" text-anchor="start" dominant-baseline="alphabetic" transform="matrix(1, 0, 0, 1, 0.5, 0.5)" fill-opacity="1">Move schedule totals on grayscale image data (9x9)</text></svg>