<svg version="1.1" xmlns="http://www.w3.org/2000/svg" width="500" height="350"><defs><clipPath id="VkLFIowEZJNP"><path fill="none" stroke="none" d="M 61.5 27.5 L 470.5 27.5 L 470.5 305.5 L 61.5 305.5 L 61.5 27.5"/></clipPath><clipPath id="FLaZtyAKOWOd"><path fill="none" stroke="none" d="M 61.5 27.5 L 470.5 27.5 L 470.5 305.5 L 61.5 305.5 L 61.5 27.5"/></clipPath><clipPath id="twuSltWcHESF"><path fill="none" stroke="none" d="M 61.5 27.5 L 470.5 27.5 L 470.5 305.5 L 61.5 305.5 L 61.5 27.5"/></clipPath><clipPath id="RCPXPoAdyQLd"><path fill="none" stroke="none" d="M 61.5 27.5 L 470.5 27.5 L 470.5 305.5 L 61.5 305.5 L 61.5 27.5"/></clipPath><clipPath id="tgFedEgxFTTh"><path fill="none" stroke="none" d="M 61.5 27.5 L 470.5 27.5 L 470.5 305.5 L 61.5 305.5 L 61.5 27.5"/></clipPath><clipPath id="rhnUVEcIXnTd"><path fill="none" stroke="none" d="M 61.5 27.5 L 470.5 27.5 L 470.5 305.5 L 61.5 305.5 L 61.5 27.5"/></clipPath><clipPath id="JvTvTqdEGMcR"><path fill="none" stroke="none" d="M 61.5 27.5 L 470.5 27.5 L 470.5 305.5 L 61.5 305.5 L 61.5 27.5"/></clipPath><clipPath id="ZzRyptQskgJr"><path fill="none" stroke="none" d="M 61.5 27.5 L 470.5 27.5 L 470.5 305.5 L 61.5 305.5 L 61.5 27.5"/></clipPath><clipPath id="WWekvTzLMVOy"><path fill="none" stroke="none" d="M 61.5 27.5 L 470.5 27.5 L 470.5 305.5 L 61.5 305.5 L 61.5 27.5"/></clipPath><clipPath id="GnDlCuPPzbOZ"><path fill="none" stroke="none" d="M 61.5 27.5 L 470.5 27.5 L 470.5 305.5 L 61.5 305.5 L 61.5 27.5"/></clipPath><clipPath id="boQbHoreloak"><path fill="none" stroke="none" d="M 61.5 27.5 L 470.5 27.5 L 470.5 305.5 L 61.5 305.5 L 61.5 27.5"/></clipPath><clipPath id="sSIfrTuwHTze"><path fill="none" stroke="none" d="M 61.5 27.5 L 470.5 27.5 L 470.5 305.5 L 61.5 305.5 L 61.5 27.5"/></clipPath><clipPath id="CncrIPodgvot"><path fill="none" stroke="none" d="M 61.5 27.5 L 470.5 27.5 L 470.5 305.5 L 61.5 305.5 L 61.5 27.5"/></clipPath><clipPath id="BhODpekKyQDW"><path fill="none" stroke="none" d="M 61.5 27.5 L 470.5 27.5 L 470.5 305.5 L 61.5 305.5 L 61.5 27.5"/></clipPath></defs><path fill="rgb(255,255,255)" stroke="none" paint-order="stroke" d="M 0.5 0.5 L 500.5 0.5 L 500.5 350.5 L 0.5 350.5 L 0.5 0.5" fill-opacity="1"/><rect fill="#FFFFFF" stroke="none" x="61" y="27" width="409" height="278" transform="matrix(1, 0, 0, 1, 0.5, 0.5)"/><path fill="rgb(255,255,255)" stroke="none" paint-order="stroke" d="M 61.5 27.5 L 470.5 27.5 L 470.5 305.5 L 61.5 305.5 L 61.5 27.5" fill-opacity="1"/><path fill="none" stroke="rgb(229,229,229)" paint-order="fill" d="M 61.5 27.5 L 470.5 27.5 L 470.5 305.5 L 61.5 305.5 L 61.5 27.5" stroke-opacity="1" stroke-linejoin="bevel" stroke-miterlimit="10" stroke-dasharray=""/><path fill="none" stroke="rgb(229,229,229)" paint-order="fill" d="M 143.5 305.5 L 143.5 27.5 M 225.5 305.5 L 225.5 27.5 M 306.5 305.5 L 306.5 27.5 M 388.5 305.5 L 388.5 27.5" stroke-opacity="1" stroke-linejoin="bevel" stroke-miterlimit="10" stroke-dasharray="" clip-path="url(#VkLFIowEZJNP)"/><path fill="none" stroke="rgb(229,229,229)" paint-order="fill" d="M 61.5 292.5 L 470.5 292.5 M 61.5 224.5 L 470.5 224.5 M 61.5 155.5 L 470.5 155.5 M 61.5 87.5 L 470.5 87.5" stroke-opacity="1" stroke-linejoin="bevel" stroke-miterlimit="10" stroke-dasharray="" clip-path="url(#FLaZtyAKOWOd)"/><path fill="none" stroke="rgb(255,0,0)" paint-order="fill" d="M 61.5 292.8636474609375 L 77.86000061035156 292.8636474609375 L 94.22000122070312 290.25921630859375 L 110.58000183105469 288.75140380859375 L 126.94000244140625 287.0722351074219 L 143.3000030517578 280.2870788574219 L 159.66000366210938 271.8227233886719 L 176.02000427246094 257.7040710449219 L 192.3800048828125 240.05577087402344 L 208.74000549316406 229.77520751953125 L 225.10000610351562 206.19842529296875 L 241.4600067138672 188.72145080566406 L 257.82000732421875 168.50299072265625 L 274.17999267578125 151.02603149414062 L 290.5400085449219 137.5242156982422 L 306.8999938964844 121.45225524902344 L 323.260009765625 106.6824951171875 L 339.6199951171875 97.22437286376953 L 355.9800109863281 90.13078308105469 L 372.3399963378906 89.71955871582031 L 388.70001220703125 89.17125701904297 L 405.05999755859375 87.2522201538086 L 421.4200134277344 87.2522201538086 L 437.7799987792969 87.2522201538086 L 454.1400146484375 87.2522201538086" stroke-opacity="1" stroke-linejoin="bevel" stroke-miterlimit="10" stroke-width="2.5" stroke-dasharray="6" clip-path="url(#twuSltWcHESF)"/><path fill="none" stroke="rgb(0,0,4)" paint-order="fill" d="M 61.5 292.8636474609375 L 77.86000061035156 292.8636474609375 L 94.22000122070312 290.1495666503906 L 110.58000183105469 289.5807189941406 L 126.94000244140625 289.4710388183594 L 143.3000030517578 283.6522521972656 L 159.66000366210938 279.8895568847656 L 176.02000427246094 262.3611755371094 L 192.3800048828125 247.1836395263672 L 208.74000549316406 241.58071899414062 L 225.10000610351562 213.6758270263672 L 241.4600067138672 189.14637756347656 L 257.82000732421875 161.14895629882812 L 274.17999267578125 129.5738983154297 L 290.5400085449219 110.03739166259766 L 306.8999938964844 86.2652816772461 L 323.260009765625 67.05089569091797 L 339.6199951171875 54.04254913330078 L 355.9800109863281 44.21089553833008 L 372.3399963378906 43.30620574951172 L 388.70001220703125 42.41179656982422 L 405.05999755859375 40.1363639831543 L 421.4200134277344 40.1363639831543 L 437.7799987792969 40.1363639831543 L 454.1400146484375 40.1363639831543" stroke-opacity="1" stroke-linejoin="bevel" stroke-miterlimit="10" stroke-width="2.25" stroke-dasharray="" clip-path="url(#RCPXPoAdyQLd)"/><path fill="none" stroke="rgb(87,15,109)" paint-order="fill" d="M 61.5 292.8636474609375 L 77.86000061035156 292.8636474609375 L 94.22000122070312 291.1433410644531 L 110.58000183105469 290.5196533203125 L 126.94000244140625 290.44427490234375 L 143.3000030517578 285.3828125 L 159.66000366210938 282.5282287597656 L 176.02000427246094 268.46441650390625 L 192.3800048828125 257.9405517578125 L 208.74000549316406 255.03799438476562 L 225.10000610351562 230.90948486328125 L 241.4600067138672 213.66897583007812 L 257.82000732421875 190.76043701171875 L 274.17999267578125 162.00567626953125 L 290.5400085449219 142.01681518554688 L 306.8999938964844 121.42483520507812 L 323.260009765625 108.86883544921875 L 339.6199951171875 97.2312240600586 L 355.9800109863281 88.66065979003906 L 372.3399963378906 88.27684783935547 L 388.70001220703125 87.86905670166016 L 405.05999755859375 86.04939270019531 L 421.4200134277344 86.04939270019531 L 437.7799987792969 86.04939270019531 L 454.1400146484375 86.04939270019531" stroke-opacity="1" stroke-linejoin="bevel" stroke-miterlimit="10" stroke-width="2.25" stroke-dasharray="" clip-path="url(#tgFedEgxFTTh)"/><path fill="none" stroke="rgb(187,55,84)" paint-order="fill" d="M 61.5 292.8636474609375 L 77.86000061035156 292.8636474609375 L 94.22000122070312 291.2735595703125 L 110.58000183105469 291.0645446777344 L 126.94000244140625 291.00970458984375 L 143.3000030517578 286.06817626953125 L 159.66000366210938 283.3061218261719 L 176.02000427246094 271.28472900390625 L 192.3800048828125 261.7066650390625 L 208.74000549316406 259.1810607910156 L 225.10000610351562 235.7036590576172 L 241.4600067138672 220.00523376464844 L 257.82000732421875 197.03158569335938 L 274.17999267578125 167.3173065185547 L 290.5400085449219 146.93435668945312 L 306.8999938964844 127.31217956542969 L 323.260009765625 114.74589538574219 L 339.6199951171875 103.08429718017578 L 355.9800109863281 94.58226776123047 L 372.3399963378906 94.20188903808594 L 388.70001220703125 93.77352905273438 L 405.05999755859375 91.92987823486328 L 421.4200134277344 91.92987823486328 L 437.7799987792969 91.92987823486328 L 454.1400146484375 91.92987823486328" stroke-opacity="1" stroke-linejoin="bevel" stroke-miterlimit="10" stroke-width="2.25" stroke-dasharray="" clip-path="url(#rhnUVEcIXnTd)"/><path fill="none" stroke="rgb(249,140,9)" paint-order="fill" d="M 61.5 292.8636474609375 L 77.86000061035156 292.8636474609375 L 94.22000122070312 291.28729248046875 L 110.58000183105469 291.1604919433594 L 126.94000244140625 291.126220703125 L 143.3000030517578 286.0921630859375 L 159.66000366210938 283.7242126464844 L 176.02000427246094 271.85015869140625 L 192.3800048828125 262.3817443847656 L 208.74000549316406 259.876708984375 L 225.10000610351562 237.32798767089844 L 241.4600067138672 221.99281311035156 L 257.82000732421875 199.88272094726562 L 274.17999267578125 169.1506805419922 L 290.5400085449219 149.76837158203125 L 306.8999938964844 130.71847534179688 L 323.260009765625 118.5017318725586 L 339.6199951171875 106.95321655273438 L 355.9800109863281 98.17361450195312 L 372.3399963378906 97.79666137695312 L 388.70001220703125 97.36830139160156 L 405.05999755859375 95.49381256103516 L 421.4200134277344 95.49381256103516 L 437.7799987792969 95.49381256103516 L 454.1400146484375 95.49381256103516" stroke-opacity="1" stroke-linejoin="bevel" stroke-miterlimit="10" stroke-width="2.25" stroke-dasharray="" clip-path="url(#JvTvTqdEGMcR)"/><path fill="none" stroke="rgb(255,165,0)" paint-order="fill" d="M 61.5 292.8636474609375 L 77.86000061035156 292.8636474609375 L 94.22000122070312 292.14398193359375 L 110.58000183105469 292.0754699707031 L 126.94000244140625 292.04119873046875 L 143.3000030517578 290.190673828125 L 159.66000366210938 289.26544189453125 L 176.02000427246094 282.20611572265625 L 192.3800048828125 277.2029113769531 L 208.74000549316406 274.8041076660156 L 225.10000610351562 264.5235290527344 L 241.4600067138672 256.88165283203125 L 257.82000732421875 242.59164428710938 L 274.17999267578125 224.292236328125 L 290.5400085449219 208.9056396484375 L 306.8999938964844 198.38519287109375 L 323.260009765625 189.02987670898438 L 339.6199951171875 179.77735900878906 L 355.9800109863281 172.88937377929688 L 372.3399963378906 172.4781494140625 L 388.70001220703125 171.9298553466797 L 405.05999755859375 170.079345703125 L 421.4200134277344 170.079345703125 L 437.7799987792969 170.079345703125 L 454.1400146484375 170.079345703125" stroke-opacity="1" stroke-linejoin="bevel" stroke-miterlimit="10" stroke-width="2.5" stroke-dasharray="2,4,6,4" clip-path="url(#ZzRyptQskgJr)"/><path fill="none" stroke="rgb(0,0,0)" paint-order="fill" d="M 61.5 305.5 L 470.5 305.5" stroke-opacity="1" stroke-linejoin="bevel" stroke-miterlimit="10" stroke-dasharray=""/><path fill="none" stroke="rgb(0,0,0)" paint-order="fill" d="M 61.5 311.5 L 61.5 303.5 M 143.5 311.5 L 143.5 303.5 M 225.5 311.5 L 225.5 303.5 M 306.5 311.5 L 306.5 303.5 M 388.5 311.5 L 388.5 303.5 M 470.5 311.5 L 470.5 303.5" stroke-opacity="1" stroke-linejoin="bevel" stroke-miterlimit="10" stroke-dasharray=""/><path fill="none" stroke="rgb(0,0,0)" paint-order="fill" d="M 61.5 309.5 L 61.5 305.5 M 77.5 309.5 L 77.5 305.5 M 94.5 309.5 L 94.5 305.5 M 110.5 309.5 L 110.5 305.5 M 126.5 309.5 L 126.5 305.5 M 143.5 309.5 L 143.5 305.5 M 159.5 309.5 L 159.5 305.5 M 176.5 309.5 L 176.5 305.5 M 192.5 309.5 L 192.5 305.5 M 208.5 309.5 L 208.5 305.5 M 225.5 309.5 L 225.5 305.5 M 241.5 309.5 L 241.5 305.5 M 257.5 309.5 L 257.5 305.5 M 274.5 309.5 L 274.5 305.5 M 290.5 309.5 L 290.5 305.5 M 306.5 309.5 L 306.5 305.5 M 323.5 309.5 L 323.5 305.5 M 339.5 309.5 L 339.5 305.5 M 355.5 309.5 L 355.5 305.5 M 372.5 309.5 L 372.5 305.5 M 388.5 309.5 L 388.5 305.5 M 405.5 309.5 L 405.5 305.5 M 421.5 309.5 L 421.5 305.5 M 437.5 309.5 L 437.5 305.5 M 454.5 309.5 L 454.5 305.5 M 470.5 309.5 L 470.5 305.5" stroke-opacity="1" stroke-linejoin="bevel" stroke-miterlimit="10" stroke-dasharray=""/><text fill="rgb(68,68,68)" stroke="none" font-family="helvetica" font-size="11px" font-style="normal" font-weight="normal" text-decoration="normal" x="57.941162109375" y="323.89013671875" text-anchor="start" dominant-baseline="alphabetic" transform="matrix(1, 0, 0, 1, 0.5, 0.5)" fill-opacity="1">0</text><text fill="rgb(68,68,68)" stroke="none" font-family="helvetica" font-size="11px" font-style="normal" font-weight="normal" text-decoration="normal" x="135.1542510986328" y="323.89013671875" text-anchor="start" dominant-baseline="alphabetic" transform="matrix(1, 0, 0, 1, 0.5, 0.5)" fill-opacity="1">0.2</text><text fill="rgb(68,68,68)" stroke="none" font-family="helvetica" font-size="11px" font-style="normal" font-weight="normal" text-decoration="normal" x="216.95425415039062" y="323.89013671875" text-anchor="start" dominant-baseline="alphabetic" transform="matrix(1, 0, 0, 1, 0.5, 0.5)" fill-opacity="1">0.4</text><text fill="rgb(68,68,68)" stroke="none" font-family="helvetica" font-size="11px" font-style="normal" font-weight="normal" text-decoration="normal" x="298.7542419433594" y="323.89013671875" text-anchor="start" dominant-baseline="alphabetic" transform="matrix(1, 0, 0, 1, 0.5, 0.5)" fill-opacity="1">0.6</text><text fill="rgb(68,68,68)" stroke="none" font-family="helvetica" font-size="11px" font-style="normal" font-weight="normal" text-decoration="normal" x="380.55426025390625" y="323.89013671875" text-anchor="start" dominant-baseline="alphabetic" transform="matrix(1, 0, 0, 1, 0.5, 0.5)" fill-opacity="1">0.8</text><text fill="rgb(68,68,68)" stroke="none" font-family="helvetica" font-size="11px" font-style="normal" font-weight="normal" text-decoration="normal" x="466.941162109375" y="323.89013671875" text-anchor="start" dominant-baseline="alphabetic" transform="matrix(1, 0, 0, 1, 0.5, 0.5)" fill-opacity="1">1</text><text fill="rgb(68,68,68)" stroke="none" font-family="helvetica" font-size="13px" font-style="italic" font-weight="normal" text-decoration="normal" x="251.2939453125" y="343.89013671875" text-anchor="start" dominant-baseline="alphabetic" transform="matrix(1, 0, 0, 1, 0.5, 0.5)" fill-opacity="1">Time</text><path fill="none" stroke="rgb(0,0,0)" paint-order="fill" d="M 61.5 305.5 L 61.5 27.5" stroke-opacity="1" stroke-linejoin="bevel" stroke-miterlimit="10" stroke-dasharray=""/><path fill="none" stroke="rgb(0,0,0)" paint-order="fill" d="M 55.5 292.5 L 63.5 292.5 M 55.5 224.5 L 63.5 224.5 M 55.5 155.5 L 63.5 155.5 M 55.5 87.5 L 63.5 87.5" stroke-opacity="1" stroke-linejoin="bevel" stroke-miterlimit="10" stroke-dasharray=""/><path fill="none" stroke="rgb(0,0,0)" paint-order="fill" d="M 57.5 292.5 L 61.5 292.5 M 57.5 279.5 L 61.5 279.5 M 57.5 265.5 L 61.5 265.5 M 57.5 251.5 L 61.5 251.5 M 57.5 238.5 L 61.5 238.5 M 57.5 224.5 L 61.5 224.5 M 57.5 210.5 L 61.5 210.5 M 57.5 196.5 L 61.5 196.5 M 57.5 183.5 L 61.5 183.5 M 57.5 169.5 L 61.5 169.5 M 57.5 155.5 L 61.5 155.5 M 57.5 142.5 L 61.5 142.5 M 57.5 128.5 L 61.5 128.5 M 57.5 114.5 L 61.5 114.5 M 57.5 100.5 L 61.5 100.5 M 57.5 87.5 L 61.5 87.5 M 57.5 73.5 L 61.5 73.5 M 57.5 59.5 L 61.5 59.5 M 57.5 46.5 L 61.5 46.5 M 57.5 32.5 L 61.5 32.5" stroke-opacity="1" stroke-linejoin="bevel" stroke-miterlimit="10" stroke-dasharray=""/><text fill="rgb(68,68,68)" stroke="none" font-family="helvetica" font-size="11px" font-style="normal" font-weight="normal" text-decoration="normal" x="43.88232421875" y="296.3087158203125" text-anchor="start" dominant-baseline="alphabetic" transform="matrix(1, 0, 0, 1, 0.5, 0.5)" fill-opacity="1">0</text><text fill="rgb(68,68,68)" stroke="none" font-family="helvetica" font-size="11px" font-style="normal" font-weight="normal" text-decoration="normal" x="25.529296875" y="227.7715606689453" text-anchor="start" dominant-baseline="alphabetic" transform="matrix(1, 0, 0, 1, 0.5, 0.5)" fill-opacity="1">2000</text><text fill="rgb(68,68,68)" stroke="none" font-family="helvetica" font-size="11px" font-style="normal" font-weight="normal" text-decoration="normal" x="25.529296875" y="159.2344207763672" text-anchor="start" dominant-baseline="alphabetic" transform="matrix(1, 0, 0, 1, 0.5, 0.5)" fill-opacity="1">4000</text><text fill="rgb(68,68,68)" stroke="none" font-family="helvetica" font-size="11px" font-style="normal" font-weight="normal" text-decoration="normal" x="25.529296875" y="90.6972885131836" text-anchor="start" dominant-baseline="alphabetic" transform="matrix(1, 0, 0, 1, 0.5, 0.5)" fill-opacity="1">6000</text><text fill="rgb(68,68,68)" stroke="none" font-family="helvetica" font-size="13px" font-style="italic" font-weight="normal" text-decoration="normal" x="-100.97509765625" y="163" text-anchor="start" dominant-baseline="alphabetic" transform="matrix(6.123233995736766e-17, -1, 1, 6.123233995736766e-17, -147.970703125, 184.029296875)" fill-opacity="1">Cumulative number of column operations</text><path fill="rgb(255,255,255)" stroke="rgb(0,0,0)" paint-order="fill" d="M 71.5 37.5 L 192.33544921875 37.5 L 192.33544921875 177.5 L 71.5 177.5 L 71.5 37.5" fill-opacity="0.9490196078431372" clip-path="url(#WWekvTzLMVOy)" stroke-opacity="0.5019607843137255" stroke-linejoin="bevel" stroke-miterlimit="10" stroke-dasharray=""/><g clip-path="url(#WWekvTzLMVOy)"><text fill="rgb(68,68,68)" stroke="none" font-family="helvetica" font-size="13px" font-style="normal" font-weight="normal" text-decoration="normal" x="106" y="74.5" text-anchor="start" dominant-baseline="central" transform="matrix(1, 0, 0, 1, 0.5, 0.5)" fill-opacity="1">0 (naive)</text></g><path fill="none" stroke="rgb(255,0,0)" paint-order="fill" d="M 81.5 72.5 L 101.5 72.5" stroke-opacity="1" stroke-linejoin="bevel" stroke-miterlimit="10" stroke-width="2.5" stroke-dasharray="6" clip-path="url(#WWekvTzLMVOy)"/><g clip-path="url(#WWekvTzLMVOy)"><text fill="rgb(68,68,68)" stroke="none" font-family="helvetica" font-size="13px" font-style="normal" font-weight="normal" text-decoration="normal" x="106" y="91.5" text-anchor="start" dominant-baseline="central" transform="matrix(1, 0, 0, 1, 0.5, 0.5)" fill-opacity="1">0 (none)</text></g><path fill="none" stroke="rgb(0,0,4)" paint-order="fill" d="M 81.5 89.5 L 101.5 89.5" stroke-opacity="1" stroke-linejoin="bevel" stroke-miterlimit="10" stroke-width="2.25" stroke-dasharray="" clip-path="url(#WWekvTzLMVOy)"/><g clip-path="url(#WWekvTzLMVOy)"><text fill="rgb(68,68,68)" stroke="none" font-family="helvetica" font-size="13px" font-style="normal" font-weight="normal" text-decoration="normal" x="106" y="108.5" text-anchor="start" dominant-baseline="central" transform="matrix(1, 0, 0, 1, 0.5, 0.5)" fill-opacity="1">1 (33%)</text></g><path fill="none" stroke="rgb(87,15,109)" paint-order="fill" d="M 81.5 106.5 L 101.5 106.5" stroke-opacity="1" stroke-linejoin="bevel" stroke-miterlimit="10" stroke-width="2.25" stroke-dasharray="" clip-path="url(#WWekvTzLMVOy)"/><g clip-path="url(#WWekvTzLMVOy)"><text fill="rgb(68,68,68)" stroke="none" font-family="helvetica" font-size="13px" font-style="normal" font-weight="normal" text-decoration="normal" x="106" y="125.5" text-anchor="start" dominant-baseline="central" transform="matrix(1, 0, 0, 1, 0.5, 0.5)" fill-opacity="1">2 (66%)</text></g><path fill="none" stroke="rgb(187,55,84)" paint-order="fill" d="M 81.5 123.5 L 101.5 123.5" stroke-opacity="1" stroke-linejoin="bevel" stroke-miterlimit="10" stroke-width="2.25" stroke-dasharray="" clip-path="url(#WWekvTzLMVOy)"/><g clip-path="url(#WWekvTzLMVOy)"><text fill="rgb(68,68,68)" stroke="none" font-family="helvetica" font-size="13px" font-style="normal" font-weight="normal" text-decoration="normal" x="106" y="142.5" text-anchor="start" dominant-baseline="central" transform="matrix(1, 0, 0, 1, 0.5, 0.5)" fill-opacity="1">3 (maximum)</text></g><path fill="none" stroke="rgb(249,140,9)" paint-order="fill" d="M 81.5 140.5 L 101.5 140.5" stroke-opacity="1" stroke-linejoin="bevel" stroke-miterlimit="10" stroke-width="2.25" stroke-dasharray="" clip-path="url(#WWekvTzLMVOy)"/><g clip-path="url(#WWekvTzLMVOy)"><text fill="rgb(68,68,68)" stroke="none" font-family="helvetica" font-size="13px" font-style="normal" font-weight="normal" text-decoration="normal" x="106" y="159.5" text-anchor="start" dominant-baseline="central" transform="matrix(1, 0, 0, 1, 0.5, 0.5)" fill-opacity="1">3 (greedy)</text></g><path fill="none" stroke="rgb(255,165,0)" paint-order="fill" d="M 81.5 157.5 L 101.5 157.5" stroke-opacity="1" stroke-linejoin="bevel" stroke-miterlimit="10" stroke-width="2.5" stroke-dasharray="2,4,6,4" clip-path="url(#WWekvTzLMVOy)"/><g clip-path="url(#WWekvTzLMVOy)"><text fill="rgb(68,68,68)" stroke="none" font-family="helvetica" font-size="13px" font-style="italic" font-weight="normal" text-decoration="normal" x="10" y="5" text-anchor="start" dominant-baseline="text-after-edge" transform="matrix(1, 0, 0, 1, 71.5, 57.5)" fill-opacity="1">Coarsening level</text></g><path fill="rgb(0,0,4)" stroke="none" paint-order="stroke" d="M 61.5 292.8636474609375 L 61.5 292.8636474609375 L 77.86000061035156 292.8636474609375 L 94.22000122070312 291.4586181640625 L 110.58000183105469 291.01312255859375 L 126.94000244140625 290.91033935546875 L 143.3000030517578 286.62677001953125 L 159.66000366210938 282.274658203125 L 176.02000427246094 266.68243408203125 L 192.3800048828125 253.11209106445312 L 208.74000549316406 248.6571807861328 L 225.10000610351562 220.21426391601562 L 241.4600067138672 199.2076416015625 L 257.82000732421875 169.35971069335938 L 274.17999267578125 141.56790161132812 L 290.5400085449219 122.30896759033203 L 306.8999938964844 94.03739929199219 L 323.260009765625 79.19910430908203 L 339.6199951171875 67.68486785888672 L 355.9800109863281 57.849788665771484 L 372.3399963378906 57.507102966308594 L 388.70001220703125 57.09587860107422 L 405.05999755859375 54.28585433959961 L 421.4200134277344 54.28585433959961 L 437.7799987792969 54.28585433959961 L 454.1400146484375 54.28585433959961 L 454.1400146484375 26.288434982299805 L 437.7799987792969 26.288434982299805 L 421.4200134277344 26.288434982299805 L 405.05999755859375 26.288434982299805 L 388.70001220703125 28.276012420654297 L 372.3399963378906 29.852365493774414 L 355.9800109863281 30.229320526123047 L 339.6199951171875 38.86499786376953 L 323.260009765625 49.522525787353516 L 306.8999938964844 74.47004699707031 L 290.5400085449219 97.01876068115234 L 274.17999267578125 116.517578125 L 257.82000732421875 149.34686279296875 L 241.4600067138672 180.35992431640625 L 225.10000610351562 207.7747802734375 L 208.74000549316406 235.18963623046875 L 192.3800048828125 241.2551727294922 L 176.02000427246094 257.7040710449219 L 159.66000366210938 277.6826477050781 L 143.3000030517578 281.2123107910156 L 126.94000244140625 288.203125 L 110.58000183105469 288.305908203125 L 94.22000122070312 288.6485900878906 L 77.86000061035156 292.8636474609375 L 61.5 292.8636474609375 Z" fill-opacity="0.10196078431372549" clip-path="url(#GnDlCuPPzbOZ)"/><path fill="none" stroke="rgb(204,204,204)" paint-order="fill" d="M 61.5 292.8636474609375 L 61.5 292.8636474609375 L 77.86000061035156 292.8636474609375 L 94.22000122070312 291.4586181640625 L 110.58000183105469 291.01312255859375 L 126.94000244140625 290.91033935546875 L 143.3000030517578 286.62677001953125 L 159.66000366210938 282.274658203125 L 176.02000427246094 266.68243408203125 L 192.3800048828125 253.11209106445312 L 208.74000549316406 248.6571807861328 L 225.10000610351562 220.21426391601562 L 241.4600067138672 199.2076416015625 L 257.82000732421875 169.35971069335938 L 274.17999267578125 141.56790161132812 L 290.5400085449219 122.30896759033203 L 306.8999938964844 94.03739929199219 L 323.260009765625 79.19910430908203 L 339.6199951171875 67.68486785888672 L 355.9800109863281 57.849788665771484 L 372.3399963378906 57.507102966308594 L 388.70001220703125 57.09587860107422 L 405.05999755859375 54.28585433959961 L 421.4200134277344 54.28585433959961 L 437.7799987792969 54.28585433959961 L 454.1400146484375 54.28585433959961" stroke-opacity="0.30196078431372547" stroke-linejoin="bevel" stroke-miterlimit="10" stroke-dasharray="" clip-path="url(#GnDlCuPPzbOZ)"/><path fill="none" stroke="rgb(204,204,204)" paint-order="fill" d="M 61.5 292.8636474609375 L 61.5 292.8636474609375 L 77.86000061035156 292.8636474609375 L 94.22000122070312 288.6485900878906 L 110.58000183105469 288.305908203125 L 126.94000244140625 288.203125 L 143.3000030517578 281.2123107910156 L 159.66000366210938 277.6826477050781 L 176.02000427246094 257.7040710449219 L 192.3800048828125 241.2551727294922 L 208.74000549316406 235.18963623046875 L 225.10000610351562 207.7747802734375 L 241.4600067138672 180.35992431640625 L 257.82000732421875 149.34686279296875 L 274.17999267578125 116.517578125 L 290.5400085449219 97.01876068115234 L 306.8999938964844 74.47004699707031 L 323.260009765625 49.522525787353516 L 339.6199951171875 38.86499786376953 L 355.9800109863281 30.229320526123047 L 372.3399963378906 29.852365493774414 L 388.70001220703125 28.276012420654297 L 405.05999755859375 26.288434982299805 L 421.4200134277344 26.288434982299805 L 437.7799987792969 26.288434982299805 L 454.1400146484375 26.288434982299805" stroke-opacity="0.30196078431372547" stroke-linejoin="bevel" stroke-miterlimit="10" stroke-dasharray="" clip-path="url(#GnDlCuPPzbOZ)"/><path fill="rgb(87,15,109)" stroke="none" paint-order="stroke" d="M 61.5 292.8636474609375 L 61.5 292.8636474609375 L 77.86000061035156 292.8636474609375 L 94.22000122070312 291.90411376953125 L 110.58000183105469 291.8355712890625 L 126.94000244140625 291.8013000488281 L 143.3000030517578 287.7919006347656 L 159.66000366210938 284.7762451171875 L 176.02000427246094 272.679443359375 L 192.3800048828125 261.9533996582031 L 208.74000549316406 258.5265197753906 L 225.10000610351562 237.75978088378906 L 241.4600067138672 219.39183044433594 L 257.82000732421875 196.15773010253906 L 274.17999267578125 169.80520629882812 L 290.5400085449219 149.51820373535156 L 306.8999938964844 131.52720642089844 L 323.260009765625 119.25906372070312 L 339.6199951171875 107.60774993896484 L 355.9800109863281 98.66365051269531 L 372.3399963378906 98.28669738769531 L 388.70001220703125 97.80693817138672 L 405.05999755859375 95.92216491699219 L 421.4200134277344 95.92216491699219 L 437.7799987792969 95.92216491699219 L 454.1400146484375 95.92216491699219 L 454.1400146484375 81.73497772216797 L 437.7799987792969 81.73497772216797 L 421.4200134277344 81.73497772216797 L 405.05999755859375 81.73497772216797 L 388.70001220703125 83.27706909179688 L 372.3399963378906 83.68828582763672 L 355.9800109863281 84.06524658203125 L 339.6199951171875 92.80372619628906 L 323.260009765625 104.66065216064453 L 306.8999938964844 116.07209014892578 L 290.5400085449219 137.1472625732422 L 274.17999267578125 158.83926391601562 L 257.82000732421875 187.31643676757812 L 241.4600067138672 207.0208740234375 L 225.10000610351562 227.1365203857422 L 208.74000549316406 248.99986267089844 L 192.3800048828125 251.94696044921875 L 176.02000427246094 262.5702209472656 L 159.66000366210938 280.42413330078125 L 143.3000030517578 283.405517578125 L 126.94000244140625 289.813720703125 L 110.58000183105469 289.8479919433594 L 94.22000122070312 290.4991149902344 L 77.86000061035156 292.8636474609375 L 61.5 292.8636474609375 Z" fill-opacity="0.10196078431372549" clip-path="url(#boQbHoreloak)"/><path fill="none" stroke="rgb(204,204,204)" paint-order="fill" d="M 61.5 292.8636474609375 L 61.5 292.8636474609375 L 77.86000061035156 292.8636474609375 L 94.22000122070312 291.90411376953125 L 110.58000183105469 291.8355712890625 L 126.94000244140625 291.8013000488281 L 143.3000030517578 287.7919006347656 L 159.66000366210938 284.7762451171875 L 176.02000427246094 272.679443359375 L 192.3800048828125 261.9533996582031 L 208.74000549316406 258.5265197753906 L 225.10000610351562 237.75978088378906 L 241.4600067138672 219.39183044433594 L 257.82000732421875 196.15773010253906 L 274.17999267578125 169.80520629882812 L 290.5400085449219 149.51820373535156 L 306.8999938964844 131.52720642089844 L 323.260009765625 119.25906372070312 L 339.6199951171875 107.60774993896484 L 355.9800109863281 98.66365051269531 L 372.3399963378906 98.28669738769531 L 388.70001220703125 97.80693817138672 L 405.05999755859375 95.92216491699219 L 421.4200134277344 95.92216491699219 L 437.7799987792969 95.92216491699219 L 454.1400146484375 95.92216491699219" stroke-opacity="0.30196078431372547" stroke-linejoin="bevel" stroke-miterlimit="10" stroke-dasharray="" clip-path="url(#boQbHoreloak)"/><path fill="none" stroke="rgb(204,204,204)" paint-order="fill" d="M 61.5 292.8636474609375 L 61.5 292.8636474609375 L 77.86000061035156 292.8636474609375 L 94.22000122070312 290.4991149902344 L 110.58000183105469 289.8479919433594 L 126.94000244140625 289.813720703125 L 143.3000030517578 283.405517578125 L 159.66000366210938 280.42413330078125 L 176.02000427246094 262.5702209472656 L 192.3800048828125 251.94696044921875 L 208.74000549316406 248.99986267089844 L 225.10000610351562 227.1365203857422 L 241.4600067138672 207.0208740234375 L 257.82000732421875 187.31643676757812 L 274.17999267578125 158.83926391601562 L 290.5400085449219 137.1472625732422 L 306.8999938964844 116.07209014892578 L 323.260009765625 104.66065216064453 L 339.6199951171875 92.80372619628906 L 355.9800109863281 84.06524658203125 L 372.3399963378906 83.68828582763672 L 388.70001220703125 83.27706909179688 L 405.05999755859375 81.73497772216797 L 421.4200134277344 81.73497772216797 L 437.7799987792969 81.73497772216797 L 454.1400146484375 81.73497772216797" stroke-opacity="0.30196078431372547" stroke-linejoin="bevel" stroke-miterlimit="10" stroke-dasharray="" clip-path="url(#boQbHoreloak)"/><path fill="rgb(187,55,84)" stroke="none" paint-order="stroke" d="M 61.5 292.8636474609375 L 61.5 292.8636474609375 L 77.86000061035156 292.8636474609375 L 94.22000122070312 292.0754699707031 L 110.58000183105469 292.0069274902344 L 126.94000244140625 291.90411376953125 L 143.3000030517578 288.1688537597656 L 159.66000366210938 286.2840576171875 L 176.02000427246094 276.2091064453125 L 192.3800048828125 267.5048828125 L 208.74000549316406 265.5173034667969 L 225.10000610351562 245.8814239501953 L 241.4600067138672 228.9527587890625 L 257.82000732421875 208.56295776367188 L 274.17999267578125 182.79298400878906 L 290.5400085449219 160.1757354736328 L 306.8999938964844 140.40277099609375 L 323.260009765625 128.4430389404297 L 339.6199951171875 117.20294952392578 L 355.9800109863281 109.52678680419922 L 372.3399963378906 109.14983367919922 L 388.70001220703125 108.73860931396484 L 405.05999755859375 106.75103759765625 L 421.4200134277344 106.75103759765625 L 437.7799987792969 106.75103759765625 L 454.1400146484375 106.75103759765625 L 454.1400146484375 83.44841003417969 L 437.7799987792969 83.44841003417969 L 421.4200134277344 83.44841003417969 L 405.05999755859375 83.44841003417969 L 388.70001220703125 85.19610595703125 L 372.3399963378906 85.64159393310547 L 355.9800109863281 86.0185546875 L 339.6199951171875 94.75703430175781 L 323.260009765625 106.13420104980469 L 306.8999938964844 117.51136779785156 L 290.5400085449219 136.941650390625 L 274.17999267578125 157.74266052246094 L 257.82000732421875 189.98939514160156 L 241.4600067138672 215.14251708984375 L 225.10000610351562 231.24874877929688 L 208.74000549316406 254.8597869873047 L 192.3800048828125 257.87542724609375 L 176.02000427246094 267.1622009277344 L 159.66000366210938 280.9724426269531 L 143.3000030517578 283.85101318359375 L 126.94000244140625 290.7047119140625 L 110.58000183105469 290.7389831542969 L 94.22000122070312 290.841796875 L 77.86000061035156 292.8636474609375 L 61.5 292.8636474609375 Z" fill-opacity="0.10196078431372549" clip-path="url(#sSIfrTuwHTze)"/><path fill="none" stroke="rgb(204,204,204)" paint-order="fill" d="M 61.5 292.8636474609375 L 61.5 292.8636474609375 L 77.86000061035156 292.8636474609375 L 94.22000122070312 292.0754699707031 L 110.58000183105469 292.0069274902344 L 126.94000244140625 291.90411376953125 L 143.3000030517578 288.1688537597656 L 159.66000366210938 286.2840576171875 L 176.02000427246094 276.2091064453125 L 192.3800048828125 267.5048828125 L 208.74000549316406 265.5173034667969 L 225.10000610351562 245.8814239501953 L 241.4600067138672 228.9527587890625 L 257.82000732421875 208.56295776367188 L 274.17999267578125 182.79298400878906 L 290.5400085449219 160.1757354736328 L 306.8999938964844 140.40277099609375 L 323.260009765625 128.4430389404297 L 339.6199951171875 117.20294952392578 L 355.9800109863281 109.52678680419922 L 372.3399963378906 109.14983367919922 L 388.70001220703125 108.73860931396484 L 405.05999755859375 106.75103759765625 L 421.4200134277344 106.75103759765625 L 437.7799987792969 106.75103759765625 L 454.1400146484375 106.75103759765625" stroke-opacity="0.30196078431372547" stroke-linejoin="bevel" stroke-miterlimit="10" stroke-dasharray="" clip-path="url(#sSIfrTuwHTze)"/><path fill="none" stroke="rgb(204,204,204)" paint-order="fill" d="M 61.5 292.8636474609375 L 61.5 292.8636474609375 L 77.86000061035156 292.8636474609375 L 94.22000122070312 290.841796875 L 110.58000183105469 290.7389831542969 L 126.94000244140625 290.7047119140625 L 143.3000030517578 283.85101318359375 L 159.66000366210938 280.9724426269531 L 176.02000427246094 267.1622009277344 L 192.3800048828125 257.87542724609375 L 208.74000549316406 254.8597869873047 L 225.10000610351562 231.24874877929688 L 241.4600067138672 215.14251708984375 L 257.82000732421875 189.98939514160156 L 274.17999267578125 157.74266052246094 L 290.5400085449219 136.941650390625 L 306.8999938964844 117.51136779785156 L 323.260009765625 106.13420104980469 L 339.6199951171875 94.75703430175781 L 355.9800109863281 86.0185546875 L 372.3399963378906 85.64159393310547 L 388.70001220703125 85.19610595703125 L 405.05999755859375 83.44841003417969 L 421.4200134277344 83.44841003417969 L 437.7799987792969 83.44841003417969 L 454.1400146484375 83.44841003417969" stroke-opacity="0.30196078431372547" stroke-linejoin="bevel" stroke-miterlimit="10" stroke-dasharray="" clip-path="url(#sSIfrTuwHTze)"/><path fill="rgb(249,140,9)" stroke="none" paint-order="stroke" d="M 61.5 292.8636474609375 L 61.5 292.8636474609375 L 77.86000061035156 292.8636474609375 L 94.22000122070312 291.76702880859375 L 110.58000183105469 291.6985168457031 L 126.94000244140625 291.66424560546875 L 143.3000030517578 287.9632263183594 L 159.66000366210938 286.2840576171875 L 176.02000427246094 273.9473876953125 L 192.3800048828125 265.82574462890625 L 208.74000549316406 263.3926696777344 L 225.10000610351562 242.83152770996094 L 241.4600067138672 228.5758056640625 L 257.82000732421875 205.85574340820312 L 274.17999267578125 176.04208374023438 L 290.5400085449219 157.09156799316406 L 306.8999938964844 139.4089813232422 L 323.260009765625 125.49594116210938 L 339.6199951171875 114.70134735107422 L 355.9800109863281 106.44261932373047 L 372.3399963378906 106.06566619873047 L 388.70001220703125 105.68871307373047 L 405.05999755859375 103.70113372802734 L 421.4200134277344 103.70113372802734 L 437.7799987792969 103.70113372802734 L 454.1400146484375 103.70113372802734 L 454.1400146484375 81.73497772216797 L 437.7799987792969 81.73497772216797 L 421.4200134277344 81.73497772216797 L 405.05999755859375 81.73497772216797 L 388.70001220703125 83.55121612548828 L 372.3399963378906 83.9967041015625 L 355.9800109863281 84.3736572265625 L 339.6199951171875 93.76324462890625 L 323.260009765625 107.33360290527344 L 306.8999938964844 119.63601684570312 L 290.5400085449219 137.1815185546875 L 274.17999267578125 156.50900268554688 L 257.82000732421875 192.5252685546875 L 241.4600067138672 216.1363067626953 L 225.10000610351562 231.69424438476562 L 208.74000549316406 255.51089477539062 L 192.3800048828125 258.183837890625 L 176.02000427246094 268.08746337890625 L 159.66000366210938 281.8634338378906 L 143.3000030517578 284.7419738769531 L 126.94000244140625 290.39630126953125 L 110.58000183105469 290.4305725097656 L 94.22000122070312 290.4991149902344 L 77.86000061035156 292.8636474609375 L 61.5 292.8636474609375 Z" fill-opacity="0.10196078431372549" clip-path="url(#CncrIPodgvot)"/><path fill="none" stroke="rgb(204,204,204)" paint-order="fill" d="M 61.5 292.8636474609375 L 61.5 292.8636474609375 L 77.86000061035156 292.8636474609375 L 94.22000122070312 291.76702880859375 L 110.58000183105469 291.6985168457031 L 126.94000244140625 291.66424560546875 L 143.3000030517578 287.9632263183594 L 159.66000366210938 286.2840576171875 L 176.02000427246094 273.9473876953125 L 192.3800048828125 265.82574462890625 L 208.74000549316406 263.3926696777344 L 225.10000610351562 242.83152770996094 L 241.4600067138672 228.5758056640625 L 257.82000732421875 205.85574340820312 L 274.17999267578125 176.04208374023438 L 290.5400085449219 157.09156799316406 L 306.8999938964844 139.4089813232422 L 323.260009765625 125.49594116210938 L 339.6199951171875 114.70134735107422 L 355.9800109863281 106.44261932373047 L 372.3399963378906 106.06566619873047 L 388.70001220703125 105.68871307373047 L 405.05999755859375 103.70113372802734 L 421.4200134277344 103.70113372802734 L 437.7799987792969 103.70113372802734 L 454.1400146484375 103.70113372802734" stroke-opacity="0.30196078431372547" stroke-linejoin="bevel" stroke-miterlimit="10" stroke-dasharray="" clip-path="url(#CncrIPodgvot)"/><path fill="none" stroke="rgb(204,204,204)" paint-order="fill" d="M 61.5 292.8636474609375 L 61.5 292.8636474609375 L 77.86000061035156 292.8636474609375 L 94.22000122070312 290.4991149902344 L 110.58000183105469 290.4305725097656 L 126.94000244140625 290.39630126953125 L 143.3000030517578 284.7419738769531 L 159.66000366210938 281.8634338378906 L 176.02000427246094 268.08746337890625 L 192.3800048828125 258.183837890625 L 208.74000549316406 255.51089477539062 L 225.10000610351562 231.69424438476562 L 241.4600067138672 216.1363067626953 L 257.82000732421875 192.5252685546875 L 274.17999267578125 156.50900268554688 L 290.5400085449219 137.1815185546875 L 306.8999938964844 119.63601684570312 L 323.260009765625 107.33360290527344 L 339.6199951171875 93.76324462890625 L 355.9800109863281 84.3736572265625 L 372.3399963378906 83.9967041015625 L 388.70001220703125 83.55121612548828 L 405.05999755859375 81.73497772216797 L 421.4200134277344 81.73497772216797 L 437.7799987792969 81.73497772216797 L 454.1400146484375 81.73497772216797" stroke-opacity="0.30196078431372547" stroke-linejoin="bevel" stroke-miterlimit="10" stroke-dasharray="" clip-path="url(#CncrIPodgvot)"/><text fill="rgb(68,68,68)" stroke="none" font-family="helvetica" font-size="13px" font-style="normal" font-weight="bold" text-decoration="normal" x="61" y="19" text-anchor="start" dominant-baseline="alphabetic" transform="matrix(1, 0, 0, 1, 0.5, 0.5)" fill-opacity="1">Move schedule totals on grayscale image data (9x9)</text></svg>