<svg version="1.1" xmlns="http://www.w3.org/2000/svg" width="400" height="400"><defs><clipPath id="BnbCXGFowfTO"><path fill="none" stroke="none" d="M 5.5 5.5 L 395.5 5.5 L 395.5 395.5 L 5.5 395.5 L 5.5 5.5 Z"/></clipPath><clipPath id="ycDNvJolTwkJ"><path fill="none" stroke="none" d="M 5.5 5.5 L 395.5 5.5 L 395.5 395.5 L 5.5 395.5 L 5.5 5.5 Z"/></clipPath><clipPath id="qvfLyeMANrtg"><path fill="none" stroke="none" d="M 5.5 5.5 L 395.5 5.5 L 395.5 395.5 L 5.5 395.5 L 5.5 5.5 Z"/></clipPath><clipPath id="BxhbBcVpQial"><path fill="none" stroke="none" d="M 5.5 5.5 L 395.5 5.5 L 395.5 395.5 L 5.5 395.5 L 5.5 5.5 Z"/></clipPath><clipPath id="KqsaOuHQgbFZ"><path fill="none" stroke="none" d="M 5.5 5.5 L 395.5 5.5 L 395.5 395.5 L 5.5 395.5 L 5.5 5.5 Z"/></clipPath><clipPath id="IvTTodGNBVeO"><path fill="none" stroke="none" d="M 5.5 5.5 L 395.5 5.5 L 395.5 395.5 L 5.5 395.5 L 5.5 5.5 Z"/></clipPath><clipPath id="LHVtTclVaGKx"><path fill="none" stroke="none" d="M 5.5 5.5 L 395.5 5.5 L 395.5 395.5 L 5.5 395.5 L 5.5 5.5 Z"/></clipPath><clipPath id="aAhgZfgcmfGb"><path fill="none" stroke="none" d="M 5.5 5.5 L 395.5 5.5 L 395.5 395.5 L 5.5 395.5 L 5.5 5.5 Z"/></clipPath><clipPath id="mQluLONnbUks"><path fill="none" stroke="none" d="M 5.5 5.5 L 395.5 5.5 L 395.5 395.5 L 5.5 395.5 L 5.5 5.5 Z"/></clipPath></defs><path fill="rgb(255,255,255)" stroke="none" paint-order="stroke" d="M 0.5 0.5 L 400.5 0.5 L 400.5 400.5 L 0.5 400.5 L 0.5 0.5 Z" fill-opacity="1"/><rect fill="#FFFFFF" stroke="none" x="5" y="5" width="390" height="390" transform="matrix(1, 0, 0, 1, 0.5, 0.5)"/><path fill="rgb(255,255,255)" stroke="none" paint-order="stroke" d="M 5.5 5.5 L 395.5 5.5 L 395.5 395.5 L 5.5 395.5 L 5.5 5.5 Z" fill-opacity="1"/><path fill="none" stroke="rgb(229,229,229)" paint-order="fill" d="M 5.5 5.5 L 395.5 5.5 L 395.5 395.5 L 5.5 395.5 L 5.5 5.5 Z" stroke-opacity="1" stroke-linejoin="bevel" stroke-miterlimit="10"/><path fill="none" stroke="rgb(229,229,229)" paint-order="fill" d="M 11.5 395.5 L 11.5 5.5 M 74.5 395.5 L 74.5 5.5 M 137.5 395.5 L 137.5 5.5 M 200.5 395.5 L 200.5 5.5 M 263.5 395.5 L 263.5 5.5 M 326.5 395.5 L 326.5 5.5 M 389.5 395.5 L 389.5 5.5" stroke-opacity="1" stroke-linejoin="bevel" stroke-miterlimit="10" clip-path="url(#BnbCXGFowfTO)"/><path fill="none" stroke="rgb(229,229,229)" paint-order="fill" d="M 5.5 389.5 L 395.5 389.5 M 5.5 326.5 L 395.5 326.5 M 5.5 263.5 L 395.5 263.5 M 5.5 200.5 L 395.5 200.5 M 5.5 137.5 L 395.5 137.5 M 5.5 74.5 L 395.5 74.5 M 5.5 11.5 L 395.5 11.5" stroke-opacity="1" stroke-linejoin="bevel" stroke-miterlimit="10" clip-path="url(#ycDNvJolTwkJ)"/><path fill="rgb(128,128,128)" stroke="none" paint-order="stroke" d="M -31447.6328125 31848.6328125 L 31544.03515625 31848.6328125 L 31544.03515625 -31143.03515625 Z" fill-opacity="0.8" clip-path="url(#qvfLyeMANrtg)"/><path fill="rgb(31,119,180)" stroke="rgb(31,119,180)" paint-order="fill" d="M 16.35063934326172 315.94873046875 A 5 5 0 0 1 6.350639343261719 315.94873046875 A 5 5 0 0 1 16.35063934326172 315.94873046875" fill-opacity="1" clip-path="url(#BxhbBcVpQial)" stroke-opacity="1" stroke-linejoin="bevel" stroke-miterlimit="10"/><path fill="rgb(255,0,0)" stroke="rgb(0,0,0)" paint-order="fill" d="M 162.75807189941406 112.43548583984375 L 225.66129684448242 112.43548583984375 L 225.66129684448242 169.04838943481445 L 162.75807189941406 169.04838943481445 L 162.75807189941406 112.43548583984375 Z" fill-opacity="0.3176470588235294" clip-path="url(#KqsaOuHQgbFZ)" stroke-opacity="1" stroke-linejoin="bevel" stroke-miterlimit="10"/><path fill="rgb(255,0,0)" stroke="rgb(0,0,0)" paint-order="fill" d="M 49.532257080078125 213.0806427001953 L 99.85483932495117 213.0806427001953 L 99.85483932495117 275.9838676452637 L 49.532257080078125 275.9838676452637 L 49.532257080078125 213.0806427001953 Z" fill-opacity="0.3176470588235294" clip-path="url(#IvTTodGNBVeO)" stroke-opacity="1" stroke-linejoin="bevel" stroke-miterlimit="10"/><path fill="rgb(255,0,0)" stroke="rgb(0,0,0)" paint-order="fill" d="M 11.790322303771973 11.790322303771973 L 74.69354724884033 11.790322303771973 L 74.69354724884033 74.69354724884033 L 11.790322303771973 74.69354724884033 L 11.790322303771973 11.790322303771973 Z" fill-opacity="0.3176470588235294" clip-path="url(#LHVtTclVaGKx)" stroke-opacity="1" stroke-linejoin="bevel" stroke-miterlimit="10"/><path fill="rgb(255,0,0)" stroke="rgb(0,0,0)" paint-order="fill" d="M 150.1774139404297 175.33871459960938 L 175.3387050628662 175.33871459960938 L 175.3387050628662 219.3709716796875 L 150.1774139404297 219.3709716796875 L 150.1774139404297 175.33871459960938 Z" fill-opacity="0.3176470588235294" clip-path="url(#aAhgZfgcmfGb)" stroke-opacity="1" stroke-linejoin="bevel" stroke-miterlimit="10"/></svg>