<svg version="1.1" xmlns="http://www.w3.org/2000/svg" width="400" height="400"><defs><clipPath id="fWWblLlLdQTS"><path fill="none" stroke="none" d="M 5.5 5.5 L 395.5 5.5 L 395.5 395.5 L 5.5 395.5 L 5.5 5.5 Z"/></clipPath><clipPath id="gnrTmIUDidVT"><path fill="none" stroke="none" d="M 5.5 5.5 L 395.5 5.5 L 395.5 395.5 L 5.5 395.5 L 5.5 5.5 Z"/></clipPath><clipPath id="DThHECwIBEog"><path fill="none" stroke="none" d="M 5.5 5.5 L 395.5 5.5 L 395.5 395.5 L 5.5 395.5 L 5.5 5.5 Z"/></clipPath><clipPath id="pzQTAZhHrUxO"><path fill="none" stroke="none" d="M 5.5 5.5 L 395.5 5.5 L 395.5 395.5 L 5.5 395.5 L 5.5 5.5 Z"/></clipPath><clipPath id="lCgBhWnoHKnb"><path fill="none" stroke="none" d="M 5.5 5.5 L 395.5 5.5 L 395.5 395.5 L 5.5 395.5 L 5.5 5.5 Z"/></clipPath></defs><path fill="rgb(255,255,255)" stroke="none" paint-order="stroke" d="M 0.5 0.5 L 400.5 0.5 L 400.5 400.5 L 0.5 400.5 L 0.5 0.5 Z" fill-opacity="1"/><rect fill="#FFFFFF" stroke="none" x="5" y="5" width="390" height="390" transform="matrix(1, 0, 0, 1, 0.5, 0.5)"/><path fill="rgb(255,255,255)" stroke="none" paint-order="stroke" d="M 5.5 5.5 L 395.5 5.5 L 395.5 395.5 L 5.5 395.5 L 5.5 5.5 Z" fill-opacity="1"/><path fill="none" stroke="rgb(229,229,229)" paint-order="fill" d="M 5.5 5.5 L 395.5 5.5 L 395.5 395.5 L 5.5 395.5 L 5.5 5.5 Z" stroke-opacity="1" stroke-linejoin="bevel" stroke-miterlimit="10"/><path fill="none" stroke="rgb(229,229,229)" paint-order="fill" d="M 11.5 395.5 L 11.5 5.5 M 74.5 395.5 L 74.5 5.5 M 137.5 395.5 L 137.5 5.5 M 200.5 395.5 L 200.5 5.5 M 263.5 395.5 L 263.5 5.5 M 326.5 395.5 L 326.5 5.5 M 389.5 395.5 L 389.5 5.5" stroke-opacity="1" stroke-linejoin="bevel" stroke-miterlimit="10" clip-path="url(#fWWblLlLdQTS)"/><path fill="none" stroke="rgb(229,229,229)" paint-order="fill" d="M 5.5 389.5 L 395.5 389.5 M 5.5 326.5 L 395.5 326.5 M 5.5 263.5 L 395.5 263.5 M 5.5 200.5 L 395.5 200.5 M 5.5 137.5 L 395.5 137.5 M 5.5 74.5 L 395.5 74.5 M 5.5 11.5 L 395.5 11.5" stroke-opacity="1" stroke-linejoin="bevel" stroke-miterlimit="10" clip-path="url(#gnrTmIUDidVT)"/><path fill="rgb(128,128,128)" stroke="none" paint-order="stroke" d="M -31418.474609375 31819.474609375 L 31815.232421875 31819.474609375 L 31815.232421875 -31414.232421875 Z" fill-opacity="0.8" clip-path="url(#DThHECwIBEog)"/><path fill="rgb(31,119,180)" stroke="rgb(31,119,180)" paint-order="fill" d="M 65.67828750610352 264.9654235839844 A 5 5 0 0 1 55.678287506103516 264.9654235839844 A 5 5 0 0 1 65.67828750610352 264.9654235839844" fill-opacity="1" clip-path="url(#pzQTAZhHrUxO)" stroke-opacity="1" stroke-linejoin="bevel" stroke-miterlimit="10"/><path fill="rgb(31,119,180)" stroke="rgb(31,119,180)" paint-order="fill" d="M 69.37920761108398 334.5964050292969 A 5 5 0 0 1 59.379207611083984 334.5964050292969 A 5 5 0 0 1 69.37920761108398 334.5964050292969" fill-opacity="1" clip-path="url(#pzQTAZhHrUxO)" stroke-opacity="1" stroke-linejoin="bevel" stroke-miterlimit="10"/><path fill="rgb(31,119,180)" stroke="rgb(31,119,180)" paint-order="fill" d="M 70.56346893310547 330.7556457519531 A 5 5 0 0 1 60.56346893310547 330.7556457519531 A 5 5 0 0 1 70.56346893310547 330.7556457519531" fill-opacity="1" clip-path="url(#pzQTAZhHrUxO)" stroke-opacity="1" stroke-linejoin="bevel" stroke-miterlimit="10"/><path fill="rgb(31,119,180)" stroke="rgb(31,119,180)" paint-order="fill" d="M 72.4129409790039 64.92033386230469 A 5 5 0 0 1 62.412940979003906 64.92033386230469 A 5 5 0 0 1 72.4129409790039 64.92033386230469" fill-opacity="1" clip-path="url(#pzQTAZhHrUxO)" stroke-opacity="1" stroke-linejoin="bevel" stroke-miterlimit="10"/><path fill="rgb(31,119,180)" stroke="rgb(31,119,180)" paint-order="fill" d="M 73.8927230834961 329.8865661621094 A 5 5 0 0 1 63.892723083496094 329.8865661621094 A 5 5 0 0 1 73.8927230834961 329.8865661621094" fill-opacity="1" clip-path="url(#pzQTAZhHrUxO)" stroke-opacity="1" stroke-linejoin="bevel" stroke-miterlimit="10"/><path fill="rgb(31,119,180)" stroke="rgb(31,119,180)" paint-order="fill" d="M 76.30537414550781 328.2724609375 A 5 5 0 0 1 66.30537414550781 328.2724609375 A 5 5 0 0 1 76.30537414550781 328.2724609375" fill-opacity="1" clip-path="url(#pzQTAZhHrUxO)" stroke-opacity="1" stroke-linejoin="bevel" stroke-miterlimit="10"/><path fill="rgb(31,119,180)" stroke="rgb(31,119,180)" paint-order="fill" d="M 79.51839447021484 321.399169921875 A 5 5 0 0 1 69.51839447021484 321.399169921875 A 5 5 0 0 1 79.51839447021484 321.399169921875" fill-opacity="1" clip-path="url(#pzQTAZhHrUxO)" stroke-opacity="1" stroke-linejoin="bevel" stroke-miterlimit="10"/><path fill="rgb(31,119,180)" stroke="rgb(31,119,180)" paint-order="fill" d="M 82.47972106933594 242.30844116210938 A 5 5 0 0 1 72.47972106933594 242.30844116210938 A 5 5 0 0 1 82.47972106933594 242.30844116210938" fill-opacity="1" clip-path="url(#pzQTAZhHrUxO)" stroke-opacity="1" stroke-linejoin="bevel" stroke-miterlimit="10"/><path fill="rgb(31,119,180)" stroke="rgb(31,119,180)" paint-order="fill" d="M 82.54158782958984 317.78533935546875 A 5 5 0 0 1 72.54158782958984 317.78533935546875 A 5 5 0 0 1 82.54158782958984 317.78533935546875" fill-opacity="1" clip-path="url(#pzQTAZhHrUxO)" stroke-opacity="1" stroke-linejoin="bevel" stroke-miterlimit="10"/><path fill="rgb(31,119,180)" stroke="rgb(31,119,180)" paint-order="fill" d="M 88.52510070800781 316.38958740234375 A 5 5 0 0 1 78.52510070800781 316.38958740234375 A 5 5 0 0 1 88.52510070800781 316.38958740234375" fill-opacity="1" clip-path="url(#pzQTAZhHrUxO)" stroke-opacity="1" stroke-linejoin="bevel" stroke-miterlimit="10"/><path fill="rgb(31,119,180)" stroke="rgb(31,119,180)" paint-order="fill" d="M 107.45933532714844 295.3724060058594 A 5 5 0 0 1 97.45933532714844 295.3724060058594 A 5 5 0 0 1 107.45933532714844 295.3724060058594" fill-opacity="1" clip-path="url(#pzQTAZhHrUxO)" stroke-opacity="1" stroke-linejoin="bevel" stroke-miterlimit="10"/><path fill="rgb(31,119,180)" stroke="rgb(31,119,180)" paint-order="fill" d="M 109.0222396850586 292.8394470214844 A 5 5 0 0 1 99.0222396850586 292.8394470214844 A 5 5 0 0 1 109.0222396850586 292.8394470214844" fill-opacity="1" clip-path="url(#pzQTAZhHrUxO)" stroke-opacity="1" stroke-linejoin="bevel" stroke-miterlimit="10"/><path fill="rgb(31,119,180)" stroke="rgb(31,119,180)" paint-order="fill" d="M 133.71754455566406 269.0009765625 A 5 5 0 0 1 123.71754455566406 269.0009765625 A 5 5 0 0 1 133.71754455566406 269.0009765625" fill-opacity="1" clip-path="url(#pzQTAZhHrUxO)" stroke-opacity="1" stroke-linejoin="bevel" stroke-miterlimit="10"/><path fill="rgb(31,119,180)" stroke="rgb(31,119,180)" paint-order="fill" d="M 141.2310791015625 254.8475799560547 A 5 5 0 0 1 131.2310791015625 254.8475799560547 A 5 5 0 0 1 141.2310791015625 254.8475799560547" fill-opacity="1" clip-path="url(#pzQTAZhHrUxO)" stroke-opacity="1" stroke-linejoin="bevel" stroke-miterlimit="10"/><path fill="rgb(31,119,180)" stroke="rgb(31,119,180)" paint-order="fill" d="M 160.35289001464844 213.99069213867188 A 5 5 0 0 1 150.35289001464844 213.99069213867188 A 5 5 0 0 1 160.35289001464844 213.99069213867188" fill-opacity="1" clip-path="url(#pzQTAZhHrUxO)" stroke-opacity="1" stroke-linejoin="bevel" stroke-miterlimit="10"/><path fill="rgb(31,119,180)" stroke="rgb(31,119,180)" paint-order="fill" d="M 170.0178985595703 228.5280303955078 A 5 5 0 0 1 160.0178985595703 228.5280303955078 A 5 5 0 0 1 170.0178985595703 228.5280303955078" fill-opacity="1" clip-path="url(#pzQTAZhHrUxO)" stroke-opacity="1" stroke-linejoin="bevel" stroke-miterlimit="10"/><path fill="rgb(31,119,180)" stroke="rgb(31,119,180)" paint-order="fill" d="M 171.6145477294922 227.79766845703125 A 5 5 0 0 1 161.6145477294922 227.79766845703125 A 5 5 0 0 1 171.6145477294922 227.79766845703125" fill-opacity="1" clip-path="url(#pzQTAZhHrUxO)" stroke-opacity="1" stroke-linejoin="bevel" stroke-miterlimit="10"/><path fill="rgb(31,119,180)" stroke="rgb(31,119,180)" paint-order="fill" d="M 172.9073944091797 229.3396453857422 A 5 5 0 0 1 162.9073944091797 229.3396453857422 A 5 5 0 0 1 172.9073944091797 229.3396453857422" fill-opacity="1" clip-path="url(#pzQTAZhHrUxO)" stroke-opacity="1" stroke-linejoin="bevel" stroke-miterlimit="10"/><path fill="rgb(31,119,180)" stroke="rgb(31,119,180)" paint-order="fill" d="M 174.5189666748047 189.45741271972656 A 5 5 0 0 1 164.5189666748047 189.45741271972656 A 5 5 0 0 1 174.5189666748047 189.45741271972656" fill-opacity="1" clip-path="url(#pzQTAZhHrUxO)" stroke-opacity="1" stroke-linejoin="bevel" stroke-miterlimit="10"/><path fill="rgb(31,119,180)" stroke="rgb(31,119,180)" paint-order="fill" d="M 179.76210021972656 219.94349670410156 A 5 5 0 0 1 169.76210021972656 219.94349670410156 A 5 5 0 0 1 179.76210021972656 219.94349670410156" fill-opacity="1" clip-path="url(#pzQTAZhHrUxO)" stroke-opacity="1" stroke-linejoin="bevel" stroke-miterlimit="10"/><path fill="rgb(31,119,180)" stroke="rgb(31,119,180)" paint-order="fill" d="M 180.51177978515625 220.8466339111328 A 5 5 0 0 1 170.51177978515625 220.8466339111328 A 5 5 0 0 1 180.51177978515625 220.8466339111328" fill-opacity="1" clip-path="url(#pzQTAZhHrUxO)" stroke-opacity="1" stroke-linejoin="bevel" stroke-miterlimit="10"/><path fill="rgb(31,119,180)" stroke="rgb(31,119,180)" paint-order="fill" d="M 181.01797485351562 159.40736389160156 A 5 5 0 0 1 171.01797485351562 159.40736389160156 A 5 5 0 0 1 181.01797485351562 159.40736389160156" fill-opacity="1" clip-path="url(#pzQTAZhHrUxO)" stroke-opacity="1" stroke-linejoin="bevel" stroke-miterlimit="10"/><path fill="rgb(31,119,180)" stroke="rgb(31,119,180)" paint-order="fill" d="M 184.17193603515625 216.484375 A 5 5 0 0 1 174.17193603515625 216.484375 A 5 5 0 0 1 184.17193603515625 216.484375" fill-opacity="1" clip-path="url(#pzQTAZhHrUxO)" stroke-opacity="1" stroke-linejoin="bevel" stroke-miterlimit="10"/><path fill="rgb(31,119,180)" stroke="rgb(31,119,180)" paint-order="fill" d="M 184.17193603515625 220.07888793945312 A 5 5 0 0 1 174.17193603515625 220.07888793945312 A 5 5 0 0 1 184.17193603515625 220.07888793945312" fill-opacity="1" clip-path="url(#pzQTAZhHrUxO)" stroke-opacity="1" stroke-linejoin="bevel" stroke-miterlimit="10"/><path fill="rgb(31,119,180)" stroke="rgb(31,119,180)" paint-order="fill" d="M 194.77288818359375 133.63348388671875 A 5 5 0 0 1 184.77288818359375 133.63348388671875 A 5 5 0 0 1 194.77288818359375 133.63348388671875" fill-opacity="1" clip-path="url(#pzQTAZhHrUxO)" stroke-opacity="1" stroke-linejoin="bevel" stroke-miterlimit="10"/><path fill="rgb(31,119,180)" stroke="rgb(31,119,180)" paint-order="fill" d="M 196.1184539794922 203.437744140625 A 5 5 0 0 1 186.1184539794922 203.437744140625 A 5 5 0 0 1 196.1184539794922 203.437744140625" fill-opacity="1" clip-path="url(#pzQTAZhHrUxO)" stroke-opacity="1" stroke-linejoin="bevel" stroke-miterlimit="10"/><path fill="rgb(31,119,180)" stroke="rgb(31,119,180)" paint-order="fill" d="M 198.2511749267578 139.6286163330078 A 5 5 0 0 1 188.2511749267578 139.6286163330078 A 5 5 0 0 1 198.2511749267578 139.6286163330078" fill-opacity="1" clip-path="url(#pzQTAZhHrUxO)" stroke-opacity="1" stroke-linejoin="bevel" stroke-miterlimit="10"/><path fill="rgb(31,119,180)" stroke="rgb(31,119,180)" paint-order="fill" d="M 202.25912475585938 124.41143035888672 A 5 5 0 0 1 192.25912475585938 124.41143035888672 A 5 5 0 0 1 202.25912475585938 124.41143035888672" fill-opacity="1" clip-path="url(#pzQTAZhHrUxO)" stroke-opacity="1" stroke-linejoin="bevel" stroke-miterlimit="10"/><path fill="rgb(31,119,180)" stroke="rgb(31,119,180)" paint-order="fill" d="M 202.8400115966797 196.28860473632812 A 5 5 0 0 1 192.8400115966797 196.28860473632812 A 5 5 0 0 1 202.8400115966797 196.28860473632812" fill-opacity="1" clip-path="url(#pzQTAZhHrUxO)" stroke-opacity="1" stroke-linejoin="bevel" stroke-miterlimit="10"/><path fill="rgb(31,119,180)" stroke="rgb(31,119,180)" paint-order="fill" d="M 216.80145263671875 182.282958984375 A 5 5 0 0 1 206.80145263671875 182.282958984375 A 5 5 0 0 1 216.80145263671875 182.282958984375" fill-opacity="1" clip-path="url(#pzQTAZhHrUxO)" stroke-opacity="1" stroke-linejoin="bevel" stroke-miterlimit="10"/><path fill="rgb(31,119,180)" stroke="rgb(31,119,180)" paint-order="fill" d="M 219.59840393066406 179.88331604003906 A 5 5 0 0 1 209.59840393066406 179.88331604003906 A 5 5 0 0 1 219.59840393066406 179.88331604003906" fill-opacity="1" clip-path="url(#pzQTAZhHrUxO)" stroke-opacity="1" stroke-linejoin="bevel" stroke-miterlimit="10"/><path fill="rgb(31,119,180)" stroke="rgb(31,119,180)" paint-order="fill" d="M 219.63185119628906 180.10369873046875 A 5 5 0 0 1 209.63185119628906 180.10369873046875 A 5 5 0 0 1 219.63185119628906 180.10369873046875" fill-opacity="1" clip-path="url(#pzQTAZhHrUxO)" stroke-opacity="1" stroke-linejoin="bevel" stroke-miterlimit="10"/><path fill="rgb(31,119,180)" stroke="rgb(31,119,180)" paint-order="fill" d="M 227.7284393310547 171.68992614746094 A 5 5 0 0 1 217.7284393310547 171.68992614746094 A 5 5 0 0 1 227.7284393310547 171.68992614746094" fill-opacity="1" clip-path="url(#pzQTAZhHrUxO)" stroke-opacity="1" stroke-linejoin="bevel" stroke-miterlimit="10"/></svg>