<svg version="1.1" xmlns="http://www.w3.org/2000/svg" width="400" height="400"><defs><clipPath id="pJPZPZfXCHbQ"><path fill="none" stroke="none" d="M 5.5 5.5 L 395.5 5.5 L 395.5 395.5 L 5.5 395.5 L 5.5 5.5 Z"/></clipPath><clipPath id="hPgdcoKiSIXz"><path fill="none" stroke="none" d="M 5.5 5.5 L 395.5 5.5 L 395.5 395.5 L 5.5 395.5 L 5.5 5.5 Z"/></clipPath><clipPath id="GLpCVlmhpFHR"><path fill="none" stroke="none" d="M 5.5 5.5 L 395.5 5.5 L 395.5 395.5 L 5.5 395.5 L 5.5 5.5 Z"/></clipPath><clipPath id="QQxztJQmLTHO"><path fill="none" stroke="none" d="M 5.5 5.5 L 395.5 5.5 L 395.5 395.5 L 5.5 395.5 L 5.5 5.5 Z"/></clipPath><clipPath id="PfVylqFcGvGT"><path fill="none" stroke="none" d="M 5.5 5.5 L 395.5 5.5 L 395.5 395.5 L 5.5 395.5 L 5.5 5.5 Z"/></clipPath><clipPath id="IiBbEuvsNPGX"><path fill="none" stroke="none" d="M 5.5 5.5 L 395.5 5.5 L 395.5 395.5 L 5.5 395.5 L 5.5 5.5 Z"/></clipPath><clipPath id="pAPmzSeWrcyQ"><path fill="none" stroke="none" d="M 5.5 5.5 L 395.5 5.5 L 395.5 395.5 L 5.5 395.5 L 5.5 5.5 Z"/></clipPath><clipPath id="fHpFWAZxCCGI"><path fill="none" stroke="none" d="M 5.5 5.5 L 395.5 5.5 L 395.5 395.5 L 5.5 395.5 L 5.5 5.5 Z"/></clipPath><clipPath id="JuqXUhIzuBEe"><path fill="none" stroke="none" d="M 5.5 5.5 L 395.5 5.5 L 395.5 395.5 L 5.5 395.5 L 5.5 5.5 Z"/></clipPath></defs><path fill="rgb(255,255,255)" stroke="none" paint-order="stroke" d="M 0.5 0.5 L 400.5 0.5 L 400.5 400.5 L 0.5 400.5 L 0.5 0.5 Z" fill-opacity="1"/><rect fill="#FFFFFF" stroke="none" x="5" y="5" width="390" height="390" transform="matrix(1, 0, 0, 1, 0.5, 0.5)"/><path fill="rgb(255,255,255)" stroke="none" paint-order="stroke" d="M 5.5 5.5 L 395.5 5.5 L 395.5 395.5 L 5.5 395.5 L 5.5 5.5 Z" fill-opacity="1"/><path fill="none" stroke="rgb(229,229,229)" paint-order="fill" d="M 5.5 5.5 L 395.5 5.5 L 395.5 395.5 L 5.5 395.5 L 5.5 5.5 Z" stroke-opacity="1" stroke-linejoin="bevel" stroke-miterlimit="10"/><path fill="none" stroke="rgb(229,229,229)" paint-order="fill" d="M 11.5 395.5 L 11.5 5.5 M 74.5 395.5 L 74.5 5.5 M 137.5 395.5 L 137.5 5.5 M 200.5 395.5 L 200.5 5.5 M 263.5 395.5 L 263.5 5.5 M 326.5 395.5 L 326.5 5.5 M 389.5 395.5 L 389.5 5.5" stroke-opacity="1" stroke-linejoin="bevel" stroke-miterlimit="10" clip-path="url(#pJPZPZfXCHbQ)"/><path fill="none" stroke="rgb(229,229,229)" paint-order="fill" d="M 5.5 389.5 L 395.5 389.5 M 5.5 326.5 L 395.5 326.5 M 5.5 263.5 L 395.5 263.5 M 5.5 200.5 L 395.5 200.5 M 5.5 137.5 L 395.5 137.5 M 5.5 74.5 L 395.5 74.5 M 5.5 11.5 L 395.5 11.5" stroke-opacity="1" stroke-linejoin="bevel" stroke-miterlimit="10" clip-path="url(#hPgdcoKiSIXz)"/><path fill="rgb(128,128,128)" stroke="none" paint-order="stroke" d="M -31436.6875 31837.6875 L 31714.4765625 31837.6875 L 31714.4765625 -31313.4765625 Z" fill-opacity="0.8" clip-path="url(#GLpCVlmhpFHR)"/><path fill="rgb(31,119,180)" stroke="rgb(31,119,180)" paint-order="fill" d="M 40.58758544921875 292.6281433105469 A 5 5 0 0 1 30.58758544921875 292.6281433105469 A 5 5 0 0 1 40.58758544921875 292.6281433105469" fill-opacity="1" clip-path="url(#QQxztJQmLTHO)" stroke-opacity="1" stroke-linejoin="bevel" stroke-miterlimit="10"/><path fill="rgb(31,119,180)" stroke="rgb(31,119,180)" paint-order="fill" d="M 45.618690490722656 266.288330078125 A 5 5 0 0 1 35.618690490722656 266.288330078125 A 5 5 0 0 1 45.618690490722656 266.288330078125" fill-opacity="1" clip-path="url(#QQxztJQmLTHO)" stroke-opacity="1" stroke-linejoin="bevel" stroke-miterlimit="10"/><path fill="rgb(31,119,180)" stroke="rgb(31,119,180)" paint-order="fill" d="M 58.829097747802734 158.79798889160156 A 5 5 0 0 1 48.829097747802734 158.79798889160156 A 5 5 0 0 1 58.829097747802734 158.79798889160156" fill-opacity="1" clip-path="url(#QQxztJQmLTHO)" stroke-opacity="1" stroke-linejoin="bevel" stroke-miterlimit="10"/><path fill="rgb(31,119,180)" stroke="rgb(31,119,180)" paint-order="fill" d="M 137.75770568847656 240.59271240234375 A 5 5 0 0 1 127.75770568847656 240.59271240234375 A 5 5 0 0 1 137.75770568847656 240.59271240234375" fill-opacity="1" clip-path="url(#QQxztJQmLTHO)" stroke-opacity="1" stroke-linejoin="bevel" stroke-miterlimit="10"/><path fill="rgb(31,119,180)" stroke="rgb(31,119,180)" paint-order="fill" d="M 142.83755493164062 253.97303771972656 A 5 5 0 0 1 132.83755493164062 253.97303771972656 A 5 5 0 0 1 142.83755493164062 253.97303771972656" fill-opacity="1" clip-path="url(#QQxztJQmLTHO)" stroke-opacity="1" stroke-linejoin="bevel" stroke-miterlimit="10"/><path fill="rgb(31,119,180)" stroke="rgb(31,119,180)" paint-order="fill" d="M 144.7700653076172 229.76901245117188 A 5 5 0 0 1 134.7700653076172 229.76901245117188 A 5 5 0 0 1 144.7700653076172 229.76901245117188" fill-opacity="1" clip-path="url(#QQxztJQmLTHO)" stroke-opacity="1" stroke-linejoin="bevel" stroke-miterlimit="10"/><path fill="rgb(31,119,180)" stroke="rgb(31,119,180)" paint-order="fill" d="M 148.30462646484375 219.0814971923828 A 5 5 0 0 1 138.30462646484375 219.0814971923828 A 5 5 0 0 1 148.30462646484375 219.0814971923828" fill-opacity="1" clip-path="url(#QQxztJQmLTHO)" stroke-opacity="1" stroke-linejoin="bevel" stroke-miterlimit="10"/><path fill="rgb(31,119,180)" stroke="rgb(31,119,180)" paint-order="fill" d="M 162.34527587890625 183.78118896484375 A 5 5 0 0 1 152.34527587890625 183.78118896484375 A 5 5 0 0 1 162.34527587890625 183.78118896484375" fill-opacity="1" clip-path="url(#QQxztJQmLTHO)" stroke-opacity="1" stroke-linejoin="bevel" stroke-miterlimit="10"/><path fill="rgb(31,119,180)" stroke="rgb(31,119,180)" paint-order="fill" d="M 178.86537170410156 211.3189697265625 A 5 5 0 0 1 168.86537170410156 211.3189697265625 A 5 5 0 0 1 178.86537170410156 211.3189697265625" fill-opacity="1" clip-path="url(#QQxztJQmLTHO)" stroke-opacity="1" stroke-linejoin="bevel" stroke-miterlimit="10"/><path fill="rgb(31,119,180)" stroke="rgb(31,119,180)" paint-order="fill" d="M 179.89283752441406 163.03265380859375 A 5 5 0 0 1 169.89283752441406 163.03265380859375 A 5 5 0 0 1 179.89283752441406 163.03265380859375" fill-opacity="1" clip-path="url(#QQxztJQmLTHO)" stroke-opacity="1" stroke-linejoin="bevel" stroke-miterlimit="10"/><path fill="rgb(31,119,180)" stroke="rgb(31,119,180)" paint-order="fill" d="M 184.9854736328125 173.7402801513672 A 5 5 0 0 1 174.9854736328125 173.7402801513672 A 5 5 0 0 1 184.9854736328125 173.7402801513672" fill-opacity="1" clip-path="url(#QQxztJQmLTHO)" stroke-opacity="1" stroke-linejoin="bevel" stroke-miterlimit="10"/><path fill="rgb(255,0,0)" stroke="rgb(0,0,0)" paint-order="fill" d="M 162.75807189941406 112.43548583984375 L 225.66129684448242 112.43548583984375 L 225.66129684448242 169.04838943481445 L 162.75807189941406 169.04838943481445 L 162.75807189941406 112.43548583984375 Z" fill-opacity="0.3176470588235294" clip-path="url(#PfVylqFcGvGT)" stroke-opacity="1" stroke-linejoin="bevel" stroke-miterlimit="10"/><path fill="rgb(255,0,0)" stroke="rgb(0,0,0)" paint-order="fill" d="M 49.532257080078125 213.0806427001953 L 99.85483932495117 213.0806427001953 L 99.85483932495117 275.9838676452637 L 49.532257080078125 275.9838676452637 L 49.532257080078125 213.0806427001953 Z" fill-opacity="0.3176470588235294" clip-path="url(#IiBbEuvsNPGX)" stroke-opacity="1" stroke-linejoin="bevel" stroke-miterlimit="10"/><path fill="rgb(255,0,0)" stroke="rgb(0,0,0)" paint-order="fill" d="M 11.790322303771973 11.790322303771973 L 74.69354724884033 11.790322303771973 L 74.69354724884033 74.69354724884033 L 11.790322303771973 74.69354724884033 L 11.790322303771973 11.790322303771973 Z" fill-opacity="0.3176470588235294" clip-path="url(#pAPmzSeWrcyQ)" stroke-opacity="1" stroke-linejoin="bevel" stroke-miterlimit="10"/><path fill="rgb(0,255,0)" stroke="rgb(0,0,0)" paint-order="fill" d="M 150.1774139404297 175.33871459960938 L 175.3387050628662 175.33871459960938 L 175.3387050628662 219.3709716796875 L 150.1774139404297 219.3709716796875 L 150.1774139404297 175.33871459960938 Z" fill-opacity="0.3176470588235294" clip-path="url(#fHpFWAZxCCGI)" stroke-opacity="1" stroke-linejoin="bevel" stroke-miterlimit="10"/></svg>