<svg version="1.1" xmlns="http://www.w3.org/2000/svg" width="400" height="400"><defs><clipPath id="htNFtJZnChPO"><path fill="none" stroke="none" d="M 5.5 5.5 L 395.5 5.5 L 395.5 395.5 L 5.5 395.5 L 5.5 5.5 Z"/></clipPath><clipPath id="plfAbZNLnrJT"><path fill="none" stroke="none" d="M 5.5 5.5 L 395.5 5.5 L 395.5 395.5 L 5.5 395.5 L 5.5 5.5 Z"/></clipPath><clipPath id="kAZaauGgzRTB"><path fill="none" stroke="none" d="M 5.5 5.5 L 395.5 5.5 L 395.5 395.5 L 5.5 395.5 L 5.5 5.5 Z"/></clipPath><clipPath id="TyBZZuPZkTfW"><path fill="none" stroke="none" d="M 5.5 5.5 L 395.5 5.5 L 395.5 395.5 L 5.5 395.5 L 5.5 5.5 Z"/></clipPath><clipPath id="hdnsBdIvnXOX"><path fill="none" stroke="none" d="M 5.5 5.5 L 395.5 5.5 L 395.5 395.5 L 5.5 395.5 L 5.5 5.5 Z"/></clipPath><clipPath id="QNJsOUmXFfal"><path fill="none" stroke="none" d="M 5.5 5.5 L 395.5 5.5 L 395.5 395.5 L 5.5 395.5 L 5.5 5.5 Z"/></clipPath><clipPath id="RKBcgmFQWTmA"><path fill="none" stroke="none" d="M 5.5 5.5 L 395.5 5.5 L 395.5 395.5 L 5.5 395.5 L 5.5 5.5 Z"/></clipPath><clipPath id="toxEWUoLTTtB"><path fill="none" stroke="none" d="M 5.5 5.5 L 395.5 5.5 L 395.5 395.5 L 5.5 395.5 L 5.5 5.5 Z"/></clipPath><clipPath id="MBNsAQFAAOcn"><path fill="none" stroke="none" d="M 5.5 5.5 L 395.5 5.5 L 395.5 395.5 L 5.5 395.5 L 5.5 5.5 Z"/></clipPath></defs><path fill="rgb(255,255,255)" stroke="none" paint-order="stroke" d="M 0.5 0.5 L 400.5 0.5 L 400.5 400.5 L 0.5 400.5 L 0.5 0.5 Z" fill-opacity="1"/><rect fill="#FFFFFF" stroke="none" x="5" y="5" width="390" height="390" transform="matrix(1, 0, 0, 1, 0.5, 0.5)"/><path fill="rgb(255,255,255)" stroke="none" paint-order="stroke" d="M 5.5 5.5 L 395.5 5.5 L 395.5 395.5 L 5.5 395.5 L 5.5 5.5 Z" fill-opacity="1"/><path fill="none" stroke="rgb(229,229,229)" paint-order="fill" d="M 5.5 5.5 L 395.5 5.5 L 395.5 395.5 L 5.5 395.5 L 5.5 5.5 Z" stroke-opacity="1" stroke-linejoin="bevel" stroke-miterlimit="10"/><path fill="none" stroke="rgb(229,229,229)" paint-order="fill" d="M 11.5 395.5 L 11.5 5.5 M 74.5 395.5 L 74.5 5.5 M 137.5 395.5 L 137.5 5.5 M 200.5 395.5 L 200.5 5.5 M 263.5 395.5 L 263.5 5.5 M 326.5 395.5 L 326.5 5.5 M 389.5 395.5 L 389.5 5.5" stroke-opacity="1" stroke-linejoin="bevel" stroke-miterlimit="10" clip-path="url(#htNFtJZnChPO)"/><path fill="none" stroke="rgb(229,229,229)" paint-order="fill" d="M 5.5 389.5 L 395.5 389.5 M 5.5 326.5 L 395.5 326.5 M 5.5 263.5 L 395.5 263.5 M 5.5 200.5 L 395.5 200.5 M 5.5 137.5 L 395.5 137.5 M 5.5 74.5 L 395.5 74.5 M 5.5 11.5 L 395.5 11.5" stroke-opacity="1" stroke-linejoin="bevel" stroke-miterlimit="10" clip-path="url(#plfAbZNLnrJT)"/><path fill="rgb(128,128,128)" stroke="none" paint-order="stroke" d="M -31419.021484375 31820.021484375 L 31816.162109375 31820.021484375 L 31816.162109375 -31415.162109375 Z" fill-opacity="0.8" clip-path="url(#kAZaauGgzRTB)"/><path fill="rgb(31,119,180)" stroke="rgb(31,119,180)" paint-order="fill" d="M 65.25532913208008 265.6722412109375 A 5 5 0 0 1 55.25532913208008 265.6722412109375 A 5 5 0 0 1 65.25532913208008 265.6722412109375" fill-opacity="1" clip-path="url(#TyBZZuPZkTfW)" stroke-opacity="1" stroke-linejoin="bevel" stroke-miterlimit="10"/><path fill="rgb(31,119,180)" stroke="rgb(31,119,180)" paint-order="fill" d="M 68.4729232788086 243.87281799316406 A 5 5 0 0 1 58.472923278808594 243.87281799316406 A 5 5 0 0 1 68.4729232788086 243.87281799316406" fill-opacity="1" clip-path="url(#TyBZZuPZkTfW)" stroke-opacity="1" stroke-linejoin="bevel" stroke-miterlimit="10"/><path fill="rgb(31,119,180)" stroke="rgb(31,119,180)" paint-order="fill" d="M 73.18128967285156 331.7932434082031 A 5 5 0 0 1 63.18128967285156 331.7932434082031 A 5 5 0 0 1 73.18128967285156 331.7932434082031" fill-opacity="1" clip-path="url(#TyBZZuPZkTfW)" stroke-opacity="1" stroke-linejoin="bevel" stroke-miterlimit="10"/><path fill="rgb(31,119,180)" stroke="rgb(31,119,180)" paint-order="fill" d="M 73.3181381225586 64.11407852172852 A 5 5 0 0 1 63.318138122558594 64.11407852172852 A 5 5 0 0 1 73.3181381225586 64.11407852172852" fill-opacity="1" clip-path="url(#TyBZZuPZkTfW)" stroke-opacity="1" stroke-linejoin="bevel" stroke-miterlimit="10"/><path fill="rgb(31,119,180)" stroke="rgb(31,119,180)" paint-order="fill" d="M 89.78003692626953 315.8878173828125 A 5 5 0 0 1 79.78003692626953 315.8878173828125 A 5 5 0 0 1 89.78003692626953 315.8878173828125" fill-opacity="1" clip-path="url(#TyBZZuPZkTfW)" stroke-opacity="1" stroke-linejoin="bevel" stroke-miterlimit="10"/><path fill="rgb(31,119,180)" stroke="rgb(31,119,180)" paint-order="fill" d="M 111.98191833496094 292.569091796875 A 5 5 0 0 1 101.98191833496094 292.569091796875 A 5 5 0 0 1 111.98191833496094 292.569091796875" fill-opacity="1" clip-path="url(#TyBZZuPZkTfW)" stroke-opacity="1" stroke-linejoin="bevel" stroke-miterlimit="10"/><path fill="rgb(31,119,180)" stroke="rgb(31,119,180)" paint-order="fill" d="M 152.09774780273438 249.62139892578125 A 5 5 0 0 1 142.09774780273438 249.62139892578125 A 5 5 0 0 1 152.09774780273438 249.62139892578125" fill-opacity="1" clip-path="url(#TyBZZuPZkTfW)" stroke-opacity="1" stroke-linejoin="bevel" stroke-miterlimit="10"/><path fill="rgb(31,119,180)" stroke="rgb(31,119,180)" paint-order="fill" d="M 162.81515502929688 214.53359985351562 A 5 5 0 0 1 152.81515502929688 214.53359985351562 A 5 5 0 0 1 162.81515502929688 214.53359985351562" fill-opacity="1" clip-path="url(#TyBZZuPZkTfW)" stroke-opacity="1" stroke-linejoin="bevel" stroke-miterlimit="10"/><path fill="rgb(31,119,180)" stroke="rgb(31,119,180)" paint-order="fill" d="M 163.85577392578125 201.91775512695312 A 5 5 0 0 1 153.85577392578125 201.91775512695312 A 5 5 0 0 1 163.85577392578125 201.91775512695312" fill-opacity="1" clip-path="url(#TyBZZuPZkTfW)" stroke-opacity="1" stroke-linejoin="bevel" stroke-miterlimit="10"/><path fill="rgb(31,119,180)" stroke="rgb(31,119,180)" paint-order="fill" d="M 164.0016632080078 230.99801635742188 A 5 5 0 0 1 154.0016632080078 230.99801635742188 A 5 5 0 0 1 164.0016632080078 230.99801635742188" fill-opacity="1" clip-path="url(#TyBZZuPZkTfW)" stroke-opacity="1" stroke-linejoin="bevel" stroke-miterlimit="10"/><path fill="rgb(31,119,180)" stroke="rgb(31,119,180)" paint-order="fill" d="M 182.74176025390625 166.12371826171875 A 5 5 0 0 1 172.74176025390625 166.12371826171875 A 5 5 0 0 1 182.74176025390625 166.12371826171875" fill-opacity="1" clip-path="url(#TyBZZuPZkTfW)" stroke-opacity="1" stroke-linejoin="bevel" stroke-miterlimit="10"/><path fill="rgb(31,119,180)" stroke="rgb(31,119,180)" paint-order="fill" d="M 188.818359375 216.7298126220703 A 5 5 0 0 1 178.818359375 216.7298126220703 A 5 5 0 0 1 188.818359375 216.7298126220703" fill-opacity="1" clip-path="url(#TyBZZuPZkTfW)" stroke-opacity="1" stroke-linejoin="bevel" stroke-miterlimit="10"/><path fill="rgb(31,119,180)" stroke="rgb(31,119,180)" paint-order="fill" d="M 193.5209503173828 141.6707305908203 A 5 5 0 0 1 183.5209503173828 141.6707305908203 A 5 5 0 0 1 193.5209503173828 141.6707305908203" fill-opacity="1" clip-path="url(#TyBZZuPZkTfW)" stroke-opacity="1" stroke-linejoin="bevel" stroke-miterlimit="10"/><path fill="rgb(31,119,180)" stroke="rgb(31,119,180)" paint-order="fill" d="M 199.36480712890625 141.56060791015625 A 5 5 0 0 1 189.36480712890625 141.56060791015625 A 5 5 0 0 1 199.36480712890625 141.56060791015625" fill-opacity="1" clip-path="url(#TyBZZuPZkTfW)" stroke-opacity="1" stroke-linejoin="bevel" stroke-miterlimit="10"/><path fill="rgb(31,119,180)" stroke="rgb(31,119,180)" paint-order="fill" d="M 200.65037536621094 138.0476837158203 A 5 5 0 0 1 190.65037536621094 138.0476837158203 A 5 5 0 0 1 200.65037536621094 138.0476837158203" fill-opacity="1" clip-path="url(#TyBZZuPZkTfW)" stroke-opacity="1" stroke-linejoin="bevel" stroke-miterlimit="10"/><path fill="rgb(31,119,180)" stroke="rgb(31,119,180)" paint-order="fill" d="M 207.0605926513672 192.98574829101562 A 5 5 0 0 1 197.0605926513672 192.98574829101562 A 5 5 0 0 1 207.0605926513672 192.98574829101562" fill-opacity="1" clip-path="url(#TyBZZuPZkTfW)" stroke-opacity="1" stroke-linejoin="bevel" stroke-miterlimit="10"/><path fill="rgb(0,255,0)" stroke="rgb(0,0,0)" paint-order="fill" d="M 162.75807189941406 112.43548583984375 L 225.66129684448242 112.43548583984375 L 225.66129684448242 169.04838943481445 L 162.75807189941406 169.04838943481445 L 162.75807189941406 112.43548583984375 Z" fill-opacity="0.3176470588235294" clip-path="url(#hdnsBdIvnXOX)" stroke-opacity="1" stroke-linejoin="bevel" stroke-miterlimit="10"/><path fill="rgb(0,255,0)" stroke="rgb(0,0,0)" paint-order="fill" d="M 49.532257080078125 213.0806427001953 L 99.85483932495117 213.0806427001953 L 99.85483932495117 275.9838676452637 L 49.532257080078125 275.9838676452637 L 49.532257080078125 213.0806427001953 Z" fill-opacity="0.3176470588235294" clip-path="url(#QNJsOUmXFfal)" stroke-opacity="1" stroke-linejoin="bevel" stroke-miterlimit="10"/><path fill="rgb(0,255,0)" stroke="rgb(0,0,0)" paint-order="fill" d="M 11.790322303771973 11.790322303771973 L 74.69354724884033 11.790322303771973 L 74.69354724884033 74.69354724884033 L 11.790322303771973 74.69354724884033 L 11.790322303771973 11.790322303771973 Z" fill-opacity="0.3176470588235294" clip-path="url(#RKBcgmFQWTmA)" stroke-opacity="1" stroke-linejoin="bevel" stroke-miterlimit="10"/><path fill="rgb(0,255,0)" stroke="rgb(0,0,0)" paint-order="fill" d="M 150.1774139404297 175.33871459960938 L 175.3387050628662 175.33871459960938 L 175.3387050628662 219.3709716796875 L 150.1774139404297 219.3709716796875 L 150.1774139404297 175.33871459960938 Z" fill-opacity="0.3176470588235294" clip-path="url(#toxEWUoLTTtB)" stroke-opacity="1" stroke-linejoin="bevel" stroke-miterlimit="10"/></svg>