<svg version="1.1" xmlns="http://www.w3.org/2000/svg" width="3920" height="196"><defs><clipPath id="xVTThcMCUgyg"><path fill="none" stroke="none" d="M 5.5 5.5 L 3915.5 5.5 L 3915.5 133.5 L 5.5 133.5 L 5.5 5.5 Z"/></clipPath><clipPath id="ZHAoinvhzDdc"><path fill="none" stroke="none" d="M 5.5 5.5 L 3915.5 5.5 L 3915.5 133.5 L 5.5 133.5 L 5.5 5.5 Z"/></clipPath><clipPath id="IqyyOutOMrcR"><path fill="none" stroke="none" d="M 5.5 5.5 L 3915.5 5.5 L 3915.5 133.5 L 5.5 133.5 L 5.5 5.5 Z"/></clipPath></defs><path fill="rgb(255,255,255)" stroke="none" paint-order="stroke" d="M 0.5 0.5 L 3920.5 0.5 L 3920.5 196.5 L 0.5 196.5 L 0.5 0.5 Z" fill-opacity="1"/><rect fill="#FFFFFF" stroke="none" x="5" y="5" width="3910" height="128" transform="matrix(1, 0, 0, 1, 0.5, 0.5)"/><path fill="rgb(255,255,255)" stroke="none" paint-order="stroke" d="M 5.5 5.5 L 3915.5 5.5 L 3915.5 133.5 L 5.5 133.5 L 5.5 5.5 Z" fill-opacity="1"/><path fill="none" stroke="rgb(229,229,229)" paint-order="fill" d="M 5.5 5.5 L 3915.5 5.5 L 3915.5 133.5 L 5.5 133.5 L 5.5 5.5 Z" stroke-opacity="1" stroke-linejoin="bevel" stroke-miterlimit="10"/><path fill="none" stroke="rgb(229,229,229)" paint-order="fill" d="M 793.5 133.5 L 793.5 5.5 M 1807.5 133.5 L 1807.5 5.5 M 2821.5 133.5 L 2821.5 5.5 M 3836.5 133.5 L 3836.5 5.5" stroke-opacity="1" stroke-linejoin="bevel" stroke-miterlimit="10" clip-path="url(#xVTThcMCUgyg)"/><path fill="none" stroke="rgb(229,229,229)" paint-order="fill" d="M 5.5 101.5 L 3915.5 101.5 M 5.5 69.5 L 3915.5 69.5 M 5.5 37.5 L 3915.5 37.5" stroke-opacity="1" stroke-linejoin="bevel" stroke-miterlimit="10" clip-path="url(#ZHAoinvhzDdc)"/><path fill="none" stroke="rgb(255,0,0)" paint-order="fill" d="M 172.0903478593978 80.63693180368813 L 194.36421146677407 58.36306819631187 M 172.0903478593978 58.36306819631188 L 194.36421146677407 80.63693180368813" stroke-opacity="0.6313725490196078" stroke-linejoin="bevel" stroke-miterlimit="10" stroke-width="4" clip-path="url(#IqyyOutOMrcR)"/><path fill="none" stroke="rgb(255,0,0)" paint-order="fill" d="M 189.36372432424156 80.63693180368813 L 211.63758793161782 58.36306819631187 M 189.36372432424156 58.36306819631188 L 211.63758793161782 80.63693180368813" stroke-opacity="0.6313725490196078" stroke-linejoin="bevel" stroke-miterlimit="10" stroke-width="4" clip-path="url(#IqyyOutOMrcR)"/><path fill="none" stroke="rgb(255,0,0)" paint-order="fill" d="M 222.00195369435875 80.63693180368813 L 244.275817301735 58.36306819631187 M 222.00195369435875 58.36306819631188 L 244.275817301735 80.63693180368813" stroke-opacity="0.6313725490196078" stroke-linejoin="bevel" stroke-miterlimit="10" stroke-width="4" clip-path="url(#IqyyOutOMrcR)"/><path fill="none" stroke="rgb(255,0,0)" paint-order="fill" d="M 280.8111272783431 80.63693180368813 L 303.0849908857194 58.36306819631187 M 280.8111272783431 58.36306819631188 L 303.0849908857194 80.63693180368813" stroke-opacity="0.6313725490196078" stroke-linejoin="bevel" stroke-miterlimit="10" stroke-width="4" clip-path="url(#IqyyOutOMrcR)"/><path fill="none" stroke="rgb(255,0,0)" paint-order="fill" d="M 379.0868230791244 80.63693180368813 L 401.3606866865006 58.36306819631187 M 379.0868230791244 58.36306819631188 L 401.3606866865006 80.63693180368813" stroke-opacity="0.6313725490196078" stroke-linejoin="bevel" stroke-miterlimit="10" stroke-width="4" clip-path="url(#IqyyOutOMrcR)"/><path fill="none" stroke="rgb(255,0,0)" paint-order="fill" d="M 527.2741399736557 80.63693180368813 L 549.5480035810318 58.36306819631187 M 527.2741399736557 58.36306819631188 L 549.5480035810318 80.63693180368813" stroke-opacity="0.6313725490196078" stroke-linejoin="bevel" stroke-miterlimit="10" stroke-width="4" clip-path="url(#IqyyOutOMrcR)"/><path fill="none" stroke="rgb(255,0,0)" paint-order="fill" d="M 726.3350530595932 80.63693180368813 L 748.6089166669693 58.36306819631187 M 726.3350530595932 58.36306819631188 L 748.6089166669693 80.63693180368813" stroke-opacity="0.6313725490196078" stroke-linejoin="bevel" stroke-miterlimit="10" stroke-width="4" clip-path="url(#IqyyOutOMrcR)"/><path fill="none" stroke="rgb(255,0,0)" paint-order="fill" d="M 967.0408636064682 80.63693180368813 L 989.3147272138443 58.36306819631187 M 967.0408636064682 58.36306819631188 L 989.3147272138443 80.63693180368813" stroke-opacity="0.6313725490196078" stroke-linejoin="bevel" stroke-miterlimit="10" stroke-width="4" clip-path="url(#IqyyOutOMrcR)"/><path fill="none" stroke="rgb(255,0,0)" paint-order="fill" d="M 1236.0942693681868 80.63693180368813 L 1258.3681329755632 58.36306819631187 M 1236.0942693681868 58.36306819631188 L 1258.3681329755632 80.63693180368813" stroke-opacity="0.6313725490196078" stroke-linejoin="bevel" stroke-miterlimit="10" stroke-width="4" clip-path="url(#IqyyOutOMrcR)"/><path fill="none" stroke="rgb(255,0,0)" paint-order="fill" d="M 1522.0751043291243 80.63693180368813 L 1544.3489679365007 58.36306819631187 M 1522.0751043291243 58.36306819631188 L 1544.3489679365007 80.63693180368813" stroke-opacity="0.6313725490196078" stroke-linejoin="bevel" stroke-miterlimit="10" stroke-width="4" clip-path="url(#IqyyOutOMrcR)"/><path fill="none" stroke="rgb(255,0,0)" paint-order="fill" d="M 1817.3751531572493 80.63693180368813 L 1839.6490167646257 58.36306819631187 M 1817.3751531572493 58.36306819631188 L 1839.6490167646257 80.63693180368813" stroke-opacity="0.6313725490196078" stroke-linejoin="bevel" stroke-miterlimit="10" stroke-width="4" clip-path="url(#IqyyOutOMrcR)"/><path fill="rgb(0,255,0)" stroke="rgb(0,255,0)" paint-order="fill" d="M 2144.46240234375 60.406733260263394 L 2112.96240234375 60.406733260263394 L 2128.71240234375 87.68653347947321 Z" fill-opacity="0.6313725490196078" clip-path="url(#IqyyOutOMrcR)" stroke-opacity="0.6313725490196078" stroke-linejoin="bevel" stroke-miterlimit="10" stroke-width="4"/><path fill="rgb(0,255,0)" stroke="rgb(0,255,0)" paint-order="fill" d="M 2019.4600830078125 60.406733260263394 L 1987.9600830078125 60.406733260263394 L 2003.7100830078125 87.68653347947321 Z" fill-opacity="0.6313725490196078" clip-path="url(#IqyyOutOMrcR)" stroke-opacity="0.6313725490196078" stroke-linejoin="bevel" stroke-miterlimit="10" stroke-width="4"/><path fill="rgb(0,255,0)" stroke="rgb(0,255,0)" paint-order="fill" d="M 2019.1776123046875 60.406733260263394 L 1987.6776123046875 60.406733260263394 L 2003.4276123046875 87.68653347947321 Z" fill-opacity="0.6313725490196078" clip-path="url(#IqyyOutOMrcR)" stroke-opacity="0.6313725490196078" stroke-linejoin="bevel" stroke-miterlimit="10" stroke-width="4"/><path fill="rgb(0,255,0)" stroke="rgb(0,255,0)" paint-order="fill" d="M 1940.5159912109375 60.406733260263394 L 1909.0159912109375 60.406733260263394 L 1924.7659912109375 87.68653347947321 Z" fill-opacity="0.6313725490196078" clip-path="url(#IqyyOutOMrcR)" stroke-opacity="0.6313725490196078" stroke-linejoin="bevel" stroke-miterlimit="10" stroke-width="4"/><path fill="rgb(0,255,0)" stroke="rgb(0,255,0)" paint-order="fill" d="M 1940.1781005859375 60.406733260263394 L 1908.6781005859375 60.406733260263394 L 1924.4281005859375 87.68653347947321 Z" fill-opacity="0.6313725490196078" clip-path="url(#IqyyOutOMrcR)" stroke-opacity="0.6313725490196078" stroke-linejoin="bevel" stroke-miterlimit="10" stroke-width="4"/><path fill="rgb(0,255,0)" stroke="rgb(0,255,0)" paint-order="fill" d="M 1895.013427734375 60.406733260263394 L 1863.513427734375 60.406733260263394 L 1879.263427734375 87.68653347947321 Z" fill-opacity="0.6313725490196078" clip-path="url(#IqyyOutOMrcR)" stroke-opacity="0.6313725490196078" stroke-linejoin="bevel" stroke-miterlimit="10" stroke-width="4"/><path fill="rgb(0,255,0)" stroke="rgb(0,255,0)" paint-order="fill" d="M 1894.6387939453125 60.406733260263394 L 1863.1387939453125 60.406733260263394 L 1878.8887939453125 87.68653347947321 Z" fill-opacity="0.6313725490196078" clip-path="url(#IqyyOutOMrcR)" stroke-opacity="0.6313725490196078" stroke-linejoin="bevel" stroke-miterlimit="10" stroke-width="4"/><path fill="none" stroke="rgb(255,0,0)" paint-order="fill" d="M 1843.4814763994368 80.63693180368813 L 1865.7553400068132 58.36306819631187 M 1843.4814763994368 58.36306819631188 L 1865.7553400068132 80.63693180368813" stroke-opacity="0.6313725490196078" stroke-linejoin="bevel" stroke-miterlimit="10" stroke-width="4" clip-path="url(#IqyyOutOMrcR)"/><path fill="none" stroke="rgb(255,0,0)" paint-order="fill" d="M 1855.9763494463118 80.63693180368813 L 1878.2502130536882 58.36306819631187 M 1855.9763494463118 58.36306819631188 L 1878.2502130536882 80.63693180368813" stroke-opacity="0.6313725490196078" stroke-linejoin="bevel" stroke-miterlimit="10" stroke-width="4" clip-path="url(#IqyyOutOMrcR)"/><path fill="rgb(0,255,0)" stroke="rgb(0,255,0)" paint-order="fill" d="M 1888.980224609375 60.406733260263394 L 1857.480224609375 60.406733260263394 L 1873.230224609375 87.68653347947321 Z" fill-opacity="0.6313725490196078" clip-path="url(#IqyyOutOMrcR)" stroke-opacity="0.6313725490196078" stroke-linejoin="bevel" stroke-miterlimit="10" stroke-width="4"/><path fill="rgb(0,255,0)" stroke="rgb(0,255,0)" paint-order="fill" d="M 1888.6004638671875 60.406733260263394 L 1857.1004638671875 60.406733260263394 L 1872.8504638671875 87.68653347947321 Z" fill-opacity="0.6313725490196078" clip-path="url(#IqyyOutOMrcR)" stroke-opacity="0.6313725490196078" stroke-linejoin="bevel" stroke-miterlimit="10" stroke-width="4"/><path fill="rgb(0,255,0)" stroke="rgb(0,255,0)" paint-order="fill" d="M 1885.932373046875 60.406733260263394 L 1854.432373046875 60.406733260263394 L 1870.182373046875 87.68653347947321 Z" fill-opacity="0.6313725490196078" clip-path="url(#IqyyOutOMrcR)" stroke-opacity="0.6313725490196078" stroke-linejoin="bevel" stroke-miterlimit="10" stroke-width="4"/><path fill="rgb(0,255,0)" stroke="rgb(0,255,0)" paint-order="fill" d="M 1885.5499267578125 60.406733260263394 L 1854.0499267578125 60.406733260263394 L 1869.7999267578125 87.68653347947321 Z" fill-opacity="0.6313725490196078" clip-path="url(#IqyyOutOMrcR)" stroke-opacity="0.6313725490196078" stroke-linejoin="bevel" stroke-miterlimit="10" stroke-width="4"/><path fill="none" stroke="rgb(255,0,0)" paint-order="fill" d="M 1857.5135808916243 80.63693180368813 L 1879.7874444990007 58.36306819631187 M 1857.5135808916243 58.36306819631188 L 1879.7874444990007 80.63693180368813" stroke-opacity="0.6313725490196078" stroke-linejoin="bevel" stroke-miterlimit="10" stroke-width="4" clip-path="url(#IqyyOutOMrcR)"/><path fill="none" stroke="rgb(255,0,0)" paint-order="fill" d="M 1858.2801824541243 80.63693180368813 L 1880.5540460615007 58.36306819631187 M 1858.2801824541243 58.36306819631188 L 1880.5540460615007 80.63693180368813" stroke-opacity="0.6313725490196078" stroke-linejoin="bevel" stroke-miterlimit="10" stroke-width="4" clip-path="url(#IqyyOutOMrcR)"/><path fill="none" stroke="rgb(255,0,0)" paint-order="fill" d="M 1857.8970037431868 80.63693180368813 L 1880.1708673505632 58.36306819631187 M 1857.8970037431868 58.36306819631188 L 1880.1708673505632 80.63693180368813" stroke-opacity="0.6313725490196078" stroke-linejoin="bevel" stroke-miterlimit="10" stroke-width="4" clip-path="url(#IqyyOutOMrcR)"/><path fill="rgb(128,128,128)" stroke="rgb(128,128,128)" paint-order="fill" d="M 3722.022705078125 53.75 L 3753.522705078125 53.75 L 3753.522705078125 85.25 L 3722.022705078125 85.25 L 3722.022705078125 53.75 Z" fill-opacity="1" clip-path="url(#IqyyOutOMrcR)" stroke-opacity="1" stroke-linejoin="bevel" stroke-miterlimit="10" stroke-width="4"/><path fill="none" stroke="rgb(0,0,0)" paint-order="fill" d="M 5.5 133.5 L 3915.5 133.5" stroke-opacity="1" stroke-linejoin="bevel" stroke-miterlimit="10" stroke-width="5"/><path fill="none" stroke="rgb(0,0,0)" paint-order="fill" d="M 793.5 139.5 L 793.5 131.5 M 1807.5 139.5 L 1807.5 131.5 M 2821.5 139.5 L 2821.5 131.5 M 3836.5 139.5 L 3836.5 131.5" stroke-opacity="1" stroke-linejoin="bevel" stroke-miterlimit="10" stroke-width="6.5"/><path fill="none" stroke="rgb(0,0,0)" paint-order="fill" d="M 84.5 141.5 L 84.5 133.5 M 263.5 141.5 L 263.5 133.5 M 390.5 141.5 L 390.5 133.5 M 488.5 141.5 L 488.5 133.5 M 568.5 141.5 L 568.5 133.5 M 636.5 141.5 L 636.5 133.5 M 695.5 141.5 L 695.5 133.5 M 747.5 141.5 L 747.5 133.5 M 793.5 141.5 L 793.5 133.5 M 793.5 141.5 L 793.5 133.5 M 1099.5 141.5 L 1099.5 133.5 M 1277.5 141.5 L 1277.5 133.5 M 1404.5 141.5 L 1404.5 133.5 M 1502.5 141.5 L 1502.5 133.5 M 1582.5 141.5 L 1582.5 133.5 M 1650.5 141.5 L 1650.5 133.5 M 1709.5 141.5 L 1709.5 133.5 M 1761.5 141.5 L 1761.5 133.5 M 1807.5 141.5 L 1807.5 133.5 M 1807.5 141.5 L 1807.5 133.5 M 2113.5 141.5 L 2113.5 133.5 M 2291.5 141.5 L 2291.5 133.5 M 2418.5 141.5 L 2418.5 133.5 M 2516.5 141.5 L 2516.5 133.5 M 2596.5 141.5 L 2596.5 133.5 M 2664.5 141.5 L 2664.5 133.5 M 2723.5 141.5 L 2723.5 133.5 M 2775.5 141.5 L 2775.5 133.5 M 2821.5 141.5 L 2821.5 133.5 M 2821.5 141.5 L 2821.5 133.5 M 3127.5 141.5 L 3127.5 133.5 M 3305.5 141.5 L 3305.5 133.5 M 3432.5 141.5 L 3432.5 133.5 M 3530.5 141.5 L 3530.5 133.5 M 3611.5 141.5 L 3611.5 133.5 M 3678.5 141.5 L 3678.5 133.5 M 3737.5 141.5 L 3737.5 133.5 M 3789.5 141.5 L 3789.5 133.5 M 3836.5 141.5 L 3836.5 133.5 M 3836.5 141.5 L 3836.5 133.5" stroke-opacity="1" stroke-linejoin="bevel" stroke-miterlimit="10" stroke-width="4.5"/><text fill="rgb(68,68,68)" stroke="none" font-family="helvetica" font-size="48px" font-style="normal" font-weight="normal" text-decoration="normal" x="0" y="49.202341715494796" text-anchor="start" dominant-baseline="alphabetic" transform="matrix(1, 0, 0, 1, 757.7300004959106, 144.5)" fill-opacity="1">10</text><text fill="none" stroke="rgb(0,0,0)" font-family="helvetica" font-size="48px" font-style="normal" font-weight="normal" text-decoration="normal" x="0" y="49.202341715494796" text-anchor="start" dominant-baseline="alphabetic" transform="matrix(1, 0, 0, 1, 757.7300004959106, 144.5)" stroke-opacity="0" stroke-linejoin="bevel" stroke-miterlimit="10" stroke-width="4.5">10</text><text fill="rgb(68,68,68)" stroke="none" font-family="helvetica" font-size="33.599999999999994px" font-style="normal" font-weight="normal" text-decoration="normal" x="53.400001525878906" y="25.1015625" text-anchor="start" dominant-baseline="alphabetic" transform="matrix(1, 0, 0, 1, 757.7300004959106, 144.5)" fill-opacity="1">2</text><text fill="none" stroke="rgb(0,0,0)" font-family="helvetica" font-size="33.599999999999994px" font-style="normal" font-weight="normal" text-decoration="normal" x="53.400001525878906" y="25.1015625" text-anchor="start" dominant-baseline="alphabetic" transform="matrix(1, 0, 0, 1, 757.7300004959106, 144.5)" stroke-opacity="0" stroke-linejoin="bevel" stroke-miterlimit="10" stroke-width="4.5">2</text><text fill="rgb(68,68,68)" stroke="none" font-family="helvetica" font-size="48px" font-style="normal" font-weight="normal" text-decoration="normal" x="0" y="49.202341715494796" text-anchor="start" dominant-baseline="alphabetic" transform="matrix(1, 0, 0, 1, 1771.8222246170044, 144.5)" fill-opacity="1">10</text><text fill="none" stroke="rgb(0,0,0)" font-family="helvetica" font-size="48px" font-style="normal" font-weight="normal" text-decoration="normal" x="0" y="49.202341715494796" text-anchor="start" dominant-baseline="alphabetic" transform="matrix(1, 0, 0, 1, 1771.8222246170044, 144.5)" stroke-opacity="0" stroke-linejoin="bevel" stroke-miterlimit="10" stroke-width="4.5">10</text><text fill="rgb(68,68,68)" stroke="none" font-family="helvetica" font-size="33.599999999999994px" font-style="normal" font-weight="normal" text-decoration="normal" x="53.400001525878906" y="25.1015625" text-anchor="start" dominant-baseline="alphabetic" transform="matrix(1, 0, 0, 1, 1771.8222246170044, 144.5)" fill-opacity="1">3</text><text fill="none" stroke="rgb(0,0,0)" font-family="helvetica" font-size="33.599999999999994px" font-style="normal" font-weight="normal" text-decoration="normal" x="53.400001525878906" y="25.1015625" text-anchor="start" dominant-baseline="alphabetic" transform="matrix(1, 0, 0, 1, 1771.8222246170044, 144.5)" stroke-opacity="0" stroke-linejoin="bevel" stroke-miterlimit="10" stroke-width="4.5">3</text><text fill="rgb(68,68,68)" stroke="none" font-family="helvetica" font-size="48px" font-style="normal" font-weight="normal" text-decoration="normal" x="0" y="49.202341715494796" text-anchor="start" dominant-baseline="alphabetic" transform="matrix(1, 0, 0, 1, 2785.914387702942, 144.5)" fill-opacity="1">10</text><text fill="none" stroke="rgb(0,0,0)" font-family="helvetica" font-size="48px" font-style="normal" font-weight="normal" text-decoration="normal" x="0" y="49.202341715494796" text-anchor="start" dominant-baseline="alphabetic" transform="matrix(1, 0, 0, 1, 2785.914387702942, 144.5)" stroke-opacity="0" stroke-linejoin="bevel" stroke-miterlimit="10" stroke-width="4.5">10</text><text fill="rgb(68,68,68)" stroke="none" font-family="helvetica" font-size="33.599999999999994px" font-style="normal" font-weight="normal" text-decoration="normal" x="53.400001525878906" y="25.1015625" text-anchor="start" dominant-baseline="alphabetic" transform="matrix(1, 0, 0, 1, 2785.914387702942, 144.5)" fill-opacity="1">4</text><text fill="none" stroke="rgb(0,0,0)" font-family="helvetica" font-size="33.599999999999994px" font-style="normal" font-weight="normal" text-decoration="normal" x="53.400001525878906" y="25.1015625" text-anchor="start" dominant-baseline="alphabetic" transform="matrix(1, 0, 0, 1, 2785.914387702942, 144.5)" stroke-opacity="0" stroke-linejoin="bevel" stroke-miterlimit="10" stroke-width="4.5">4</text><text fill="rgb(68,68,68)" stroke="none" font-family="helvetica" font-size="48px" font-style="normal" font-weight="normal" text-decoration="normal" x="0" y="49.202341715494796" text-anchor="start" dominant-baseline="alphabetic" transform="matrix(1, 0, 0, 1, 3800.006672859192, 144.5)" fill-opacity="1">10</text><text fill="none" stroke="rgb(0,0,0)" font-family="helvetica" font-size="48px" font-style="normal" font-weight="normal" text-decoration="normal" x="0" y="49.202341715494796" text-anchor="start" dominant-baseline="alphabetic" transform="matrix(1, 0, 0, 1, 3800.006672859192, 144.5)" stroke-opacity="0" stroke-linejoin="bevel" stroke-miterlimit="10" stroke-width="4.5">10</text><text fill="rgb(68,68,68)" stroke="none" font-family="helvetica" font-size="33.599999999999994px" font-style="normal" font-weight="normal" text-decoration="normal" x="53.400001525878906" y="25.1015625" text-anchor="start" dominant-baseline="alphabetic" transform="matrix(1, 0, 0, 1, 3800.006672859192, 144.5)" fill-opacity="1">5</text><text fill="none" stroke="rgb(0,0,0)" font-family="helvetica" font-size="33.599999999999994px" font-style="normal" font-weight="normal" text-decoration="normal" x="53.400001525878906" y="25.1015625" text-anchor="start" dominant-baseline="alphabetic" transform="matrix(1, 0, 0, 1, 3800.006672859192, 144.5)" stroke-opacity="0" stroke-linejoin="bevel" stroke-miterlimit="10" stroke-width="4.5">5</text></svg>