<?xml version="1.0" ?>
<svg xmlns="http://www.w3.org/2000/svg" xmlns:ev="http://www.w3.org/2001/xml-events" xmlns:xlink="http://www.w3.org/1999/xlink" baseProfile="full" height="572px" version="1.1" viewBox="-1915.0529624112503 -1825.3143585377318 22885.359282148373 21808.49603566615" width="600px">
	<defs/>
	<path d="M 6417.0,18144.0 C 6385.0,18137.0 6304.0,18104.0 6237.0,18071.0 C 6026.0,17968.0 5632.0,17744.0 5557.0,17684.0 C 5289.0,17469.0 4823.0,17066.0 4671.0,16917.0 C 4552.0,16801.0 4538.0,16776.0 4415.0,16465.0 C 4298.0,16170.0 4231.0,15956.0 4220.0,15840.0 C 4207.0,15715.0 4174.0,15529.0 4163.0,15520.0 C 4159.0,15516.0 4120.0,15499.0 4078.0,15482.0 L 4000.0,15450.0 L 3715.0,15450.0 L 3430.0,15450.0 L 3366.0,15578.0 C 3331.0,15648.0 3259.0,15797.0 3205.0,15910.0 C 3048.0,16242.0 3057.0,16226.0 2784.0,16665.0 C 2648.0,16884.0 2630.0,16908.0 2395.0,17180.0 L 2149.0,17465.0 L 1977.0,17550.0 C 1419.0,17826.0 1169.0,17941.0 1090.0,17959.0 C 929.0,17995.0 744.0,18024.0 675.0,18024.0 C 608.0,18024.0 582.0,18019.0 516.0,17993.0 C 386.0,17940.0 154.0,17803.0 80.0,17733.0 L 13.0,17671.0 L 7.0,16913.0 L 0.0,16155.0 L 37.0,15903.0 L 73.0,15651.0 L 55.0,15575.0 C 31.0,15473.0 38.0,15355.0 75.0,15240.0 C 108.0,15137.0 140.0,15071.0 232.0,14918.0 C 310.0,14789.0 304.0,14813.0 339.0,14488.0 L 357.0,14321.0 L 406.0,14243.0 C 499.0,14098.0 599.0,13971.0 642.0,13944.0 C 703.0,13905.0 786.0,13824.0 835.0,13755.0 C 859.0,13722.0 934.0,13582.0 1003.0,13444.0 C 1113.0,13224.0 1137.0,13184.0 1194.0,13122.0 C 1230.0,13083.0 1262.0,13040.0 1264.0,13028.0 C 1276.0,12972.0 1362.0,12472.0 1379.0,12355.0 C 1413.0,12131.0 1483.0,11876.0 1560.0,11695.0 C 1789.0,11159.0 1862.0,10982.0 1877.0,10932.0 C 1890.0,10886.0 1894.0,10797.0 1900.0,10480.0 L 1907.0,10085.0 L 1944.0,9915.0 C 1965.0,9822.0 2049.0,9471.0 2131.0,9135.0 C 2214.0,8800.0 2303.0,8433.0 2330.0,8320.0 C 2422.0,7932.0 2799.0,6727.0 2874.0,6581.0 C 2884.0,6563.0 2919.0,6516.0 2953.0,6477.0 C 3072.0,6339.0 3060.0,6390.0 3061.0,6041.0 C 3063.0,5410.0 3074.0,5150.0 3129.0,4485.0 C 3187.0,3776.0 3186.0,3786.0 3228.0,3560.0 C 3301.0,3175.0 3313.0,3060.0 3314.0,2750.0 C 3314.0,2460.0 3295.0,2188.0 3240.0,1695.0 C 3225.0,1556.0 3175.0,1268.0 3154.0,1199.0 C 3150.0,1186.0 3133.0,1187.0 3002.0,1212.0 C 2921.0,1227.0 2815.0,1243.0 2765.0,1246.0 C 2681.0,1252.0 2673.0,1251.0 2640.0,1228.0 C 2601.0,1201.0 2377.0,877.0 2359.0,820.0 C 2353.0,801.0 2336.0,758.0 2323.0,725.0 C 2301.0,674.0 2300.0,661.0 2309.0,629.0 C 2331.0,556.0 2386.0,516.0 2408.0,557.0 C 2417.0,572.0 2425.0,572.0 2526.0,556.0 C 2601.0,543.0 2664.0,525.0 2728.0,498.0 C 2857.0,443.0 2866.0,443.0 3000.0,488.0 L 3114.0,527.0 L 3230.0,486.0 C 3344.0,446.0 3347.0,445.0 3485.0,445.0 L 3625.0,445.0 L 3705.0,493.0 C 3812.0,557.0 3989.0,689.0 4060.0,759.0 C 4116.0,814.0 4117.0,816.0 4124.0,885.0 C 4155.0,1189.0 4240.0,1800.0 4346.0,2475.0 C 4553.0,3806.0 4548.0,3779.0 4635.0,4073.0 L 4711.0,4331.0 L 4859.0,5198.0 L 5007.0,6065.0 L 5076.0,6200.0 C 5133.0,6313.0 5145.0,6346.0 5150.0,6399.0 L 5155.0,6462.0 L 5242.0,6328.0 C 5368.0,6134.0 5484.0,5973.0 5544.0,5910.0 C 5609.0,5842.0 5700.0,5721.0 5775.0,5606.0 L 5833.0,5517.0 L 5920.0,4926.0 C 5995.0,4420.0 6026.0,4245.0 6133.0,3715.0 C 6202.0,3374.0 6267.0,3039.0 6278.0,2970.0 C 6310.0,2773.0 6323.0,2555.0 6319.0,2290.0 C 6317.0,2155.0 6316.0,2011.0 6315.0,1969.0 L 6315.0,1893.0 L 6385.0,1779.0 L 6455.0,1665.0 L 6457.0,1185.0 L 6460.0,705.0 L 6378.0,665.0 C 6319.0,637.0 6290.0,616.0 6278.0,594.0 C 6255.0,554.0 6241.0,445.0 6240.0,307.0 C 6240.0,185.0 6253.0,149.0 6329.0,52.0 L 6370.0,0.0 L 6623.0,0.0 C 6837.0,0.0 6902.0,4.0 7050.0,25.0 C 7146.0,38.0 7274.0,54.0 7335.0,60.0 C 7396.0,66.0 7462.0,79.0 7485.0,89.0 C 7536.0,112.0 7628.0,180.0 7634.0,200.0 C 7669.0,317.0 7700.0,456.0 7700.0,502.0 C 7700.0,560.0 7652.0,956.0 7605.0,1285.0 C 7586.0,1416.0 7576.0,1535.0 7570.0,1725.0 C 7561.0,2017.0 7554.0,2056.0 7495.0,2122.0 L 7458.0,2163.0 L 7462.0,2329.0 C 7468.0,2512.0 7487.0,2619.0 7560.0,2880.0 L 7600.0,3020.0 L 7600.0,3209.0 C 7600.0,3313.0 7594.0,3460.0 7586.0,3536.0 C 7578.0,3613.0 7564.0,3898.0 7555.0,4170.0 C 7539.0,4646.0 7537.0,4679.0 7494.0,5017.0 C 7453.0,5343.0 7450.0,5387.0 7449.0,5607.0 C 7449.0,5738.0 7445.0,5962.0 7441.0,6105.0 L 7432.0,6365.0 L 7390.0,6473.0 C 7367.0,6533.0 7350.0,6583.0 7352.0,6584.0 C 7353.0,6585.0 7456.0,6564.0 7580.0,6536.0 L 7805.0,6486.0 L 8075.0,6488.0 C 8373.0,6490.0 8506.0,6478.0 8656.0,6434.0 C 8770.0,6401.0 8814.0,6378.0 8864.0,6322.0 C 8954.0,6222.0 9245.0,5906.0 9336.0,5809.0 L 9431.0,5707.0 L 9989.0,5414.0 C 10523.0,5134.0 10648.0,5063.0 11092.0,4783.0 L 11290.0,4658.0 L 11363.0,4547.0 C 11594.0,4194.0 11695.0,4000.0 11771.0,3763.0 L 11793.0,3692.0 L 11715.0,3493.0 C 11672.0,3384.0 11572.0,3135.0 11492.0,2940.0 C 11412.0,2745.0 11297.0,2452.0 11236.0,2290.0 C 11174.0,2128.0 11121.0,1990.0 11117.0,1984.0 C 11113.0,1977.0 11035.0,1921.0 10943.0,1858.0 L 10775.0,1743.0 L 10622.0,1721.0 C 10505.0,1705.0 10447.0,1691.0 10377.0,1663.0 C 10247.0,1612.0 10159.0,1566.0 10129.0,1533.0 C 10064.0,1464.0 9900.0,1172.0 9900.0,1127.0 C 9900.0,1066.0 10039.0,1007.0 10331.0,944.0 C 10551.0,896.0 10552.0,895.0 10589.0,915.0 C 10630.0,936.0 10742.0,957.0 10856.0,965.0 C 10931.0,971.0 10982.0,966.0 11174.0,936.0 C 11300.0,916.0 11416.0,900.0 11432.0,900.0 C 11514.0,900.0 11647.0,1030.0 11827.0,1285.0 C 11994.0,1522.0 12042.0,1611.0 12230.0,2041.0 L 12411.0,2455.0 L 12506.0,2819.0 C 12558.0,3019.0 12633.0,3309.0 12672.0,3464.0 L 12744.0,3745.0 L 12747.0,4009.0 L 12750.0,4273.0 L 12831.0,4361.0 L 12912.0,4450.0 L 12891.0,4512.0 C 12880.0,4546.0 12872.0,4575.0 12873.0,4577.0 C 12875.0,4578.0 12978.0,4474.0 13103.0,4344.0 L 13329.0,4108.0 L 13485.0,3867.0 L 13641.0,3627.0 L 13675.0,3411.0 C 13754.0,2904.0 13793.0,2600.0 13784.0,2552.0 C 13782.0,2537.0 13764.0,2307.0 13745.0,2040.0 C 13709.0,1543.0 13684.0,1247.0 13674.0,1197.0 C 13670.0,1176.0 13644.0,1151.0 13577.0,1101.0 C 13492.0,1037.0 13480.0,1031.0 13420.0,1025.0 C 13309.0,1012.0 13237.0,987.0 13166.0,935.0 C 13098.0,884.0 13064.0,843.0 13033.0,775.0 C 13019.0,742.0 13015.0,707.0 13015.0,583.0 C 13015.0,500.0 13018.0,428.0 13022.0,425.0 C 13026.0,421.0 13082.0,421.0 13147.0,426.0 C 13239.0,433.0 13294.0,431.0 13400.0,418.0 C 13512.0,404.0 13539.0,404.0 13560.0,415.0 C 13574.0,422.0 13617.0,438.0 13655.0,450.0 C 13770.0,486.0 13920.0,477.0 14164.0,420.0 L 14243.0,402.0 L 14419.0,520.0 C 14516.0,584.0 14615.0,647.0 14638.0,659.0 C 14699.0,690.0 14767.0,755.0 14780.0,795.0 C 14788.0,819.0 14788.0,857.0 14780.0,932.0 C 14757.0,1157.0 14692.0,2127.0 14670.0,2560.0 C 14664.0,2678.0 14658.0,2804.0 14656.0,2840.0 C 14654.0,2876.0 14665.0,3029.0 14681.0,3180.0 C 14725.0,3614.0 14731.0,3684.0 14733.0,3803.0 C 14735.0,3903.0 14732.0,3924.0 14706.0,4000.0 C 14635.0,4210.0 14627.0,4223.0 14487.0,4389.0 C 14414.0,4475.0 14289.0,4612.0 14209.0,4695.0 C 14065.0,4843.0 14063.0,4847.0 13993.0,4985.0 C 13913.0,5142.0 13822.0,5342.0 13715.0,5595.0 L 13643.0,5765.0 L 13637.0,5915.0 C 13632.0,6033.0 13635.0,6109.0 13652.0,6273.0 C 13664.0,6387.0 13677.0,6479.0 13681.0,6478.0 C 13700.0,6471.0 14020.0,6180.0 14141.0,6060.0 C 14247.0,5954.0 14284.0,5911.0 14310.0,5860.0 C 14344.0,5791.0 14541.0,5487.0 14547.0,5494.0 C 14549.0,5496.0 14561.0,5551.0 14573.0,5616.0 L 14596.0,5735.0 L 14681.0,5605.0 C 14727.0,5534.0 14779.0,5454.0 14795.0,5427.0 C 14821.0,5387.0 14829.0,5380.0 14850.0,5385.0 C 14871.0,5389.0 14885.0,5379.0 14935.0,5328.0 C 14968.0,5294.0 15119.0,5155.0 15270.0,5019.0 C 15421.0,4882.0 15588.0,4732.0 15640.0,4684.0 C 15692.0,4636.0 15796.0,4551.0 15870.0,4495.0 C 15945.0,4440.0 16134.0,4293.0 16290.0,4169.0 C 17000.0,3608.0 17281.0,3407.0 17415.0,3364.0 C 17493.0,3338.0 17663.0,3249.0 17799.0,3160.0 C 17868.0,3116.0 17926.0,3080.0 17930.0,3080.0 C 17950.0,3080.0 17974.0,3112.0 17984.0,3154.0 L 17996.0,3202.0 L 18116.0,3094.0 C 18181.0,3035.0 18247.0,2975.0 18263.0,2961.0 L 18291.0,2936.0 L 18284.0,3010.0 C 18277.0,3079.0 18278.0,3083.0 18296.0,3076.0 C 18306.0,3072.0 18386.0,3021.0 18473.0,2962.0 C 18670.0,2829.0 18674.0,2827.0 18710.0,2835.0 C 18746.0,2843.0 18780.0,2882.0 18887.0,3045.0 C 19025.0,3253.0 19021.0,3240.0 19030.0,3524.0 C 19035.0,3656.0 19036.0,3823.0 19033.0,3893.0 C 19029.0,3969.0 19032.0,4080.0 19040.0,4166.0 C 19056.0,4339.0 19050.0,4383.0 18991.0,4531.0 C 18968.0,4587.0 18950.0,4634.0 18950.0,4637.0 C 18950.0,4639.0 18967.0,4628.0 18987.0,4611.0 C 19026.0,4579.0 19045.0,4573.0 19055.0,4590.0 C 19058.0,4595.0 19034.0,4652.0 19002.0,4717.0 C 18969.0,4782.0 18930.0,4864.0 18914.0,4900.0 C 18879.0,4982.0 18816.0,5083.0 18693.0,5258.0 C 18560.0,5448.0 18434.0,5612.0 18359.0,5696.0 C 18324.0,5734.0 18219.0,5856.0 18125.0,5966.0 C 18032.0,6075.0 17827.0,6296.0 17670.0,6456.0 C 17334.0,6798.0 17176.0,6977.0 17061.0,7143.0 C 16868.0,7423.0 16374.0,8070.0 16170.0,8310.0 C 15957.0,8561.0 15953.0,8568.0 15850.0,8755.0 C 15693.0,9043.0 15520.0,9337.0 15402.0,9515.0 C 15290.0,9684.0 15274.0,9702.0 14994.0,9967.0 C 14756.0,10191.0 14229.0,10743.0 14043.0,10962.0 C 14003.0,11010.0 13931.0,11113.0 13883.0,11192.0 C 13641.0,11594.0 13514.0,11748.0 13288.0,11918.0 C 13176.0,12002.0 12975.0,12132.0 12869.0,12189.0 C 12754.0,12251.0 12365.0,12386.0 11702.0,12595.0 L 11429.0,12681.0 L 10859.0,12766.0 C 10377.0,12837.0 10233.0,12855.0 9913.0,12881.0 C 9453.0,12918.0 9404.0,12918.0 9120.0,12886.0 C 8647.0,12832.0 8509.0,12807.0 8255.0,12730.0 C 8108.0,12686.0 7782.0,12614.0 7565.0,12579.0 C 6688.0,12436.0 6337.0,12374.0 6229.0,12340.0 C 6173.0,12323.0 5880.0,12250.0 5867.0,12250.0 C 5865.0,12250.0 5891.0,12370.0 5926.0,12518.0 C 5988.0,12786.0 6021.0,12889.0 6100.0,13075.0 C 6190.0,13286.0 6213.0,13323.0 6511.0,13740.0 L 6680.0,13975.0 L 6870.0,14089.0 C 6974.0,14151.0 7061.0,14210.0 7064.0,14219.0 C 7078.0,14268.0 7182.0,14734.0 7204.0,14846.0 C 7218.0,14917.0 7234.0,15023.0 7239.0,15081.0 C 7255.0,15242.0 7316.0,15473.0 7385.0,15630.0 C 7434.0,15739.0 7443.0,15812.0 7425.0,15935.0 C 7406.0,16065.0 7366.0,16509.0 7340.0,16875.0 C 7309.0,17327.0 7308.0,17330.0 7229.0,17606.0 C 7149.0,17885.0 7128.0,17934.0 7061.0,18003.0 C 7006.0,18061.0 6967.0,18082.0 6869.0,18110.0 C 6695.0,18158.0 6527.0,18171.0 6417.0,18144.0" fill="none" stroke="#000000" stroke-width="19.055253357325874"/>
</svg>
