<?xml version="1.0" ?>
<svg xmlns="http://www.w3.org/2000/svg" xmlns:ev="http://www.w3.org/2001/xml-events" xmlns:xlink="http://www.w3.org/1999/xlink" baseProfile="full" height="208px" version="1.1" viewBox="-13.203798756185831 17.577571194955713 183.16165241561515 63.454907620662475" width="600px">
	<defs/>
	<path d="M 78.63383778285201,74.48102500528695 L 74.43383778285201,72.28102500528695 C 74.066837782852,72.14802500528695 73.71683778285201,72.01402500528695 73.38383778285201,71.88102500528696 C 73.01683778285201,71.74802500528696 72.65083778285201,71.63102500528696 72.28283778285201,71.53102500528695 C 71.91683778285201,71.43102500528695 71.51583778285202,71.33102500528696 71.08283778285201,71.23102500528695 L 65.38383778285201,69.98102500528695 C 65.01683778285201,69.88102500528696 64.66683778285201,69.76402500528695 64.33283778285201,69.63102500528696 C 63.96683778285201,69.53102500528695 63.616837782852016,69.39802500528695 63.28283778285201,69.23102500528695 C 62.949837782852015,69.09802500528696 62.63383778285201,68.94802500528695 62.33283778285201,68.78102500528696 C 61.96683778285201,68.61402500528696 61.63383778285201,68.43102500528695 61.33283778285201,68.23102500528697 L 59.18383778285201,66.78102500528696 C 59.01683778285201,66.68102500528695 58.74983778285201,66.54802500528696 58.38383778285201,66.38102500528696 C 57.98383778285201,66.24802500528696 57.51683778285201,66.09802500528696 56.98383778285201,65.93102500528695 L 52.98383778285201,64.98102500528697 L 24.583837782852015,61.03102500528696 C 24.116837782852002,60.96502500528696 23.750837782852017,60.881025005286965 23.48383778285202,60.78102500528696 C 22.81683778285202,60.61402500528696 22.18383778285201,60.41402500528696 21.583837782852015,60.18102500528696 C 20.98383778285202,59.981025005286966 20.41783778285202,59.731025005286966 19.884837782852003,59.43102500528696 C 19.317837782851996,59.16402500528696 18.783837782852004,58.86502500528697 18.283837782852004,58.53102500528696 C 17.783837782852004,58.198025005286965 17.31683778285199,57.848025005286964 16.884837782852003,57.481025005286966 C 16.41783778285199,57.11402500528696 16.000837782852017,56.71402500528696 15.634837782852003,56.28102500528696 C 15.267837782852013,55.848025005286964 14.934837782852014,55.381025005286965 14.634837782852003,54.881025005286965 L 12.783837782852004,52.58102500528696 C 12.550837782852,52.381025005286965 12.266837782852008,52.16402500528696 11.93383778285201,51.93102500528697 C 11.56683778285202,51.731025005286966 11.166837782852014,51.53102500528697 10.73383778285202,51.33102500528697 C 10.299837782852023,51.131025005286965 9.833837782852015,50.93102500528697 9.333837782852015,50.731025005286966 L 7.733837782852021,50.231025005286966 C 7.167837782852018,50.064025005286965 6.583837782852015,49.914025005286966 5.983837782852021,49.78102500528696 C 5.3838377828520265,49.68102500528696 4.849837782852035,49.548025005286966 4.3838377828520265,49.381025005286965 C 3.9168377828520136,49.21402500528696 3.5168377828520363,49.048025005286966 3.183837782852038,48.881025005286965 C 2.5168377828520363,48.51402500528697 2.166837782852042,48.098025005286964 2.1338377828520265,47.631025005286965 C 2.0668377828520192,47.19702500528697 2.3168377828520192,46.71502500528697 2.8838377828520265,46.18102500528697 C 3.183837782852038,45.881025005286965 3.5668377828520192,45.61502500528697 4.032837782852027,45.381025005286965 C 4.2658377828520315,45.31502500528697 4.532837782852027,45.231025005286966 4.832837782852039,45.131025005286965 C 5.099837782852035,45.03102500528696 5.416837782852042,44.94702500528697 5.782837782852027,44.881025005286965 C 6.149837782852018,44.81502500528697 6.549837782852023,44.74802500528697 6.982837782852016,44.68102500528697 L 18.232837782852016,43.631025005286965 L 31.83283778285201,39.78102500528696 C 32.26683778285201,39.61402500528696 32.649837782852,39.44702500528696 32.982837782852016,39.28102500528696 L 33.78283778285201,38.881025005286965 L 33.982837782852016,38.731025005286966 L 34.03283778285201,38.631025005286965 C 34.13383778285201,38.29702500528696 34.348837782852016,37.93102500528696 34.68283778285202,37.53102500528696 C 35.01583778285202,37.164025005286966 35.449837782852015,36.76302500528696 35.982837782852016,36.33102500528696 C 36.24983778285201,36.13102500528696 36.53283778285201,35.93102500528696 36.83283778285201,35.73002500528696 C 37.099837782852006,35.53102500528696 37.399837782852,35.314025005286965 37.732837782852016,35.08102500528696 C 38.03283778285201,34.91402500528696 38.366837782852016,34.73002500528696 38.732837782852016,34.53102500528696 L 39.78283778285201,33.98002500528696 C 40.315837782852014,33.71402500528696 40.79983778285201,33.49802500528696 41.232837782852016,33.33102500528696 C 41.666837782852014,33.13102500528696 42.065837782852014,32.98002500528696 42.43283778285202,32.88102500528696 C 42.93283778285202,32.71502500528696 43.348837782852016,32.614025005286955 43.68283778285202,32.58102500528696 L 43.982837782852016,32.63102500528696 C 44.348837782852016,32.73102500528696 44.53283778285201,32.96502500528696 44.53283778285201,33.33102500528696 C 44.53283778285201,33.73002500528696 44.38383778285201,34.28102500528696 44.08283778285201,34.98002500528696 L 43.63383778285201,35.98002500528696 L 43.53283778285201,36.33102500528696 L 48.58283778285201,33.181025005286955 L 53.28283778285201,31.13102500528696 C 53.88383778285201,30.93102500528696 54.43283778285202,30.78102500528696 54.93283778285202,30.68102500528696 C 55.39983778285202,30.581025005286957 55.815837782852014,30.532025005286958 56.18283778285202,30.532025005286958 C 56.848837782852016,30.532025005286958 57.199837782852015,30.749025005286956 57.232837782852016,31.18102500528696 C 57.232837782852016,31.74802500528696 56.24983778285201,33.032025005286954 54.28283778285201,35.032025005286954 L 53.28283778285201,36.23102500528695 C 53.14983778285202,36.398025005286954 53.065837782852014,36.532025005286954 53.03283778285201,36.63102500528695 L 53.03283778285201,36.781025005286956 L 53.08283778285201,36.781025005286956 L 53.28283778285201,36.83102500528695 L 63.43283778285202,37.58102500528695 L 79.48283778285202,37.88102500528695 L 99.53283778285201,37.33102500528695 L 100.932837782852,37.181025005286955 C 102.265837782852,37.01402500528695 103.616837782852,36.815025005286955 104.98283778285202,36.58102500528695 C 106.348837782852,36.38102500528694 107.715837782852,36.13102500528694 109.08283778285201,35.831025005286946 C 110.41683778285201,35.56402500528694 111.73283778285202,35.28102500528695 113.03283778285201,34.98002500528695 C 114.33283778285201,34.68002500528695 115.58283778285201,34.347025005286945 116.78283778285201,33.98002500528695 C 117.78283778285201,33.71402500528695 118.78283778285201,33.48002500528695 119.78283778285201,33.28102500528695 C 120.74983778285201,33.04702500528695 121.69983778285201,32.86402500528695 122.63383778285201,32.73002500528695 C 123.53283778285201,32.597025005286945 124.43383778285201,32.48002500528695 125.33283778285201,32.380025005286946 C 126.16683778285201,32.31402500528694 126.98283778285202,32.280025005286944 127.78283778285201,32.280025005286944 L 129.682837782852,32.280025005286944 L 130.432837782852,30.530025005286944 C 130.598837782852,30.163025005286947 130.831837782852,29.729025005286942 131.132837782852,29.229025005286942 L 136.081837782852,23.729025005286942 C 136.382837782852,23.463025005286944 136.632837782852,23.262025005286944 136.831837782852,23.12902500528694 L 137.031837782852,22.979025005286942 L 137.132837782852,22.929025005286945 L 137.23283778285202,22.929025005286945 C 137.298837782852,22.963025005286944 137.366837782852,23.030025005286944 137.432837782852,23.129025005286948 C 137.498837782852,23.228025005286945 137.565837782852,23.362025005286945 137.632837782852,23.529025005286947 C 137.698837782852,23.695025005286944 137.765837782852,23.862025005286945 137.831837782852,24.029025005286947 C 137.865837782852,24.195025005286944 137.932837782852,24.362025005286945 138.031837782852,24.529025005286947 C 138.097837782852,24.695025005286944 138.21583778285202,24.862025005286945 138.382837782852,25.029025005286947 C 138.515837782852,25.228025005286945 138.665837782852,25.41202500528695 138.831837782852,25.579025005286944 C 138.96583778285202,25.746025005286945 139.132837782852,25.895025005286946 139.331837782852,26.029025005286947 C 139.632837782852,26.261025005286946 139.865837782852,26.463025005286944 140.031837782852,26.629025005286948 C 140.198837782852,26.795025005286945 140.331837782852,26.94502500528695 140.431837782852,27.07902500528695 C 140.497837782852,27.246025005286953 140.531837782852,27.41202500528695 140.531837782852,27.57902500528695 C 140.531837782852,27.779025005286954 140.514837782852,27.996025005286953 140.481837782852,28.228025005286952 L 140.38183778285202,29.279025005286954 L 141.78083778285202,29.32902500528695 C 142.047837782852,29.32902500528695 142.313837782852,29.346025005286954 142.580837782852,29.379025005286948 C 142.84783778285203,29.44502500528695 143.11483778285202,29.51202500528695 143.38183778285202,29.57902500528695 C 143.648837782852,29.713025005286944 143.947837782852,29.846025005286947 144.28083778285202,29.978025005286945 C 144.61483778285202,30.145025005286946 144.980837782852,30.34502500528695 145.38183778285202,30.57902500528695 C 145.814837782852,30.879025005286948 146.28083778285202,31.145025005286946 146.78083778285202,31.379025005286948 C 147.28083778285202,31.61302500528695 147.81383778285203,31.846025005286947 148.38183778285202,32.07902500528695 C 148.91483778285203,32.27902500528695 149.46483778285202,32.463025005286944 150.03083778285202,32.62902500528695 L 151.680837782852,33.07902500528695 C 152.213837782852,33.213025005286944 152.730837782852,33.31202500528695 153.230837782852,33.37902500528695 C 154.16483778285203,33.47902500528695 154.630837782852,33.66202500528695 154.630837782852,33.929025005286945 C 154.596837782852,34.22902500528694 154.096837782852,34.61302500528694 153.130837782852,35.079025005286944 C 152.829837782852,35.246025005286945 152.529837782852,35.37902500528694 152.230837782852,35.478025005286945 C 151.897837782852,35.612025005286945 151.546837782852,35.728025005286945 151.180837782852,35.829025005286944 C 150.81383778285203,35.929025005286945 150.430837782852,36.02902500528695 150.03083778285202,36.12902500528694 C 149.596837782852,36.22902500528694 149.147837782852,36.31302500528694 148.680837782852,36.37902500528694 L 135.332837782852,37.13102500528695 L 134.63383778285203,38.18102500528695 C 134.53283778285203,38.31502500528695 134.36683778285203,38.53202500528695 134.13383778285203,38.831025005286946 L 130.73383778285202,42.28102500528695 C 129.933837782852,43.04702500528695 129.117837782852,43.79702500528695 128.283837782852,44.53102500528695 C 127.45083778285202,45.26302500528695 126.599837782852,45.94702500528695 125.73383778285202,46.58102500528695 C 124.867837782852,47.28102500528695 123.96683778285201,47.94702500528695 123.03383778285202,48.58102500528695 C 122.06683778285202,49.21402500528695 121.08383778285202,49.83102500528695 120.08383778285202,50.431025005286955 C 119.08383778285202,51.031025005286956 118.01783778285201,51.61502500528695 116.88483778285202,52.181025005286955 C 115.78383778285202,52.781025005286956 114.63483778285202,53.36502500528695 113.43483778285201,53.931025005286955 C 112.23483778285201,54.498025005286955 110.96783778285202,55.065025005286955 109.63483778285202,55.63102500528696 C 108.30083778285201,56.23102500528695 106.91783778285202,56.79802500528696 105.48483778285203,57.33102500528695 C 99.05083778285203,59.86402500528695 94.01783778285203,62.23102500528695 90.38483778285202,64.43102500528695 C 86.75083778285202,66.66402500528696 84.55083778285201,68.71502500528696 83.78383778285202,70.58102500528696 C 83.68383778285202,70.74802500528696 83.61783778285202,70.94802500528695 83.58383778285202,71.18102500528695 C 83.51783778285201,71.41402500528696 83.48383778285202,71.64802500528695 83.48383778285202,71.88102500528696 L 83.48383778285202,75.58102500528696 L 81.58383778285202,75.68102500528695 C 81.31683778285202,75.64802500528695 81.05083778285201,75.58102500528696 80.78383778285202,75.48102500528695 C 80.51683778285202,75.41402500528696 80.21783778285202,75.28102500528695 79.88483778285202,75.08102500528696 C 79.51683778285202,74.94802500528695 79.09983778285202,74.74802500528696 78.63383778285201,74.48102500528695 L 78.63383778285201,74.48102500528695" fill="none" stroke="#000000" stroke-width="0.15250762066246057"/>
</svg>
