<?xml version="1.0" ?>
<svg xmlns="http://www.w3.org/2000/svg" xmlns:ev="http://www.w3.org/2001/xml-events" xmlns:xlink="http://www.w3.org/1999/xlink" baseProfile="full" height="254px" version="1.1" viewBox="-0.8966982339243721 13.71981952727515 109.69638698580619 46.26253754120386" width="600px">
	<defs/>
	<path d="M 58.64801586089638,56.08908829787709 C 58.37501586089638,56.08108829787709 58.09101586089638,56.05608829787709 57.798015860896385,56.014088297877095 C 57.50701586089639,55.96508829787709 57.215015860896386,55.898088297877095 56.923015860896385,55.81408829787709 C 56.62201586089638,55.73908829787709 56.331015860896386,55.64708829787709 56.048015860896385,55.539088297877086 C 55.86001586089638,55.46508829787709 55.61001586089638,55.34808829787709 55.298015860896385,55.18908829787709 L 51.77301586089638,53.139088297877095 C 51.180015860896376,52.76008829787709 50.61401586089638,52.410088297877095 50.07401586089638,52.08908829787709 C 49.53501586089638,51.774088297877086 49.027015860896384,51.49108829787709 48.54901586089638,51.23908829787709 C 48.07401586089638,50.98308829787709 47.60801586089638,50.75008829787709 47.149015860896384,50.539088297877086 C 46.68901586089638,50.33108829787709 46.23901586089639,50.148088297877095 45.79901586089638,49.98908829787709 C 45.36001586089638,49.83108829787709 44.90901586089638,49.68908829787709 44.44901586089638,49.56408829787709 C 43.98201586089638,49.431088297877096 43.50701586089638,49.31408829787709 43.02301586089638,49.21408829787709 C 42.54501586089638,49.12208829787709 42.03801586089638,49.038088297877096 41.49901586089638,48.96408829787709 C 40.96801586089638,48.88808829787709 40.409015860896375,48.8210882978771 39.82401586089638,48.764088297877095 C 38.60301586089638,48.639088297877095 37.41201586089638,48.48808829787709 36.24901586089638,48.31408829787709 C 35.07801586089637,48.13808829787709 33.945015860896376,47.938088297877094 32.84901586089637,47.7140882978771 C 31.757015860896377,47.498088297877096 30.69001586089637,47.25608829787709 29.649015860896373,46.989088297877096 C 28.616015860896372,46.71308829787709 27.616015860896372,46.413088297877096 26.649015860896373,46.0890882978771 C 25.676015860896374,45.76608829787709 24.72601586089637,45.416088297877096 23.79901586089638,45.03908829787709 C 22.869015860896372,44.66408829787709 21.96901586089638,44.264088297877095 21.099015860896376,43.8390882978771 C 20.22901586089637,43.41808829787709 19.379015860896377,42.968088297877095 18.549015860896375,42.489088297877096 C 17.723015860896382,42.00608829787709 16.92301586089637,41.4970882978771 16.14901586089637,40.9640882978771 L 11.77401586089637,37.41408829787709 L 11.000015860896369,36.66408829787709 C 10.51201586089637,36.184088297877096 10.079015860896362,35.72508829787709 9.700015860896372,35.28908829787709 C 9.320015860896376,34.85008829787709 9.01201586089637,34.4490882978771 8.77401586089637,34.0890882978771 C 8.537015860896375,33.72508829787709 8.386015860896364,33.416088297877096 8.325015860896372,33.16408829787709 C 8.233015860896373,32.76208829787709 8.291015860896366,32.38708829787709 8.500015860896369,32.03908829787709 C 8.712015860896372,31.682088297877094 9.046015860896375,31.39808829787709 9.500015860896369,31.188088297877094 C 9.630015860896364,31.136088297877095 9.847015860896363,31.070088297877096 10.14901586089637,30.988088297877095 L 11.27401586089637,30.688088297877094 L 22.849015860896372,28.563088297877094 L 23.599015860896372,27.488088297877095 C 23.924015860896375,27.033088297877097 24.266015860896374,26.600088297877093 24.624015860896378,26.188088297877094 C 24.984015860896378,25.772088297877094 25.359015860896378,25.380088297877094 25.749015860896378,25.013088297877093 C 26.13301586089638,24.656088297877094 26.51701586089638,24.330088297877094 26.89801586089638,24.038088297877092 C 27.278015860896375,23.736088297877092 27.653015860896375,23.470088297877094 28.02301586089638,23.23708829787709 C 28.400015860896374,23.010088297877093 28.75801586089638,22.827088297877093 29.098015860896382,22.687088297877093 C 29.444015860896386,22.55108829787709 29.76901586089639,22.45908829787709 30.07401586089638,22.413088297877092 L 30.44901586089638,22.36208829787709 C 30.866015860896383,22.36808829787709 31.191015860896385,22.50808829787709 31.424015860896375,22.788088297877092 C 31.49401586089637,22.878088297877095 31.55301586089638,22.995088297877093 31.599015860896372,23.138088297877093 C 31.644015860896374,23.27908829787709 31.678015860896366,23.437088297877093 31.70001586089637,23.61308829787709 C 31.728015860896377,23.795088297877093 31.745015860896373,23.987088297877094 31.75001586089637,24.188088297877094 C 31.746015860896364,24.385088297877093 31.729015860896368,24.585088297877093 31.70001586089637,24.789088297877093 C 31.67901586089637,24.993088297877094 31.645015860896365,25.193088297877093 31.599015860896372,25.389088297877095 L 31.45001586089637,25.964088297877094 L 32.50001586089637,25.264088297877095 C 32.85501586089637,25.037088297877094 33.23801586089637,24.838088297877096 33.64901586089637,24.664088297877093 C 34.05701586089637,24.48608829787709 34.49101586089637,24.337088297877088 34.95001586089637,24.21408829787709 C 35.407015860896365,24.094088297877093 35.88301586089637,24.002088297877087 36.37501586089637,23.939088297877092 C 36.864015860896366,23.877088297877094 37.373015860896366,23.843088297877095 37.89901586089637,23.83908829787709 C 38.27801586089637,23.844088297877093 38.620015860896366,23.86008829787709 38.92401586089637,23.889088297877088 C 39.21301586089637,23.91008829787709 39.46301586089637,23.944088297877087 39.67401586089637,23.98908829787709 C 39.90001586089637,24.03708829787709 40.08301586089637,24.09508829787709 40.224015860896365,24.165088297877087 C 40.37201586089637,24.23608829787709 40.48101586089636,24.319088297877087 40.54901586089637,24.415088297877087 C 40.67401586089637,24.606088297877086 40.623015860896366,24.831088297877088 40.39901586089637,25.090088297877088 C 40.18501586089637,25.34708829787709 39.80101586089637,25.630088297877087 39.25001586089637,25.94008829787709 C 38.919015860896366,26.119088297877088 38.544015860896366,26.33608829787709 38.12501586089637,26.590088297877088 L 35.95001586089637,28.040088297877087 L 35.67501586089637,28.290088297877087 L 35.85001586089637,28.31408829787709 L 60.45101586089637,27.839088297877087 C 61.22501586089637,27.801088297877087 61.66701586089637,27.768088297877085 61.77501586089637,27.738088297877088 L 64.55001586089637,26.914088297877086 C 65.00801586089636,26.770088297877088 65.50801586089636,26.629088297877082 66.05001586089637,26.488088297877084 L 76.27501586089636,24.613088297877084 L 83.02501586089636,24.039088297877083 L 83.75101586089636,22.414088297877083 C 83.95201586089637,21.980088297877085 84.18601586089636,21.556088297877086 84.45101586089636,21.139088297877084 C 84.72201586089636,20.719088297877082 85.02101586089637,20.31108829787708 85.35001586089636,19.914088297877083 C 85.67901586089637,19.521088297877082 86.01201586089637,19.17108829787708 86.35001586089636,18.863088297877077 C 86.68101586089637,18.552088297877077 87.01501586089637,18.285088297877074 87.35001586089636,18.06308829787708 C 87.62201586089637,17.887088297877078 87.84801586089637,17.762088297877078 88.02501586089636,17.68808829787708 C 88.13801586089636,17.63908829787708 88.23901586089636,17.61508829787708 88.32601586089638,17.613088297877077 L 88.47501586089636,17.638088297877076 C 88.59501586089637,17.681088297877075 88.69501586089638,17.790088297877077 88.77501586089636,17.96308829787708 C 88.85301586089636,18.13608829787708 88.92701586089638,18.378088297877078 89.00101586089636,18.68808829787708 C 89.05201586089638,18.89608829787708 89.13601586089636,19.12108829787708 89.25101586089636,19.363088297877077 C 89.36901586089637,19.59708829787708 89.51101586089636,19.840088297877074 89.67601586089637,20.08908829787708 C 89.83501586089636,20.351088297877077 90.01001586089637,20.610088297877077 90.20101586089638,20.863088297877077 C 90.39201586089638,21.111088297877075 90.59301586089637,21.343088297877074 90.80101586089637,21.56308829787708 C 91.01801586089637,21.77908829787708 91.23501586089637,21.970088297877076 91.45101586089638,22.138088297877083 C 91.65901586089637,22.314088297877085 91.85901586089636,22.455088297877083 92.05101586089637,22.56308829787708 L 92.72601586089637,22.988088297877077 C 92.81401586089638,23.052088297877077 92.87201586089637,23.101088297877077 92.90101586089636,23.138088297877076 C 92.98401586089636,23.252088297877073 93.14201586089636,23.377088297877073 93.37701586089636,23.513088297877076 C 93.60701586089637,23.653088297877076 93.89101586089637,23.794088297877074 94.22701586089636,23.938088297877073 C 94.56501586089637,24.078088297877073 94.93101586089637,24.21008829787707 95.32801586089637,24.33808829787707 C 95.73001586089637,24.476088297877073 96.13901586089636,24.601088297877073 96.55301586089637,24.71308829787707 C 96.96301586089638,24.810088297877073 97.35501586089637,24.88408829787707 97.72801586089636,24.938088297877073 C 98.09501586089637,25.00108829787707 98.42001586089637,25.035088297877074 98.70401586089636,25.039088297877072 L 99.15301586089637,25.063088297877073 C 99.27901586089637,25.08808829787707 99.37901586089637,25.122088297877074 99.45401586089636,25.164088297877072 C 99.53601586089637,25.205088297877072 99.58601586089637,25.255088297877073 99.60301586089636,25.313088297877073 C 99.62601586089636,25.36708829787707 99.62601586089636,25.42508829787707 99.60301586089636,25.488088297877074 C 99.54101586089637,25.601088297877073 99.38201586089636,25.726088297877073 99.12801586089637,25.863088297877074 C 98.88301586089636,26.010088297877072 98.54901586089636,26.160088297877074 98.12801586089637,26.313088297877073 L 97.32801586089637,26.563088297877073 L 93.42801586089637,27.363088297877077 L 87.30301586089637,27.839088297877076 L 83.80301586089637,30.289088297877075 L 58.92301586089637,44.96408829787708 C 58.53501586089637,45.21108829787708 58.21901586089637,45.45208829787708 57.97301586089637,45.68908829787708 C 57.73801586089637,45.92708829787708 57.49601586089637,46.21108829787708 57.248015860896366,46.53908829787708 C 57.01501586089637,46.82008829787708 56.84801586089637,47.09508829787708 56.748015860896366,47.364088297877075 C 56.657015860896365,47.64508829787708 56.615015860896364,47.97008829787708 56.623015860896366,48.33908829787708 C 56.620015860896366,48.653088297877076 56.65301586089637,48.95408829787708 56.72301586089637,49.239088297877075 C 56.791015860896366,49.531088297877076 56.90801586089637,49.83008829787708 57.07401586089637,50.13908829787708 C 57.245015860896366,50.44908829787708 57.47801586089637,50.79108829787708 57.773015860896365,51.16408829787708 C 58.06501586089637,51.54208829787708 58.43201586089637,51.976088297877084 58.874015860896364,52.46408829787708 C 59.32801586089637,52.95508829787708 59.69501586089636,53.37208829787708 59.97401586089637,53.71408829787708 C 60.24501586089637,54.06008829787708 60.436015860896376,54.352088297877074 60.549015860896375,54.58908829787708 C 60.669015860896366,54.83108829787707 60.71901586089638,55.04008829787708 60.69901586089637,55.21408829787708 C 60.67601586089637,55.38708829787708 60.59301586089637,55.54608829787708 60.44901586089637,55.68908829787708 C 60.34601586089637,55.79308829787708 60.20501586089637,55.876088297877075 60.023015860896365,55.93908829787708 C 59.85301586089636,56.00008829787708 59.653015860896375,56.04108829787708 59.42301586089637,56.06408829787708 L 58.87301586089639,56.08908829787709 L 58.64801586089638,56.08908829787709" fill="none" stroke="#000000" stroke-width="0.09133754120383529"/>
</svg>
