<?xml version="1.0" ?>
<svg xmlns="http://www.w3.org/2000/svg" xmlns:ev="http://www.w3.org/2001/xml-events" xmlns:xlink="http://www.w3.org/1999/xlink" baseProfile="full" height="344px" version="1.1" viewBox="160.6617701812463 60.041084832080365 183.0324009369145 104.8508289544606" width="600px">
	<defs/>
	<path d="M 260.03915371689084,70.04369800717004 C 261.8858137168908,70.69329800717003 264.3180337168908,71.23374800717005 265.4441037168908,71.24470800717003 C 267.8658937168908,71.26820800717005 274.79354371689084,74.76919800717002 278.2170437168908,77.69955800717003 C 281.38182371689084,79.25955800717003 280.46147371689085,79.29519800717003 281.75970371689084,81.30103800717004 C 282.53915371689084,82.36699800717003 283.38871371689083,82.46475800717005 291.2226637168909,82.38997800717004 C 297.7139737168909,82.32817800717004 299.7597237168909,82.48867800717005 299.5461537168909,83.04353800717004 C 299.3426537168909,83.57245800717004 300.1032937168909,83.71952800717006 302.2526437168909,83.56675800717005 C 303.89695371689083,83.45001800717004 305.71665371689085,83.53795800717005 306.2964237168909,83.76218800717002 C 306.8762237168909,83.98668800717003 309.13620371689086,84.26445800717003 311.31866371689085,84.37975800717003 C 313.50109371689086,84.49511800717003 317.62175371689085,85.36147800717002 320.47572371689085,86.30520800717004 C 323.3296637168909,87.24894800717003 325.96273371689085,87.99754800717004 326.3269837168909,87.96879800717004 C 326.6980637168909,87.93949800717003 326.87002371689084,88.54012800717003 326.71809371689085,89.33488800717005 C 326.56350371689086,90.14377800717004 326.8692237168909,91.17545800717006 327.4294037168909,91.73572800717004 C 328.6321437168909,92.93846800717004 328.7027237168909,95.60367800717005 327.57476371689086,97.22624800717004 C 326.49894371689084,98.77385800717003 323.52804371689086,107.01633800717003 323.52804371689086,108.45349800717004 C 323.52804371689086,109.05767800717005 322.71761371689087,111.15868800717003 321.72710371689084,113.12239800717005 C 320.2745037168909,116.00217800717006 321.13618371689086,112.36297800717004 321.72710371689084,113.12239800717005 C 322.31022371689085,114.30867800717006 319.6110237168909,116.67101800717005 318.1039137168909,119.20472800717006 C 317.3938237168909,120.40818800717007 316.81287371689086,121.53505800717006 316.81287371689086,121.70888800717007 C 316.81287371689086,123.97334800717009 303.6698937168909,139.6370780071701 301.7698437168909,139.6370780071701 C 301.36974371689087,139.6370780071701 300.9507837168909,139.84519800717007 300.83885371689087,140.0994780071701 C 300.4887037168909,140.89511800717008 295.8381237168909,144.23169800717008 293.92020371689085,145.0632880071701 C 286.47899371689084,148.28969800717007 278.00103371689084,149.70186800717008 262.1757037168909,150.35095800717008 C 253.02461371689085,150.7262780071701 245.93097371689086,151.86115800717008 242.82366371689088,153.4469980071701 C 240.5662737168909,154.59906800717008 239.51422371689088,154.56533800717008 240.50408371689088,153.3726980071701 C 241.5806837168909,152.0754780071701 240.94355371689088,152.2378580071701 239.27345371689088,153.6863480071701 C 238.42827371689089,154.41936800717008 237.4029437168909,154.77189800717008 236.7338037168909,154.55951800717008 C 236.1165837168909,154.3636280071701 234.74721371689088,154.6345180071701 233.69078371689088,155.16157800717008 C 231.5050237168909,156.25194800717009 230.12615371689088,156.3938980071701 230.12615371689088,155.5284780071701 C 230.12615371689088,155.2032680071701 229.70456371689087,155.0989580071701 229.1893037168909,155.2966680071701 C 228.0480037168909,155.7346380071701 222.8005337168909,154.3399080071701 222.8005337168909,153.5985780071701 C 222.8005337168909,153.30647800717009 222.2673237168909,153.0674680071701 221.6156137168909,153.0674680071701 C 219.9423737168909,153.0674680071701 219.4884837168909,152.0112180071701 220.9608937168909,151.5438980071701 C 221.6376437168909,151.3290980071701 222.4809337168909,150.55386800717008 222.8348437168909,149.8211480071701 C 223.4134937168909,148.6232280071701 223.3924437168909,148.59498800717012 222.6262737168909,149.5409780071701 C 221.1572037168909,151.3546080071701 219.04036371689088,151.8033080071701 217.7267637168909,150.5795080071701 C 217.0483037168909,149.9474280071701 216.7590437168909,149.1859080071701 217.0305637168909,148.7466280071701 C 217.32744371689088,148.26624800717008 217.2426037168909,148.15111800717008 216.7953537168909,148.4275080071701 C 216.4105237168909,148.66531800717007 215.46221371689091,148.2265380071701 214.6879837168909,147.4521980071701 C 212.6731437168909,145.4373880071701 212.7676737168909,141.7037180071701 214.8644837168909,140.4782080071701 C 216.1771237168909,139.7110380071701 216.2056637168909,139.63598800717008 215.0684537168909,139.94176800717008 C 213.4318937168909,140.3818380071701 212.7309937168909,139.4268980071701 213.9487737168909,138.4162380071701 C 214.4450037168909,138.00438800717012 214.70048371689091,137.4238280071701 214.51648371689092,137.1261280071701 C 214.33259371689093,136.82841800717011 214.61018371689093,136.5848380071701 215.1336737168909,136.5848380071701 C 215.6571337168909,136.5848380071701 216.0854037168909,136.3101080071701 216.0854037168909,135.9743580071701 C 216.0854037168909,135.63859800717012 216.6262137168909,135.36389800717012 217.28717371689092,135.36389800717012 C 218.0542337168909,135.36389800717012 218.37279371689092,135.06119800717013 218.1678637168909,134.52713800717012 C 217.7059737168909,133.32344800717013 212.8971337168909,133.98212800717013 209.7540037168909,135.6795980071701 C 204.72064371689092,138.3978780071701 198.67578371689092,142.26946800717013 198.1988937168909,143.08035800717013 C 197.9303937168909,143.53689800717012 197.2960737168909,143.91044800717012 196.78930371689088,143.91044800717012 C 196.09211371689088,144.77856800717012 195.40802371689088,144.60175800717013 194.44598371689088,145.07931800717012 C 193.92061371689087,145.92938800717013 186.30038371689088,150.84133800717012 182.59060371689088,152.7212180071701 C 178.30116371689087,154.8948280071701 176.15493371689087,155.0073780071701 175.9881137168909,153.0674680071701 C 175.82406371689092,151.15865800717012 177.6958037168909,142.6895080071701 178.2818537168909,142.6895080071701 C 178.51980371689092,142.6895080071701 178.9012837168909,141.9453180071701 179.1295637168909,141.0357680071701 C 179.4945337168909,139.5816680071701 181.6180137168909,134.6215980071701 183.18770371689092,131.5567380071701 C 183.48631371689092,130.9737380071701 183.73060371689093,130.0945780071701 183.73060371689093,129.6030780071701 C 183.73060371689093,129.1115580071701 184.13285371689093,128.4842980071701 184.62449371689092,128.2091780071701 C 185.5475437168909,127.69259800717009 183.35283371689093,121.9163080071701 181.88999371689093,121.0121980071701 C 181.55929371689092,120.8077680071701 181.28874371689093,119.7289780071701 181.28874371689093,118.6147480071701 C 181.28874371689093,117.50051800717011 180.90363371689094,116.2692580071701 180.43292371689094,115.87863800717011 C 179.96224371689095,115.48798800717012 179.40757371689094,114.4928580071701 179.20035371689093,113.66724800717012 C 178.99316371689093,112.8416380071701 178.53791371689093,112.16610800717012 178.18875371689094,112.16610800717012 C 177.83956371689095,112.16610800717012 177.73112371689095,111.87931800717013 177.94775371689093,111.52878800717014 C 178.16441371689092,111.17826800717015 177.90345371689094,110.22266800717014 177.36777371689092,109.40516800717015 C 176.43097371689095,107.97543800717014 176.4533037168909,107.90398800717014 177.95444371689092,107.52720800717015 C 181.11196371689093,106.73472800717013 184.86428371689092,107.96667800717015 203.26558371689092,115.83719800717014 C 208.6660937168909,118.14708800717014 211.7054937168909,118.29560800717013 215.76165371689092,116.44781800717016 C 217.62447371689092,115.59920800717015 219.24951371689093,115.25606800717014 220.27812371689092,115.49414800717017 C 221.5471737168909,115.78784800717017 221.6923937168909,115.72395800717015 220.96915371689093,115.19051800717017 C 220.37210371689093,114.75009800717018 220.28885371689094,114.41731800717017 220.72996371689092,114.23425800717018 C 221.10203371689093,114.07990800717019 221.92617371689093,113.54897800717018 222.56136371689092,113.05457800717019 C 223.65974371689092,112.1996580071702 223.64158371689092,112.1662680071702 222.19007371689094,112.37226800717019 C 221.35069371689093,112.49131800717018 220.25184371689093,112.7638780071702 219.74821371689094,112.9777880071702 C 218.42725371689093,113.5388280071702 213.53775371689093,115.2184580071702 213.22551371689093,115.2184580071702 C 213.07992371689093,115.2184580071702 213.13091371689092,114.9437480071702 213.33833371689093,114.60799800717021 C 213.54576371689092,114.27223800717022 213.48369371689094,113.99750800717021 213.19990371689093,113.99750800717021 C 212.91629371689092,113.99750800717021 212.68422371689093,113.03601800717021 212.68422371689093,111.86087800717021 C 212.68422371689093,109.77350800717022 212.74102371689094,109.72403800717021 215.14791371689094,109.7148980071702 C 216.50291371689093,109.70989800717021 217.97823371689094,109.47314800717021 218.42635371689093,109.18906800717019 C 218.89802371689092,108.8900980071702 217.87032371689094,108.80430800717019 215.98582371689093,108.98533800717018 C 213.06937371689094,109.26557800717018 212.81387371689092,109.19760800717017 213.53127371689092,108.33329800717019 C 213.97166371689093,107.80264800717018 214.44430371689091,106.48113800717019 214.5815637168909,105.39661800717019 C 215.12601371689092,101.09450800717019 218.87278371689092,97.24561800717018 223.53626371689091,96.19779800717018 C 224.9617637168909,95.87751800717018 226.3039837168909,95.33083800717017 226.5189737168909,94.98298800717018 C 226.7340137168909,94.63511800717018 228.0173437168909,94.30702800717017 229.3709537168909,94.25388800717019 C 230.7245437168909,94.20058800717018 231.7067037168909,93.95123800717019 231.55355371689092,93.69942800717018 C 231.40034371689092,93.44760800717017 232.36721371689092,93.24156800717017 233.7020637168909,93.24156800717017 C 235.0534837168909,93.24156800717017 236.23783371689092,92.91536800717017 236.3744537168909,92.50552800717017 C 236.8445537168909,91.09519800717018 245.34626371689092,92.88315800717018 246.92910371689092,94.72523800717016 C 248.52396371689093,96.58128800717017 249.0506637168909,96.69378800717016 249.0506637168909,95.17838800717016 C 249.0506637168909,94.32123800717017 250.3379037168909,93.61525800717015 254.60862371689092,92.13010800717015 C 258.49870371689093,90.99501800717016 263.2850137168909,90.63277800717015 259.7439637168909,88.36312800717016 C 258.9101337168909,87.91687800717017 258.0674937168909,87.04631800717016 257.87142371689094,86.42856800717016 C 257.67530371689094,85.81080800717015 257.28855371689093,85.30537800717016 257.01189371689094,85.30537800717016 C 256.1646837168909,85.30537800717016 253.54116371689094,77.61752800717016 252.39096371689095,71.76441800717015 C 252.18492371689095,70.71600800717016 254.47619371689095,68.80657800717015 255.89694371689095,68.84265800717014 C 256.3284537168909,68.85415800717016 258.19241371689094,69.39407800717015 260.03908371689096,70.04366800717014 L 260.03915371689084,70.04369800717004" fill="none" stroke="#000000" stroke-width="0.152400000780112"/>
</svg>
