<?xml version="1.0" ?>
<svg xmlns="http://www.w3.org/2000/svg" xmlns:ev="http://www.w3.org/2001/xml-events" xmlns:xlink="http://www.w3.org/1999/xlink" baseProfile="full" height="536px" version="1.1" viewBox="62.13798587809465 51.25346621059215 133.9721444949998 119.49238889499998" width="600px">
	<defs/>
	<path d="M 156.81792962559447,74.17286465809232 L 156.81792962559447,74.17286465809232 L 156.81792962559447,74.17286465809232 L 156.81792962559447,74.17286465809232 L 157.55596662559446,74.24666465809233 L 157.85117262559447,74.24666465809233 L 158.10947462559446,74.13596465809232 L 158.33088062559446,73.95145465809233 L 158.55228362559447,73.73005465809234 L 158.81058662559445,73.58245465809233 L 159.21649362559447,73.58245465809233 L 159.62239962559448,73.73005465809234 L 159.80690362559446,73.98835465809233 L 159.88070362559446,74.28356465809233 L 159.84380362559446,74.61566465809233 L 159.80690362559446,74.87397465809232 L 159.91760562559446,75.13227465809231 L 160.10210762559447,75.27987465809233 L 160.36041262559445,75.35367465809233 L 160.54491362559446,75.39057465809233 L 160.84012062559447,75.39057465809233 L 161.17222562559448,75.31677465809233 L 161.46742862559447,75.16916465809234 L 161.76263462559447,74.94776465809235 L 162.24234262559446,74.87396465809235 L 162.57444762559447,74.94776465809235 L 162.86965162559446,75.13226465809237 L 163.01725462559446,75.42747465809236 L 163.12795662559446,75.83337465809237 L 163.09105662559446,76.20238465809237 L 163.09105662559446,76.53448465809237 L 163.09105662559446,77.05109465809238 L 163.23865962559447,77.42010465809238 L 163.42316462559447,77.75221465809238 L 163.79216862559446,78.2688146580924 L 163.93977162559446,78.3795146580924 L 164.19807662559447,78.49022465809242 L 164.53018162559445,78.41642465809241 L 164.89918762559444,78.23191465809242 L 165.23129262559445,78.08431465809241 L 165.48959762559446,78.12121465809241 L 165.67409962559447,78.23191465809242 L 165.78480062559444,78.52712465809242 L 165.74790062559444,78.82232465809241 L 165.74790062559444,79.11753465809241 L 165.89550062559445,79.4127346580924 L 166.15380562559443,79.6341446580924 L 166.63351362559445,79.7817446580924 L 166.96561862559446,79.81864465809241 L 167.26082162559445,79.7079446580924 L 167.48222762559445,79.56033465809242 L 167.74053062559446,79.56033465809242 L 167.96193362559447,79.59723465809242 L 168.18333662559445,79.7448446580924 L 168.36784162559445,79.89244465809242 L 168.44164162559446,80.18764465809241 L 168.40474162559445,80.51975465809241 L 168.40474162559445,80.88876465809241 L 168.40474162559445,81.1101646580924 L 168.47854162559446,81.33156465809239 L 168.66304362559447,81.55297465809238 L 168.88444762559448,81.77437465809237 L 169.14275162559446,81.92197465809238 L 169.40105662559446,82.06958465809237 L 169.65936162559447,82.10648465809237 L 169.99146662559446,82.06958465809237 L 170.28667062559447,81.95887465809236 L 170.65567662559448,81.88507465809235 L 171.02468262559447,81.95887465809236 L 171.31988662559445,81.99577465809236 L 171.46748962559445,82.18028465809235 L 171.50438962559446,82.51238465809234 L 171.39368762559445,82.73379465809234 L 171.31988762559445,82.99209465809233 L 171.28298762559444,83.25039465809232 L 171.31988762559445,83.58250465809232 L 171.46749062559445,83.98841465809232 L 171.68889362559446,84.24671465809232 L 171.91029762559447,84.35741465809232 L 172.20550362559447,84.54191465809234 L 172.53760862559446,84.50501465809234 L 172.90661462559444,84.32051465809232 L 173.31252062559446,84.28361465809232 L 173.57082462559447,84.35741465809232 L 173.71842762559447,84.57882465809232 L 173.79222762559445,84.8002246580923 L 173.79222762559445,85.0954246580923 L 173.71842762559447,85.3906346580923 L 173.60772662559447,85.68583465809229 L 173.46012362559446,85.90724465809228 L 173.23871962559446,86.38694465809229 L 173.20181962559445,86.64525465809228 L 173.20181962559445,86.94045465809228 L 173.20181962559445,87.23566465809228 L 173.34942262559446,87.56776465809227 L 173.49702562559446,87.86297465809227 L 173.71842862559447,88.19507465809227 L 174.01363262559445,88.41648465809226 L 174.30883862559446,88.49028465809226 L 174.64094362559445,88.52718465809227 L 174.97304862559446,88.52718465809227 L 175.30515362559444,88.52718465809227 L 175.56345862559445,88.52718465809227 L 175.82176362559446,88.56408465809227 L 176.08006562559444,88.71168465809228 L 176.08006562559444,88.96999465809228 L 175.89556362559443,89.26519465809227 L 175.74796062559446,89.48660465809226 L 175.63725862559446,89.63420465809227 L 175.52655762559445,89.85560465809226 L 175.60035762559446,90.04010465809228 L 175.74796062559443,90.26151465809227 L 176.04316662559444,90.40911465809228 L 176.26456962559445,90.63051465809227 L 176.48597362559445,90.77811465809228 L 176.70737662559446,90.88882465809229 L 177.03948162559445,90.92572465809229 L 177.33468562559443,90.92572465809229 L 177.59298962559444,90.92572465809229 L 177.85129462559445,91.0364246580923 L 177.88819462559445,91.4054246580923 L 177.77749262559445,91.6637346580923 L 177.70369262559444,91.92203465809229 L 177.51919062559443,92.18034465809228 L 177.44539062559446,92.47554465809228 L 177.40849062559445,92.84455465809228 L 177.48229062559443,93.17665465809227 L 177.59299162559444,93.28736465809229 L 177.70369362559444,93.4718646580923 L 177.70369362559444,93.7670646580923 L 177.81439562559444,93.9146646580923 L 178.10960162559445,93.9146646580923 L 178.47860762559446,93.9146646580923 L 178.81071262559445,93.8408646580923 L 179.06901762559446,93.8408646580923 L 179.40112262559444,93.95157465809231 L 179.54872362559445,94.1729746580923 L 179.51182362559445,94.5050746580923 L 179.17971862559443,94.9109846580923 L 178.99521362559443,95.1323946580923 L 178.99521362559443,95.42759465809229 L 179.03211362559443,95.79660465809229 L 179.06901362559444,96.12870465809229 L 179.21661462559445,96.38701465809228 L 179.36421762559445,96.64531465809227 L 179.77012262559444,96.82981465809229 L 180.17603062559445,96.9405146580923 L 180.50813562559443,96.9405146580923 L 180.95094162559445,96.82981465809229 L 181.31994862559446,96.71911465809228 L 181.68895462559445,96.71911465809228 L 182.05796162559443,96.94051465809227 L 182.20556162559444,97.23572465809225 L 182.16866162559444,97.60473465809226 L 181.87345562559443,97.97373465809225 L 181.54135062559445,98.19513465809224 L 181.09854462559446,98.45344465809224 L 180.76643962559444,98.67484465809223 L 180.36053162559443,99.15455465809224 L 180.02842662559445,99.70806465809223 L 179.88082562559444,100.22467465809221 L 179.80702562559446,100.66747465809222 L 179.80702562559446,100.92578465809221 L 180.10223262559447,100.96268465809221 L 180.50813762559446,100.96268465809221 L 181.13544862559445,100.92578465809221 L 181.61515662559447,100.8519846580922 L 181.98416062559448,100.8519846580922 L 182.31626562559447,100.7781846580922 L 182.61147162559448,100.66747465809219 L 182.98047762559446,100.63057465809219 L 183.34948462559447,100.63057465809219 L 183.60778662559449,100.7412746580922 L 183.71848862559446,100.96268465809219 L 183.71848862559446,101.29479465809219 L 183.6815886255945,101.58999465809218 L 183.53398562559448,101.95900465809218 L 183.23878162559447,102.25420465809218 L 182.83287362559446,102.40180465809219 L 182.35316562559447,102.58631465809218 L 181.94726062559448,102.88151465809217 L 181.65205462559447,103.10291465809216 L 181.43065162559446,103.39812465809216 L 181.39375162559446,103.61952465809215 L 181.39375162559446,103.87782465809214 L 181.61515762559446,104.13613465809213 L 181.76275862559447,104.32063465809215 L 182.02106262559448,104.43134465809216 L 182.57457162559447,104.57894465809217 L 182.98047862559446,104.65274465809217 L 183.27568262559447,104.72654465809218 L 183.42328562559447,104.94794465809217 L 183.46018562559448,105.20625465809216 L 183.38638562559447,105.46455465809215 L 183.20188362559446,105.75976465809215 L 182.98047962559446,106.01806465809214 L 182.72217562559447,106.27637465809214 L 182.57457262559447,106.46087465809215 L 182.5007726255945,106.68227465809214 L 182.4269726255945,107.01438465809214 L 182.4638726255945,107.38338465809214 L 182.5007726255945,107.67859465809214 L 182.68527462559447,107.93689465809213 L 182.94357962559448,108.12139465809214 L 183.20188462559446,108.26900465809213 L 183.42328762559447,108.34280465809213 L 183.68159262559448,108.34280465809213 L 184.12439962559446,108.34280465809213 L 184.23510062559447,108.63800465809213 L 184.19820062559447,108.93321465809213 L 184.0136986255945,109.15461465809211 L 183.68159362559447,109.33911465809213 L 183.23878662559446,109.59742465809212 L 183.01738062559448,109.96642465809212 L 182.94358062559448,110.55683465809211 L 182.94358062559448,110.96274465809212 L 183.01738062559448,111.33175465809212 L 183.09118062559446,111.47935465809213 L 183.31258362559447,111.66385465809215 L 183.60778762559448,111.73765465809215 L 183.97679362559447,111.84836465809217 L 184.23509862559447,111.84836465809217 L 184.53030262559446,111.99596465809218 L 184.64100362559446,112.32806465809217 L 184.56720362559446,112.62327465809217 L 184.41960062559446,112.88157465809216 L 184.12439762559447,113.06607465809218 L 183.79229262559448,113.21368465809216 L 183.38638462559447,113.47198465809215 L 183.01737762559446,113.73028465809215 L 182.64837362559447,114.02549465809214 L 182.46386962559447,114.28379465809213 L 182.42696962559447,114.50520465809213 L 182.42696962559447,114.76350465809212 L 182.42696962559447,114.98491465809211 L 182.50076962559447,115.2801146580921 L 182.57456962559448,115.5384146580921 L 182.75907362559445,115.79672465809209 L 182.98047662559446,116.01812465809208 L 183.34948362559447,116.16572465809209 L 183.71848762559446,116.16572465809209 L 184.01369362559447,116.09192465809208 L 184.19819562559445,115.98122465809207 L 184.41959862559446,115.94432465809207 L 184.64100162559447,116.01812465809208 L 184.78860562559447,116.16572465809209 L 184.86240562559448,116.46093465809209 L 184.89930562559448,116.75613465809208 L 184.86240562559448,117.05134465809208 L 184.71480262559447,117.45724465809208 L 184.41959662559447,117.78935465809208 L 184.19819362559446,118.04765465809207 L 183.86608862559447,118.41666465809207 L 183.64468462559446,118.82257465809208 L 183.60778462559446,119.08087465809207 L 183.60778462559446,119.33918465809207 L 183.64468462559446,119.74508465809207 L 183.71848462559447,119.96649465809206 L 183.93988762559445,120.22479465809205 L 184.08749062559446,120.40929465809207 L 184.12439062559446,120.63070465809206 L 184.08749062559446,120.92590465809205 L 183.86608762559447,121.11040465809207 L 183.57088362559446,121.25800465809208 L 183.16497562559448,121.40561465809206 L 182.64836862559446,121.59011465809208 L 182.42696562559448,121.73771465809209 L 182.24246162559447,121.92222465809208 L 182.16866162559447,122.21742465809207 L 182.16866162559447,122.51263465809207 L 182.16866162559447,122.80783465809206 L 182.31626262559448,123.06614465809206 L 182.50076662559448,123.17684465809207 L 182.75907162559446,123.39824465809205 L 182.90667262559447,123.58274465809207 L 182.90667262559447,123.91485465809207 L 182.79597062559446,124.13625465809206 L 182.57456762559448,124.39456465809205 L 182.39006562559447,124.54216465809206 L 182.0948596255945,124.61596465809207 L 181.72585562559448,124.61596465809207 L 181.43064962559447,124.68976465809207 L 181.24614762559446,124.98497465809207 L 181.13544562559449,125.24327465809206 L 181.13544562559449,125.50157465809205 L 181.20924562559446,125.75988465809205 L 181.31994762559447,125.98128465809204 L 181.61515362559447,126.23958465809203 L 181.83655662559448,126.31338465809203 L 182.13176062559447,126.42408465809204 L 182.39006562559447,126.57168465809205 L 182.57456762559445,126.71928465809206 L 182.68526862559446,126.94069465809206 L 182.68526862559446,127.30969465809206 L 182.53766862559448,127.53110465809205 L 182.24246262559447,127.78940465809204 L 181.9472586255945,127.93700465809205 L 181.57825262559447,128.04771465809208 L 181.20924562559446,128.15841465809208 L 180.91404262559448,128.2322146580921 L 180.61883562559447,128.3798146580921 L 180.47123262559447,128.6012146580921 L 180.3974326255945,128.85952465809208 L 180.43433262559446,129.15472465809208 L 180.54503362559447,129.56063465809208 L 180.76643762559448,129.78203465809207 L 181.02474162559446,130.00344465809206 L 181.28304362559447,130.15104465809205 L 181.54134862559448,130.26174465809206 L 181.7627526255945,130.44624465809204 L 181.91035562559446,130.66765465809206 L 181.94725562559447,130.92595465809205 L 181.8734556255945,131.18426465809205 L 181.68895362559448,131.33186465809206 L 181.43064962559447,131.40566465809206 L 181.09854462559446,131.40566465809206 L 180.80334062559447,131.36876465809206 L 180.3605316255945,131.33186465809206 L 179.99152762559447,131.44256465809204 L 179.62252062559446,131.55326465809205 L 179.32731462559445,131.70086465809203 L 179.03211162559447,131.92227465809205 L 178.95831162559446,132.18057465809204 L 178.95831162559446,132.40197465809206 L 179.03211162559447,132.62338465809205 L 179.25351462559448,132.73408465809206 L 179.54871862559446,132.95548465809205 L 179.80702262559447,133.17689465809207 L 179.99152762559447,133.36139465809205 L 180.06532762559448,133.65659465809205 L 179.88082562559447,133.87800465809207 L 179.65941962559447,134.02560465809205 L 179.25351462559448,134.09940465809206 L 178.33099962559447,134.06250465809205 L 177.26088162559446,134.02560465809205 L 176.78117362559448,134.09940465809206 L 176.48597062559446,134.24700465809207 L 176.22766562559445,134.46841465809206 L 176.04316362559447,134.72671465809208 L 175.96936362559447,134.94812465809207 L 175.89556362559446,135.1695246580921 L 175.93246362559447,135.46473465809208 L 176.11696562559447,135.64923465809207 L 176.33836962559448,135.9075346580921 L 176.59667362559446,136.2027446580921 L 176.78117562559447,136.42414465809208 L 176.89187762559447,136.6086446580921 L 176.92877762559448,137.0145546580921 L 176.89187762559447,137.3466546580921 L 176.7442776255945,137.53116465809208 L 176.4490706255945,137.53116465809208 L 175.9693626255945,137.49426465809208 L 175.7848606255945,137.49426465809208 L 175.52655662559448,137.6049646580921 L 175.26825162559447,137.90016465809208 L 175.08374962559446,138.15847465809208 L 174.82544462559449,138.52747465809207 L 174.75164462559448,138.74888465809207 L 174.75164462559448,139.11788465809207 L 174.78854462559448,139.3392946580921 L 174.8623446255945,139.48689465809207 L 175.00994762559446,139.7082946580921 L 175.26824962559448,139.96660465809208 L 175.4896526255945,140.22490465809207 L 175.45275262559448,140.52011465809207 L 175.23134962559448,140.63081465809208 L 175.04684462559447,140.66771465809208 L 174.86234362559446,140.85221465809207 L 174.78854362559449,141.14742465809206 L 174.56713962559448,141.25812465809207 L 174.1612346255945,141.29502465809207 L 173.82912962559448,141.18432465809207 L 173.60772662559447,141.03672465809208 L 173.4601236255945,140.85221465809207 L 173.23871962559448,140.7415146580921 L 172.94351362559448,140.70461465809208 L 172.6852116255945,140.70461465809208 L 172.39000562559448,140.70461465809208 L 172.16860162559448,140.70461465809208 L 171.8733986255945,140.7784146580921 L 171.7257956255945,140.96291465809207 L 171.65199562559448,141.1474246580921 L 171.61509562559448,141.40572465809208 L 171.5043946255945,141.6640246580921 L 171.3567906255945,141.7747346580921 L 171.2829906255945,141.9961346580921 L 171.2829906255945,142.2913346580921 L 171.3936926255945,142.5865446580921 L 171.54129262559448,142.80794465809208 L 171.6519976255945,143.0293546580921 L 171.6888976255945,143.3245546580921 L 171.5412946255945,143.5828646580921 L 171.2460916255945,143.69356465809207 L 170.9508876255945,143.69356465809207 L 170.1021736255945,143.5828646580921 L 169.9545706255945,143.6197646580921 L 169.8069666255945,143.8411746580921 L 169.5855636255945,144.13637465809208 L 169.40106162559448,144.3208846580921 L 169.1796586255945,144.3946846580921 L 169.0320556255945,144.4315846580921 L 169.0320556255945,144.8005846580921 L 169.1427566255945,144.9850946580921 L 169.2903606255945,145.2802946580921 L 169.2903606255945,145.5755046580921 L 169.2903606255945,145.90760465809208 L 169.1427566255945,146.1290146580921 L 168.8844526255945,146.1290146580921 L 168.66304862559448,146.0552146580921 L 168.4785466255945,145.9445146580921 L 168.4047466255945,145.7969146580921 L 168.18334062559447,145.7969146580921 L 167.85123562559448,145.7231146580921 L 167.48223162559447,145.6493146580921 L 167.22392762559446,145.6493146580921 L 167.00252362559448,145.7231146580921 L 166.81801962559447,145.87071465809208 L 166.63351762559446,146.0552146580921 L 166.41211462559448,146.2397246580921 L 166.26451162559448,146.3873246580921 L 166.3752126255945,146.6087346580921 L 166.55971462559447,146.7932346580921 L 166.67041862559446,147.0515346580921 L 166.5966186255945,147.27294465809211 L 166.4490146255945,147.34674465809212 L 166.19071262559447,147.4574446580921 L 166.04310962559447,147.5312446580921 L 165.82170662559446,147.4943446580921 L 165.71100462559446,147.4205446580921 L 165.56340162559448,147.3836446580921 L 165.34199862559447,147.3098446580921 L 165.08369362559446,147.1253446580921 L 164.93609362559448,147.0884446580921 L 164.75158862559448,147.1622446580921 L 164.60398562559448,147.3836546580921 L 164.49328362559447,147.5312546580921 L 164.34568362559446,147.6419546580921 L 164.41948362559447,147.8264546580921 L 164.53018562559447,148.0847646580921 L 164.45638562559446,148.3061646580921 L 164.12428062559448,148.3430646580921 L 163.7552746255945,148.26926465809208 L 163.42316962559448,148.1216646580921 L 163.01726162559447,147.8264546580921 L 162.6482556255945,147.5312546580921 L 162.3530516255945,147.4943546580921 L 162.0578456255945,147.5312546580921 L 161.9471436255945,147.7157546580921 L 161.9840436255945,147.93716465809212 L 162.0578436255945,148.01096465809212 L 162.20544662559448,148.1216646580921 L 162.31614862559448,148.2323646580921 L 162.27924862559448,148.4906646580921 L 162.1316486255945,148.63827465809212 L 162.0578486255945,148.4906646580921 L 161.98404862559448,148.37996465809212 L 161.79954662559447,148.30616465809211 L 161.57814062559447,148.2692646580921 L 161.54124062559447,148.4906646580921 L 161.3198376255945,148.63827465809212 L 161.06153262559448,148.63827465809212 L 160.6556246255945,148.4906646580921 L 159.88071262559447,147.93716465809212 L 158.62609362559448,146.94084465809212 L 157.66667662559448,146.20283465809212 L 157.2607716255945,146.0552246580921 L 157.00246662559448,146.0552246580921 L 156.78106362559447,145.9814246580921 L 156.44895862559449,145.6862246580921 L 156.19065362559448,145.4648146580921 L 155.8585486255945,145.3541146580921 L 155.6740446255945,145.2803146580921 L 155.48954262559448,145.0958146580921 L 155.23123762559447,145.0958146580921 L 155.0467356255945,145.3172146580921 L 154.9360346255945,145.6124246580921 L 154.9360346255945,145.9814246580921 L 154.9729346255945,146.4242346580921 L 155.0467346255945,146.7932446580921 L 155.19433762559447,147.1622446580921 L 155.52644262559448,147.5312546580921 L 155.9323486255945,147.9002546580921 L 156.5596596255945,148.2692646580921 L 157.2238696255945,148.63827465809212 L 158.0356826255945,148.8965746580921 L 158.8843966255945,149.1548846580921 L 159.40100362559448,149.33938465809211 L 159.7700106255945,149.5607846580921 L 160.02831562559447,149.6345846580921 L 160.24971862559448,149.74528465809212 L 160.28661862559449,149.9297946580921 L 160.24971862559448,150.07739465809212 L 160.06521662559447,150.2249946580921 L 159.6962106255945,150.2618946580921 L 158.8843966255945,150.11429465809212 L 158.0356826255945,149.8928946580921 L 157.5190756255945,149.74528465809212 L 157.07626662559449,149.6345846580921 L 156.4858566255945,149.6345846580921 L 155.8585476255945,149.6714846580921 L 155.45264062559448,149.70838465809211 L 155.1205356255945,149.78218465809212 L 154.82533162559452,149.89289465809213 L 154.6408266255945,150.04049465809211 L 154.3456236255945,150.3356946580921 L 154.0873186255945,150.6309046580921 L 153.7921156255945,150.9999146580921 L 153.6814136255945,151.3320146580921 L 153.6814136255945,151.6641246580921 L 153.82901362559448,151.9593246580921 L 154.0135186255945,152.18072465809212 L 154.4194236255945,152.51283465809212 L 154.9360336255945,152.84494465809212 L 155.37883962559448,153.1401446580921 L 155.7847476255945,153.50915465809211 L 156.04304962559448,153.7305546580921 L 156.19065262559448,153.91505465809212 L 156.19065262559448,154.1364646580921 L 156.00615062559447,154.24716465809212 L 155.7478466255945,154.24716465809212 L 155.37883962559448,154.21026465809211 L 154.93603362559446,153.95195465809212 L 154.45632562559447,153.61985465809212 L 154.1242206255945,153.36154465809213 L 153.75521362559448,153.21394465809212 L 153.38620762559447,153.06634465809213 L 153.05410262559448,152.91874465809212 L 152.72199762559447,152.88184465809212 L 152.3160896255945,152.99255465809213 L 151.91018462559447,153.14015465809211 L 151.57807962559448,153.36155465809213 L 151.28287262559448,153.61986465809213 L 151.0245706255945,153.91506465809212 L 150.76626562559449,154.17337465809211 L 150.65556462559448,154.4316746580921 L 150.65556462559448,154.68997465809213 L 150.69246462559448,154.98518465809212 L 150.8769686255945,155.2065846580921 L 151.43047662559448,155.4648946580921 L 152.20538862559448,155.7600946580921 L 152.5005946255945,155.94459465809211 L 152.7588996255945,156.1660046580921 L 152.8326996255945,156.38740465809212 L 152.6850966255945,156.68261465809212 L 152.27919162559448,156.71951465809212 L 151.3566766255945,156.42430465809213 L 150.2865586255945,156.05530465809213 L 149.5854476255945,155.8338946580921 L 148.9581366255945,155.72319465809213 L 148.40462762559451,155.64939465809212 L 147.7404176255945,155.68629465809212 L 147.2976116255945,155.8338946580921 L 146.89170362559452,156.1291046580921 L 146.5226966255945,156.4612046580921 L 146.3381956255945,156.68261465809212 L 146.1536936255945,157.01471465809212 L 146.0060906255945,157.42062465809212 L 146.1905916255945,157.6420246580921 L 146.5595986255945,157.9372346580921 L 146.8179036255945,158.19553665809212 L 146.92860462559452,158.3800386580921 L 146.96550462559452,158.6014416580921 L 146.7441006255945,158.71214365809212 L 146.33819362559453,158.74904365809212 L 145.96918662559452,158.60144065809212 L 145.60018062559453,158.3431356580921 L 145.23117662559451,158.0848346580921 L 144.8621706255945,157.8634246580921 L 144.5669636255945,157.7527246580921 L 144.3086616255945,157.7527246580921 L 143.93965562559453,157.7896246580921 L 143.71825162559452,157.9003346580921 L 143.4599476255945,158.1586336580921 L 143.2385436255945,158.4169386580921 L 143.2016436255945,158.6383426580921 L 143.2016436255945,158.8597456580921 L 143.3492466255945,159.0811486580921 L 143.6075516255945,159.3394536580921 L 143.82895462559452,159.5977556580921 L 143.9765556255945,159.7822606580921 L 143.9396556255945,159.9667626580921 L 143.7182516255945,160.0036626580921 L 143.3492456255945,160.0036626580921 L 143.0171406255945,159.9667626580921 L 142.6850356255945,159.8191616580921 L 141.9839246255945,159.41325365809212 L 141.3566126255945,159.0811486580921 L 140.7293016255945,158.82284365809213 L 140.1388946255945,158.6383426580921 L 140.1388946255945,158.6383426580921 L 139.8436886255945,158.5645426580921 L 139.3270816255945,158.4907426580921 L 139.0687766255945,158.4907426580921 L 138.77357062559452,158.5645426580921 L 138.4045666255945,158.7490466580921 L 138.1831606255945,158.97045065809212 L 138.0355606255945,159.19185365809213 L 137.8141566255945,159.30255565809213 L 137.6665536255945,159.37635565809214 L 137.8141566255945,159.63466065809214 L 138.0355606255945,159.92986665809212 L 138.2200626255945,160.15126965809213 L 138.2938626255945,160.40957165809212 L 138.1831606255945,160.66787665809213 L 137.9248586255945,160.74167665809213 L 137.6296526255945,160.66787665809213 L 137.33444862559452,160.52027365809212 L 137.0392426255945,160.2250696580921 L 136.48573462559452,159.70846065809212 L 136.00602662559453,159.3025556580921 L 135.71082262559452,159.0811516580921 L 135.34181662559453,158.8966476580921 L 134.97280962559452,158.7490466580921 L 134.64070462559454,158.7121466580921 L 134.23479962559452,158.7490466580921 L 133.9764946255945,158.8966476580921 L 133.71819062559453,158.9704476580921 L 133.45988562559452,159.0073476580921 L 133.20158062559452,159.1180496580921 L 133.0908786255945,159.1918496580921 L 133.0539786255945,159.3394526580921 L 133.12777862559452,159.52395465809212 L 133.23847962559452,159.67155765809213 L 133.31227962559453,159.8560596580921 L 133.16467862559455,160.07746265809212 L 132.79567262559453,160.11436265809212 L 132.46356762559455,160.00366065809212 L 131.79935762559455,159.33945065809212 L 130.13882962559455,157.71582465809212 L 129.73292162559454,157.34682465809212 L 129.40081662559456,157.1254146580921 L 129.06871162559455,156.9409146580921 L 128.62590562559456,156.8302146580921 L 128.18309862559454,156.8302146580921 L 127.74029162559454,156.8302146580921 L 127.44508562559454,156.9040146580921 L 127.44508562559454,157.12541465809213 L 127.33438362559454,157.45752465809213 L 127.18678062559454,157.6051246580921 L 126.85467562559454,157.6051246580921 L 126.59637162559454,157.42062465809212 L 126.00596362559455,156.71951465809212 L 124.67754162559454,155.2065846580921 L 123.53362362559454,153.87816465809212 L 123.16461662559455,153.50916465809212 L 122.86941362559455,153.14015465809211 L 122.61110862559454,152.95565465809213 L 122.27900362559454,152.84495465809212 L 121.90999762559454,152.84495465809212 L 121.65169262559454,152.88185465809212 L 121.50408962559453,153.06636465809214 L 121.35648862559454,153.21396465809212 L 121.09818362559454,153.25086465809213 L 120.80297762559455,152.91876465809213 L 120.10186862559455,151.88554465809216 L 119.43765662559454,150.77852465809212 L 118.92104962559455,149.78220465809216 L 118.36753862559455,148.67519465809215 L 117.96163362559454,147.71577465809213 L 117.62952862559455,146.90396465809215 L 117.40812462559454,146.35045465809213 L 117.26052162559454,145.90764465809215 L 117.11291862559453,145.35413465809216 L 116.89151562559454,144.91133465809213 L 116.74391262559453,144.68992465809214 L 116.55941062559454,144.50542465809212 L 116.33800762559454,144.43162465809212 L 116.00590262559454,144.43162465809212 L 115.67379762559455,144.43162465809212 L 115.48929262559454,144.32092465809214 L 115.30479062559455,143.98881465809214 L 114.93578462559455,143.14010465809213 L 114.67747962559454,142.29138465809214 L 114.45607662559455,141.40577465809213 L 114.30847562559455,140.26185465809215 L 114.19777162559456,139.11793465809214 L 114.16087162559455,137.49431465809215 L 114.12397162559455,135.94448465809214 L 114.12397162559455,135.20647465809213 L 114.16087162559455,134.65296465809215 L 114.16087162559455,134.28396465809215 L 114.19777162559456,133.87805465809214 L 114.27157162559456,133.54594465809214 L 114.34537162559457,133.21384465809214 L 114.30847162559456,132.88173465809214 L 114.30847162559456,132.51273465809214 L 114.27157162559456,132.29132465809212 L 114.12396862559456,131.95922465809213 L 113.86566362559455,131.73781465809213 L 113.68116162559456,131.66401465809213 L 113.64426162559455,131.25811465809213 L 113.71806162559456,130.88910465809212 L 113.79186162559456,130.48320465809212 L 113.90256262559457,130.22489465809213 L 114.16086762559456,129.67138465809214 L 114.28367362559456,129.32062465809213 L 114.63408962559456,128.76777465809215 M 114.63409062559455,128.76782465809214 L 114.63409062559455,128.76782465809214 L 114.63409062559455,128.76782465809214 M 114.63408962559456,128.76777465809215 L 113.25542762559455,128.82767465809215 L 111.27735062559455,128.88757465809215 L 108.63990062559455,129.00746465809215 L 105.58287062559455,129.06736465809215 L 103.90450062559455,129.12726465809214 L 102.52583062559455,129.12726465809214 L 100.90740062559455,129.00738465809215 L 100.18810062559454,128.88749465809215 L 99.40886062559454,128.76761465809216 L 98.26996062559454,128.52784465809216 L 96.95124062559454,128.10825465809216 L 95.75240062559453,127.80854465809216 L 94.73339062559454,127.50883465809216 L 93.11496062559453,126.90941465809215 L 91.49653062559453,126.31000465809214 L 90.11787062559453,125.77052465809214 L 88.85909062559453,125.23104465809215 L 87.30060062559453,124.39186465809215 L 86.16171062559452,123.61261465809216 L 85.62223062559453,123.31290465809215 L 85.14269062559453,123.07314465809216 L 84.12368062559453,122.47372465809215 L 83.10467062559454,121.81436465809216 L 81.72601062559454,120.91523465809215 L 80.64706062559455,120.07604465809214 L 80.28740062559456,119.95616465809215 L 79.62804062559456,119.65645465809214 L 79.26839062559458,119.35674465809214 L 78.78886062559457,119.17691465809213 L 78.30932062559458,118.87720465809213 L 77.51858062559458,118.23199465809213 L 77.22337062559458,117.97368465809214 L 77.0019706255946,117.75228465809215 L 76.81747062559458,117.60468465809214 L 76.52226062559458,117.45707465809215 L 76.26396062559459,117.38327465809215 L 75.9687506255946,117.38327465809215 L 75.6366506255946,117.38327465809215 L 75.45214062559461,117.38327465809215 L 75.3783406255946,117.30947465809214 L 75.3414406255946,117.01427465809215 L 75.3414406255946,116.64526465809215 L 75.3045406255946,116.31316465809215 L 75.23074062559459,116.05485465809215 L 75.2676406255946,115.75965465809216 L 75.3783406255946,115.53824465809217 L 75.4152406255946,115.16924465809217 L 75.08314062559461,115.27994465809218 L 74.82483062559461,115.31684465809218 L 74.45583062559461,115.31684465809218 L 74.12372062559461,115.27994465809218 L 73.82852062559462,115.24304465809217 L 73.60711062559463,115.16924465809217 L 73.38571062559464,114.98474465809215 L 73.34881062559464,114.68953465809216 L 73.38571062559464,114.32052465809215 L 73.53331062559465,114.02532465809216 L 73.71782062559464,113.69321465809216 L 74.12372062559464,113.28731465809216 L 75.08314062559464,112.54930465809215 L 75.45214062559464,112.21719465809215 L 75.89495062559465,111.88508465809215 L 76.22706062559465,111.44228465809215 L 76.41156062559466,111.44228465809215 L 76.74367062559466,111.44228465809215 L 77.29717062559467,111.33158465809214 L 77.77688062559469,111.11017465809215 L 78.77320062559468,110.55666465809216 L 81.3562406255947,109.41275465809215 L 82.7584606255947,108.71163465809215 L 83.64408062559468,108.34263465809215 L 84.34519062559468,108.12122465809216 L 85.04630062559468,107.97362465809215 L 85.82121062559469,107.82602465809214 L 86.81753062559469,107.71532465809213 L 87.07583062559469,107.30941465809212 L 87.22343062559469,106.90350465809212 L 87.40794062559469,106.64520465809213 L 87.74004062559469,106.23929465809212 L 87.9614506255947,105.94409465809213 L 88.07215062559469,105.83339465809212 L 88.36735062559468,105.83339465809212 L 88.62566062559468,105.94409465809213 L 88.77326062559467,106.01789465809213 L 88.95776062559467,106.05479465809213 L 89.28987062559467,106.05479465809213 L 89.80648062559467,106.05479465809213 L 90.06478062559468,106.20239465809215 L 90.28618062559468,106.42380465809214 L 90.61829062559468,106.57140465809215 L 90.65519062559468,106.75590465809216 L 90.91349062559469,106.75590465809216 L 91.2825006255947,106.75590465809216 L 91.61460062559469,106.64520465809215 L 92.09431062559469,106.46070465809214 L 92.27882062559469,106.20239465809215 L 92.3157206255947,105.83339465809215 L 92.24192062559469,105.50128465809215 L 91.72531062559469,104.61567465809213 L 90.80280062559468,103.32415465809214 L 90.50760062559469,102.95514465809214 L 90.2492906255947,102.65994465809214 L 90.2123906255947,102.40163465809215 L 90.2123906255947,101.99573465809215 L 90.35999062559469,94.39420465809215 L 90.28619062559468,90.63034465809216 L 90.28619062559468,90.33514465809216 L 90.35999062559469,89.92923465809216 L 90.50760062559469,89.37572465809217 L 91.02420062559469,86.68198465809218 L 91.35631062559469,84.65245465809218 L 91.54081062559469,83.98824465809219 L 91.87292062559469,82.99192465809219 L 92.42643062559469,81.3682946580922 L 92.5002306255947,81.14689465809221 L 92.6478306255947,80.59338465809222 L 92.6847306255947,80.22438465809222 L 92.79543062559469,79.81847465809221 L 93.2013406255947,78.78525465809221 L 93.6072506255947,77.78894465809222 L 93.82865062559469,77.23543465809223 L 94.3083606255947,76.31291465809224 L 95.12017062559468,75.09519465809223 L 95.45228062559468,74.50478465809223 L 95.89508062559469,73.54537465809224 L 96.0795906255947,73.13946465809224 L 96.22719062559469,72.88116465809225 L 96.52239062559468,72.69665465809226 L 96.7438006255947,72.80736465809227 L 96.7438006255947,73.17636465809227 L 96.55928062559468,73.65623465809227 L 96.4116806255947,73.91453465809226 L 96.33788062559469,74.17284465809226 L 95.89507062559468,75.13225465809225 L 95.4522606255947,76.12857465809225 L 95.23086062559469,76.75588465809224 L 94.93566062559469,77.64149465809226 L 94.86186062559469,77.97360465809226 L 94.8618606255947,78.37950465809226 L 94.8618606255947,78.56401465809225 L 94.9725606255947,78.74851465809226 L 95.12016062559469,78.78541465809226 L 95.30466062559469,78.78541465809226 L 95.5260706255947,78.71161465809226 L 95.82127062559469,78.41640465809226 L 96.19028062559468,77.75219465809226 L 96.66998062559469,76.71898465809227 L 97.11279062559467,75.87026465809228 L 97.29729062559468,75.61196465809229 L 97.44490062559467,75.46436465809228 L 97.59250062559468,75.39056465809227 L 97.77700062559467,75.42746465809228 L 97.85080062559467,75.53816465809228 L 97.88770062559468,75.83336465809228 L 97.74010062559469,76.09167465809227 L 97.55560062559468,76.31307465809226 L 97.51870062559468,76.49757465809228 L 97.55560062559468,76.75588465809227 L 97.59250062559468,76.94038465809228 L 97.74010062559469,77.19868465809228 L 98.03531062559469,76.38687465809227 L 98.36741062559469,75.64886465809226 L 98.84712062559467,74.65254465809227 L 99.21613062559467,73.91453465809226 L 99.36373062559468,73.54552465809226 L 99.47443062559466,73.36102465809225 L 99.65893062559468,73.17652465809223 L 99.76963062559466,73.17652465809223 L 99.80653062559466,73.21342465809224 L 99.91724062559467,73.39792465809225 L 99.88034062559467,73.61933465809224 L 99.73273062559466,73.80383465809226 L 99.58513062559467,74.13593465809225 L 99.43753062559466,74.43114465809225 L 99.40063062559466,74.57874465809226 L 99.36373062559467,75.02155465809227 L 99.40063062559467,75.39055465809227 L 99.51133062559467,75.83336465809228 L 99.65893062559466,75.42746465809228 L 99.80653062559466,75.16915465809228 L 99.99104062559466,75.02155465809227 L 100.17554062559466,75.02155465809227 L 100.32314062559466,75.02155465809227 L 100.39694062559467,75.16915465809228 L 100.39694062559467,75.42746465809228 L 100.47074062559467,75.53816465809228 L 100.65524062559467,75.61196465809229 L 100.83974062559467,75.61196465809229 L 100.98734062559467,75.50126465809228 L 101.13495062559467,75.24295465809229 L 101.35635062559467,74.76324465809228 L 101.65155062559467,73.87763465809226 L 101.87296062559466,73.36102465809228 L 101.94676062559468,73.17652465809226 L 102.05746062559467,72.91821465809227 L 102.24196062559466,72.65991465809228 L 102.35267062559467,72.62301465809227 L 102.50027062559465,72.62301465809227 L 102.68477062559467,72.69681465809228 L 102.79547062559465,72.84441465809229 L 102.79547062559466,73.06582465809228 L 102.75857062559466,73.39792465809228 L 102.75857062559466,73.65623465809227 L 102.79547062559466,73.84073465809229 L 102.94308062559466,73.9883346580923 L 103.12758062559466,73.9883346580923 L 103.27518062559466,73.9514346580923 L 103.42278062559465,73.80383465809228 L 103.49658062559466,73.5824346580923 L 103.71799062559467,73.10272465809228 L 103.86559062559466,72.8813146580923 L 103.97629062559466,72.69681465809228 L 104.12389062559465,72.58611465809227 L 104.34530062559466,72.47541465809226 L 104.56670062559466,72.47541465809226 L 104.75120062559466,72.62301465809227 L 104.75120062559466,72.80751465809229 L 104.71430062559466,73.02892465809228 L 104.71430062559466,73.2134246580923 L 104.82501062559466,73.3241246580923 L 104.97261062559465,73.3241246580923 L 105.12021062559465,73.13962465809229 L 105.19401062559466,72.8813146580923 L 105.45232062559465,72.36471465809228 L 105.56302062559465,72.06950465809228 L 105.67372062559464,71.8481046580923 L 105.82132062559464,71.70050465809229 L 106.07963062559463,71.70050465809229 L 106.26413062559463,71.8112046580923 L 106.30103062559463,72.06950465809228 L 106.30103062559463,72.29090465809227 L 106.26413062559463,72.51231465809227 L 106.26413062559463,72.69681465809228 L 106.33793062559464,72.84441465809229 L 106.48553062559463,72.8813146580923 L 106.67004062559464,72.73371465809228 L 106.78074062559463,72.47541465809229 L 107.07594062559463,71.8112046580923 L 107.1866406255946,71.6266946580923 L 107.40805062559463,71.5159946580923 L 107.74015062559462,71.4790946580923 L 107.81395062559463,71.6266946580923 L 107.81395062559463,71.9219046580923 L 107.81395062559463,72.1802046580923 L 107.81395062559463,72.36471465809228 L 107.92466062559461,72.43851465809229 L 108.07226062559462,72.40161465809229 L 108.25676062559461,72.2171046580923 L 108.33056062559461,72.03260465809228 L 108.36746062559462,71.66359465809228 L 108.44126062559462,71.40529465809229 L 108.55197062559463,71.22079465809227 L 108.66267062559461,71.11009465809227 L 108.77337062559462,70.96248465809228 L 108.95787062559461,70.81488465809227 L 109.14238062559463,70.88868465809227 L 109.2530806255946,71.03628465809228 L 109.36378062559461,71.22079465809227 L 109.40068062559462,71.55289465809227 L 109.5113806255946,71.66359465809228 L 109.69588062559461,71.62669465809228 L 109.8803906255946,71.40529465809229 L 109.9541906255946,71.1838946580923 L 110.10179062559462,70.5565846580923 L 110.2493906255946,69.89237465809231 L 110.39700062559461,69.5233646580923 L 110.5446006255946,69.1912546580923 L 110.69220062559461,68.93295465809231 L 110.9136006255946,68.8222546580923 L 111.09811062559461,68.8222546580923 L 111.2826106255946,68.93295465809231 L 111.2826106255946,69.11745465809233 L 111.2088106255946,69.44956465809233 L 111.2088106255946,69.67096465809232 L 111.2088106255946,69.8554746580923 L 111.39331062559461,70.00307465809232 L 111.5778106255946,70.03997465809232 L 111.72542062559461,70.03997465809232 L 111.9099206255946,70.00307465809232 L 111.9837206255946,69.8554746580923 L 112.1313236255946,69.26506465809231 L 112.35272662559461,68.71155465809233 L 112.6479316255946,68.04734465809233 L 112.8693346255946,67.67833465809233 L 113.01693762559461,67.56763465809232 L 113.23834062559459,67.45693465809231 L 113.34904262559459,67.60453465809232 L 113.3859426255946,67.89973465809231 L 113.3859426255946,68.26874465809232 L 113.34904262559459,68.52704465809231 L 113.3859426255946,68.7115546580923 L 113.4597426255946,68.96985465809229 L 113.6073446255946,69.00675465809229 L 113.86564862559462,69.00675465809229 L 114.05015162559462,68.85915465809228 L 114.16085362559463,68.56394465809228 L 114.30845662559463,68.19494465809228 L 114.49295962559464,67.86283465809228 L 114.64056162559464,67.67833465809227 L 114.82506462559465,67.60453465809226 L 115.04646862559466,67.56763465809226 L 115.19407062559466,67.67833465809227 L 115.23097062559467,67.89973465809226 L 115.19407062559466,68.23184465809226 L 115.19407062559466,68.56394465809225 L 115.23097062559467,68.85915465809225 L 115.41547362559467,68.93295465809226 L 115.56307662559468,68.96985465809226 L 115.67377862559468,68.85915465809225 L 115.78447962559468,68.56394465809225 L 115.96898262559469,68.01044465809224 L 116.1165856255947,67.71523465809224 L 116.2272876255947,67.38313465809225 L 116.3379886255947,67.12482465809225 L 116.52249162559471,66.97722465809224 L 116.78079562559469,66.97722465809224 L 116.9652986255947,66.97722465809224 L 117.2236036255947,66.86652465809223 L 117.37120562559471,66.60821465809224 L 117.59260962559472,66.01780465809225 L 117.9247146255947,65.09529465809226 L 118.29372062559472,64.35728465809225 L 118.5889256255947,63.87757465809224 L 118.7734286255947,63.69307465809223 L 119.0686326255947,63.61927465809222 L 119.25313562559471,63.69307465809223 L 119.40073862559473,63.84067465809224 L 119.43763862559473,64.09897465809223 L 119.43763862559473,64.35728465809223 L 119.29003662559472,64.50488465809224 L 119.21623662559472,64.72628465809223 L 119.21623662559472,65.13219465809223 L 119.21623662559472,65.35359465809222 L 119.29003662559472,65.53810465809221 L 119.43763862559473,65.53810465809221 L 119.58524162559473,65.4273946580922 L 119.69594262559474,65.20599465809221 L 119.80664462559474,64.91079465809221 L 119.95424762559475,64.57868465809221 L 120.13875062559475,64.17277465809221 L 120.28635262559476,63.91447465809222 L 120.50775662559477,63.84067465809221 L 120.80296062559475,63.91447465809222 L 120.87676062559476,64.20967465809221 L 120.87676062559476,64.50488465809221 L 120.87676062559476,64.87389465809221 L 120.87676062559476,65.1321946580922 L 121.02436362559476,65.27979465809221 L 121.20886662559477,65.24289465809221 L 121.43026962559478,65.0952946580922 L 121.61477262559478,64.8000846580922 L 121.83617662559479,64.17277465809221 L 122.0575806255948,63.3978646580922 L 122.31588462559478,62.733654658092206 L 122.53728762559479,62.2908446580922 L 122.68489062559479,62.10634465809218 L 122.90629362559477,62.03254465809218 L 123.23839962559478,62.143244658092186 L 123.31219962559479,62.364644658092175 L 123.31219962559479,62.73365465809218 L 123.27529962559478,63.25026465809219 L 123.27529962559478,63.61926465809219 L 123.27529962559478,63.91447465809219 L 123.31219962559479,64.0251746580922 L 123.45980162559479,64.17277465809221 L 123.6074036255948,64.1358746580922 L 123.8288076255948,63.91447465809222 L 124.05021162559481,63.36096465809223 L 124.3085156255948,62.69675465809223 L 124.5668196255948,62.14324465809224 L 124.75132262559481,61.811144658092246 L 124.93582562559482,61.55283465809225 L 125.12032862559482,61.44213465809224 L 125.3786326255948,61.44213465809224 L 125.60003662559481,61.62663465809226 L 125.60003662559481,61.921844658092255 L 125.60003662559481,62.21704465809225 L 125.48933462559481,62.47535465809224 L 125.3786326255948,62.69675465809223 L 125.3048326255948,62.991954658092226 L 125.3048326255948,63.39786465809223 L 125.4155346255948,63.61926465809222 L 125.52623562559481,63.877574658092215 L 125.74763962559481,63.91447465809222 L 125.93214262559482,63.84067465809221 L 126.04284462559482,63.6930746580922 L 126.19044662559483,63.3609646580922 L 126.37494962559484,62.77055465809221 L 126.52255162559484,62.43845465809221 L 126.78085662559485,62.25394465809222 L 127.03916062559446,62.25394465809222 L 127.33436562559447,62.36464465809223 L 127.44506662559448,62.58605465809222 L 127.44506662559448,62.88125465809222 L 127.37126662559447,63.21336465809222 L 127.37126662559447,63.50856465809221 L 127.37126662559447,63.766874658092206 L 127.48196862559448,63.91447465809222 L 127.66647162559448,63.91447465809222 L 127.92477562559446,63.7299746580922 L 128.14617962559447,63.47166465809221 L 128.47828462559448,63.0288646580922 L 128.73658862559446,62.6229546580922 L 129.06869462559447,62.143244658092186 L 129.25319662559446,61.9218446580922 L 129.47460062559446,61.700434658092206 L 129.80670562559447,61.6266346580922 L 129.99120862559448,61.73733465809221 L 130.0650086255945,62.032544658092206 L 130.02810862559448,62.3646446580922 L 129.95430862559448,62.6967546580922 L 129.84360662559448,62.9919546580922 L 129.76980662559447,63.21336465809219 L 129.62220362559447,63.61926465809219 L 129.62220362559447,63.76687465809218 L 129.73290562559447,64.09897465809217 L 129.84360762559447,64.17277465809218 L 129.95430962559448,64.06207465809217 L 130.21261362559446,63.54546465809216 L 130.50781862559447,62.91815465809216 L 130.87682462559445,62.29084465809217 L 131.09822762559446,61.995644658092175 L 131.35653162559444,61.81114465809216 L 131.76243862559446,61.737344658092155 L 132.02074262559444,61.589744658092144 L 132.27904662559445,61.368344658092155 L 132.53735062559443,61.25764465809215 L 132.90635662559444,61.25764465809215 L 133.09085962559445,61.368344658092155 L 133.12775962559445,61.589744658092144 L 133.01705762559445,62.03255465809215 L 132.75875362559444,62.622964658092144 L 132.20524462559445,63.471674658092155 L 131.72553662559443,64.20968465809216 L 131.46723262559445,64.87390465809216 L 131.20892862559444,65.68571465809217 L 130.95062462559446,66.34992465809216 L 130.76612162559445,66.86653465809218 L 130.72922162559445,67.42004465809217 L 130.76612162559445,67.86284465809217 L 130.87682362559445,68.23185465809217 L 130.98752462559446,68.41635465809219 L 131.09822662559446,68.5639546580922 L 131.31963062559447,68.67466465809221 L 131.57793462559445,68.63776465809221 L 131.72553662559446,68.49015465809222 L 131.87313962559446,68.23185465809223 L 131.91003962559446,67.89974465809223 L 132.05764262559447,67.42004465809222 L 132.31594662559448,66.60822465809221 L 132.61115162559446,65.7964146580922 L 132.83255462559447,65.20600465809221 L 133.05395862559448,64.7262946580922 L 133.31226262559446,64.3572946580922 L 133.60746762559447,63.951384658092195 L 133.93957262559445,63.6561846580922 L 134.19787662559446,63.508574658092215 L 134.49308162559444,63.508574658092215 L 134.67758462559445,63.693084658092204 L 134.60378462559444,64.0989846580922 L 134.49308262559444,64.50489465809221 L 134.34548062559443,65.02150465809223 L 134.16097762559443,65.35360465809222 L 133.90267262559445,66.09161465809223 L 133.64436862559444,66.94033465809221 L 133.42296562559446,67.97355465809221 L 133.20156162559445,69.2281746580922 L 132.94325762559444,71.3684046580922 L 132.86945762559444,72.8075246580922 L 132.86945762559444,73.65624465809219 L 132.94325762559444,74.5049546580922 L 132.98015762559444,75.1322646580922 L 133.09085862559445,75.5381746580922 L 133.23846162559445,75.9440746580922 L 133.49676562559446,76.5344846580922 L 133.68126862559447,76.9403946580922 L 133.79197062559447,77.08799465809221 L 134.01337362559445,77.16179465809222 L 134.30857862559446,77.19869465809222 L 134.64068362559445,77.23559465809223 L 134.67758362559445,77.05109465809221 L 134.75138362559446,76.49758465809222 L 134.89898562559446,75.83337465809223 L 135.30489262559448,75.16916465809223 L 135.41559462559448,74.54185465809223 L 135.6000976255945,74.20975465809224 L 135.7846006255945,73.58244465809224 L 135.8584006255945,73.02893465809225 L 135.9322006255945,72.40162465809226 L 136.0429026255945,71.88501465809225 L 136.1167026255945,71.44220465809224 L 136.22740462559452,71.18390465809225 L 136.5226096255945,71.18390465809225 L 136.7071126255945,71.36840465809226 L 136.7440126255945,71.81121465809227 L 136.6702126255945,72.21711465809227 L 136.4857096255945,72.88132465809227 L 136.3750076255945,73.25033465809227 L 136.3381076255945,73.61934465809227 L 136.4119076255945,74.09904465809228 L 136.5964106255945,73.91454465809227 L 136.7809136255945,73.61934465809227 L 136.8916156255945,73.32413465809228 L 137.00231662559452,72.99203465809228 L 137.11301862559452,72.88132465809227 L 137.11301862559452,72.65992465809228 L 137.29752162559453,72.40162465809229 L 137.51892562559453,72.2540146580923 L 137.70342862559454,72.06951465809229 L 137.85103062559455,71.88501465809227 L 137.92483062559455,71.62670465809228 L 138.10933362559456,71.47910465809227 L 138.29383662559457,71.47910465809227 L 138.47833962559457,71.58980465809228 L 138.51523962559457,71.81121465809227 L 138.51523962559457,72.03261465809226 L 138.51523962559457,72.36472465809226 L 138.81044462559458,72.40162465809226 L 139.03184762559457,72.29091465809225 L 139.32705262559458,71.99571465809225 L 139.80676062559456,71.40530465809226 L 140.58167262559456,70.55659465809225 L 140.95067862559458,70.18758465809225 L 141.17208262559458,70.03998465809224 L 141.54108862559457,70.00308465809223 L 141.65178962559457,70.22448465809222 L 141.72558962559458,70.55659465809222 L 141.72558962559458,70.92559465809222 L 141.9838936255946,70.92559465809222 L 142.42670062559458,70.96249465809223 L 142.9433086255946,71.03629465809223 L 143.20161262559458,71.03629465809223 L 143.4599166255946,70.99939465809223 L 143.82892262559457,70.77799465809224 L 144.16102862559458,70.48279465809225 L 144.49313362559457,70.26138465809225 L 144.78833862559458,70.18758465809225 L 145.12044362559456,70.18758465809225 L 145.19424362559457,70.37208465809226 L 145.19424362559457,70.70419465809226 L 145.12044362559456,70.92559465809225 L 145.12044362559456,71.18390465809225 L 145.23114562559456,71.25770465809225 L 145.45254962559457,71.29460465809225 L 145.82155562559458,71.33150465809226 L 146.07985962559457,71.25770465809225 L 146.26436262559457,71.11010465809224 L 146.52266662559458,70.81489465809224 L 146.74406962559456,70.55659465809225 L 146.89167262559457,70.37208465809226 L 147.14997662559458,70.22448465809225 L 147.48208162559456,70.26138465809225 L 147.81418762559457,70.40898465809227 L 147.96178962559458,70.59349465809225 L 147.99868962559458,70.88869465809225 L 147.99868962559458,71.11010465809224 L 147.99868962559458,71.33150465809223 L 148.2200926255946,71.33150465809223 L 148.47839662559457,71.33150465809223 L 148.77360162559458,71.33150465809223 L 149.0319056255946,71.18390465809222 L 149.36401162559457,70.77799465809221 L 149.54851462559458,70.44589465809221 L 149.8437186255946,70.22448465809222 L 150.21272462559457,70.26138465809223 L 150.43412862559458,70.37208465809223 L 150.5817306255946,70.55659465809222 L 150.6924326255946,70.70419465809223 L 150.7293326255946,71.07320465809224 L 150.7293326255946,71.36840465809223 L 150.87693462559457,71.70051465809223 L 151.02453662559458,71.92191465809222 L 151.20903962559458,72.10641465809223 L 151.5042446255946,72.32782465809223 L 151.7256486255946,72.62302465809222 L 151.87325062559458,72.84442465809221 L 152.02085262559459,72.95513465809222 L 152.2791576255946,72.95513465809222 L 152.53746162559457,72.88133465809221 L 152.83266662559458,72.65993465809223 L 153.2754736255946,72.43853465809224 L 153.7182806255946,72.32783465809223 L 153.9765846255946,72.36473465809223 L 154.0872866255946,72.47543465809224 L 154.0872866255946,72.80753465809224 L 154.0872866255946,73.06584465809223 L 154.0872866255946,73.32414465809222 L 154.2717896255946,73.43484465809223 L 154.6776956255946,73.47174465809223 L 155.0098016255946,73.47174465809223 L 155.23120462559461,73.47174465809223 L 155.48950862559462,73.32414465809222 L 155.7109126255946,73.02894465809223 L 155.8585146255946,72.80753465809224 L 156.04301762559462,72.62303465809222 L 156.2644216255946,72.62303465809222 L 156.6334276255946,72.88133465809221 L 156.7441296255946,73.0658446580922 L 156.7441296255946,73.3241446580922 L 156.7441296255946,73.54554465809218 L 156.7441296255946,73.76695465809217 L 156.7441296255946,74.06215465809217 L 156.81792962559462,74.17286465809218" fill="none" stroke="#000000" stroke-width="0.11155049499999985"/>
</svg>
