<?xml version="1.0" ?>
<svg xmlns="http://www.w3.org/2000/svg" xmlns:ev="http://www.w3.org/2001/xml-events" xmlns:xlink="http://www.w3.org/1999/xlink" baseProfile="full" height="293px" version="1.1" viewBox="96.25754080847955 73.50914882173993 325.4322050015389 158.8700013574817" width="600px">
	<defs/>
	<path d="M 394.1620166548938,120.12121880892718 C 394.1620166548938,120.12121880892718 393.02201665489383,116.44121880892718 392.7520166548938,116.30121880892719 C 392.48201665489376,116.1712188089272 390.34201665489377,115.50121880892719 389.1320166548938,115.43121880892718 C 387.9220166548938,115.36121880892719 388.1320166548938,115.23121880892718 386.7920166548938,115.36121880892719 C 385.4520166548938,115.49121880892719 385.2520166548938,115.69121880892719 383.84201665489377,115.96121880892719 C 382.4320166548938,116.23121880892718 375.7420166548938,119.1712188089272 375.47201665489376,119.58121880892719 C 375.2020166548938,119.9812188089272 372.6620166548938,121.05121880892719 372.3220166548938,121.7212188089272 C 371.9920166548938,122.39121880892719 370.7820166548938,123.93121880892718 370.7820166548938,123.93121880892718 L 369.98201665489376,124.6012188089272 C 369.98201665489376,124.6012188089272 369.7120166548938,123.39121880892719 369.6520166548938,123.06121880892718 C 369.5820166548938,122.7312188089272 367.8220166548938,103.4312188089272 367.35201665489376,102.39121880892719 C 366.8820166548938,101.35121880892717 365.5520166548938,97.75121880892718 365.27201665489383,96.61121880892719 C 364.9920166548938,95.47121880892718 364.23201665489376,93.6712188089272 363.85201665489376,93.11121880892719 C 363.47201665489376,92.5412188089272 364.3220166548938,90.93121880892718 361.48201665489376,89.51121880892717 C 358.64201665489384,88.09121880892718 353.8120166548938,89.23121880892718 353.8120166548938,89.23121880892718 L 347.09201665489377,88.95121880892718 L 346.6220166548938,93.21121880892719 L 349.9320166548938,96.05121880892719 L 351.73201665489376,96.05121880892719 L 353.8120166548938,96.05121880892719 L 354.2820166548938,96.52121880892719 L 355.7020166548938,99.36121880892719 L 356.7420166548938,102.96121880892719 C 356.7420166548938,102.96121880892719 356.36201665489375,112.05121880892719 356.36201665489375,112.52121880892719 C 356.36201665489375,112.99121880892719 356.5520166548938,115.27121880892719 356.27201665489383,115.74121880892719 C 355.99201665489375,116.21121880892719 355.5120166548938,116.88121880892719 355.23201665489376,117.26121880892718 C 354.9520166548938,117.64121880892718 352.86201665489375,119.82121880892718 352.86201665489375,119.82121880892718 L 346.3320166548938,123.70121880892718 L 338.3820166548938,129.57121880892717 L 328.34201665489377,137.62121880892718 C 328.34201665489377,137.62121880892718 325.4020166548938,139.42121880892716 324.84201665489377,140.0812188089272 C 324.27201665489383,140.74121880892716 322.7620166548938,142.2612188089272 322.5720166548938,142.8312188089272 C 322.3820166548938,143.40121880892718 321.2420166548938,145.48121880892717 321.1520166548938,145.96121880892719 C 321.0620166548938,146.43121880892716 320.4920166548938,148.1412188089272 320.4920166548938,148.1412188089272 C 320.4920166548938,148.1412188089272 317.2520166548938,138.5712188089272 317.2520166548938,137.62121880892718 C 317.2520166548938,136.67121880892716 317.1620166548938,132.8812188089272 317.1620166548938,131.65121880892718 C 317.1620166548938,130.42121880892716 317.2520166548938,127.67121880892718 317.4420166548938,127.10121880892719 C 317.6320166548938,126.53121880892719 319.3320166548938,122.08121880892719 319.3320166548938,122.08121880892719 C 319.3320166548938,122.08121880892719 319.52201665489383,120.19121880892719 319.52201665489383,119.6212188089272 C 319.52201665489383,119.0512188089272 318.4820166548938,116.5912188089272 317.6320166548938,116.2112188089272 C 316.7820166548938,115.8312188089272 305.4120166548938,105.9812188089272 304.8520166548938,105.7012188089272 C 304.2820166548938,105.4212188089272 293.2020166548938,99.4512188089272 293.2020166548938,99.4512188089272 L 285.7520166548938,93.9312188089272 C 285.7520166548938,93.9312188089272 277.0420166548938,93.39121880892719 276.5120166548938,93.39121880892719 C 275.97201665489376,93.39121880892719 270.22201665489376,94.0612188089272 270.22201665489376,94.0612188089272 C 270.22201665489376,94.0612188089272 269.1520166548938,97.94121880892719 269.4220166548938,99.02121880892719 C 269.6920166548938,100.09121880892718 269.4220166548938,102.77121880892719 271.9620166548938,104.11121880892719 C 274.5020166548938,105.4512188089272 281.4720166548938,106.1212188089272 281.4720166548938,106.1212188089272 L 292.3220166548938,111.7412188089272 C 292.3220166548938,111.7412188089272 297.9420166548938,118.17121880892721 298.4820166548938,118.8412188089272 C 299.02201665489383,119.5112188089272 299.4220166548938,119.2412188089272 299.5520166548938,120.8512188089272 C 299.6820166548938,122.4612188089272 299.8220166548938,124.4712188089272 299.8220166548938,125.67121880892721 C 299.8220166548938,126.87121880892721 300.4920166548938,126.8812188089272 299.8220166548938,128.6212188089272 C 299.15201665489377,130.36121880892722 298.48201665489376,131.70121880892722 298.48201665489376,131.70121880892722 L 292.1220166548938,146.6312188089272 C 292.1220166548938,146.6312188089272 288.97201665489376,154.73121880892722 288.7720166548938,155.47121880892723 C 288.5720166548938,156.2112188089272 287.97201665489376,157.28121880892724 287.97201665489376,158.6812188089272 C 287.97201665489376,160.0912188089272 287.84201665489377,162.5612188089272 287.84201665489377,162.97121880892723 C 287.84201665489377,163.3812188089272 277.6820166548938,160.15121880892724 277.6820166548938,160.15121880892724 L 264.3320166548938,156.65121880892724 C 264.3320166548938,156.65121880892724 254.10201665489382,154.57121880892723 253.4420166548938,154.57121880892723 C 252.7820166548938,154.57121880892723 250.98201665489378,154.48121880892722 250.3120166548938,154.48121880892722 C 249.6520166548938,154.48121880892722 247.1820166548938,154.29121880892723 247.1820166548938,154.29121880892723 L 246.9920166548938,148.13121880892723 L 245.4720166548938,138.85121880892723 L 244.6220166548938,133.9312188089272 C 244.6220166548938,133.9312188089272 244.0520166548938,131.1812188089272 243.8620166548938,130.4312188089272 C 243.6720166548938,129.67121880892722 243.3920166548938,128.35121880892723 243.3920166548938,127.59121880892721 C 243.3920166548938,126.83121880892722 243.6720166548938,125.13121880892723 243.6720166548938,125.13121880892723 L 245.75201665489382,123.05121880892723 C 245.75201665489382,123.05121880892723 249.44201665489382,122.20121880892722 249.82201665489382,122.01121880892723 C 250.2020166548938,121.82121880892723 253.8020166548938,120.49121880892721 254.2720166548938,120.12121880892721 C 254.7420166548938,119.74121880892721 258.5320166548938,116.71121880892721 258.5320166548938,116.71121880892721 C 258.5320166548938,116.71121880892721 261.09201665489377,113.40121880892721 261.3720166548938,112.73121880892721 C 261.6520166548938,112.07121880892721 262.22201665489376,109.98121880892721 262.3220166548938,109.51121880892721 C 262.4120166548938,109.04121880892721 262.5120166548938,107.81121880892721 262.0420166548938,106.8612188089272 C 261.5720166548938,105.9112188089272 259.7720166548938,104.2112188089272 259.7720166548938,104.2112188089272 C 259.7720166548938,104.2112188089272 257.3120166548938,102.9812188089272 256.4620166548938,103.4512188089272 C 255.61201665489378,103.9212188089272 248.60201665489376,110.27121880892722 248.13201665489376,110.46121880892721 C 247.66201665489376,110.65121880892721 242.35201665489376,112.64121880892722 241.88201665489376,112.92121880892721 C 241.41201665489376,113.20121880892721 233.36201665489375,115.95121880892721 233.36201665489375,115.95121880892721 L 229.29201665489376,120.87121880892721 C 229.29201665489376,120.87121880892721 228.06201665489377,123.05121880892722 227.87201665489377,123.81121880892721 C 227.68201665489377,124.57121880892721 227.59201665489377,126.0812188089272 227.49201665489377,127.2212188089272 C 227.40201665489377,128.3612188089272 227.68201665489377,139.0612188089272 227.68201665489377,139.6312188089272 C 227.68201665489377,140.2012188089272 227.68201665489377,141.71121880892719 227.68201665489377,143.8012188089272 C 227.68201665489377,145.8812188089272 227.49201665489377,146.8312188089272 227.02201665489378,147.7812188089272 C 226.55201665489378,148.73121880892722 225.79201665489379,149.48121880892722 225.79201665489379,149.48121880892722 L 222.76201665489378,151.2812188089272 C 222.76201665489378,151.2812188089272 218.02201665489378,151.2812188089272 217.36201665489378,151.2812188089272 C 216.70201665489378,151.2812188089272 212.4420166548938,150.3312188089272 212.4420166548938,150.3312188089272 C 212.4420166548938,150.3312188089272 207.42201665489378,133.8712188089272 206.6220166548938,132.9312188089272 C 205.8220166548938,131.99121880892721 198.5820166548938,111.90121880892721 198.5820166548938,111.90121880892721 L 191.35201665489382,96.77121880892722 L 186.8020166548938,89.67121880892722 L 176.0920166548938,86.86121880892722 L 166.7120166548938,87.40121880892721 C 166.7120166548938,87.40121880892721 164.9720166548938,94.3612188089272 165.1020166548938,94.90121880892721 C 165.23201665489378,95.44121880892722 169.2520166548938,98.1112188089272 169.2520166548938,98.1112188089272 L 177.29201665489379,98.1112188089272 C 177.29201665489379,98.1112188089272 179.1620166548938,98.2412188089272 179.70201665489378,98.7812188089272 C 180.24201665489377,99.32121880892721 182.9120166548938,103.3312188089272 183.05201665489378,103.87121880892721 C 183.18201665489377,104.41121880892722 183.99201665489377,109.90121880892721 183.99201665489377,110.8312188089272 C 183.99201665489377,111.7712188089272 186.67201665489378,123.5512188089272 186.67201665489378,123.5512188089272 C 186.67201665489378,123.5512188089272 189.08201665489378,134.1312188089272 189.08201665489378,135.0712188089272 C 189.08201665489378,136.0112188089272 189.08201665489378,137.61121880892722 189.08201665489378,138.4212188089272 C 189.08201665489378,139.22121880892718 189.3520166548938,140.2912188089272 188.81201665489377,141.3712188089272 C 188.27201665489378,142.4412188089272 187.60201665489376,143.78121880892718 187.07201665489376,144.72121880892718 C 186.53201665489377,145.66121880892717 184.93201665489377,148.60121880892717 184.39201665489375,149.8112188089272 C 183.85201665489376,151.0212188089272 182.25201665489377,152.7612188089272 181.98201665489376,154.5012188089272 C 181.71201665489374,156.2412188089272 181.31201665489377,159.3212188089272 181.31201665489377,159.3212188089272 C 181.31201665489377,159.3212188089272 179.84201665489377,165.5512188089272 179.84201665489377,165.9512188089272 C 179.84201665489377,166.3512188089272 179.97201665489376,168.03121880892718 179.51201665489376,169.1012188089272 C 179.04201665489376,170.1712188089272 178.64201665489375,171.0412188089272 178.04201665489376,171.5112188089272 C 177.44201665489376,171.9812188089272 171.08201665489375,175.8012188089272 171.08201665489375,175.8012188089272 C 171.08201665489375,175.8012188089272 169.07201665489376,177.6812188089272 167.87201665489374,178.21121880892719 C 166.66201665489373,178.7512188089272 163.05201665489375,180.15121880892718 162.71201665489374,180.55121880892722 C 162.38201665489373,180.9512188089272 160.90201665489374,181.7612188089272 160.43201665489374,181.8212188089272 C 159.96201665489374,181.8912188089272 158.49201665489375,182.0912188089272 158.09201665489374,182.0912188089272 C 157.69201665489373,182.0912188089272 153.27201665489375,180.7512188089272 153.27201665489375,180.7512188089272 C 153.27201665489375,180.7512188089272 148.92201665489375,180.1512188089272 148.25201665489374,179.8812188089272 C 147.58201665489375,179.61121880892722 142.49201665489375,176.1312188089272 141.96201665489374,175.73121880892722 C 141.42201665489375,175.33121880892722 138.81201665489374,173.32121880892723 138.14201665489372,172.92121880892722 C 137.4720166548937,172.52121880892722 135.86201665489375,171.92121880892722 134.99201665489375,171.7812188089272 C 134.12201665489374,171.6512188089272 131.04201665489376,172.11121880892722 131.04201665489376,172.11121880892722 L 129.97201665489376,173.05121880892722 L 129.64201665489378,173.5912188089272 L 128.66201665489376,173.6412188089272 L 127.24201665489376,174.6812188089272 C 127.24201665489376,174.6812188089272 126.44201665489375,175.8212188089272 126.15201665489379,175.9612188089272 C 125.87201665489381,176.10121880892723 125.2020166548938,176.48121880892722 124.73201665489377,176.5812188089272 C 124.26201665489374,176.67121880892722 124.02201665489379,176.72121880892723 123.83201665489379,177.10121880892723 C 123.6420166548938,177.48121880892722 123.55201665489382,177.72121880892723 123.55201665489382,178.05121880892722 C 123.55201665489382,178.3812188089272 123.41201665489383,180.84121880892724 123.55201665489382,181.03121880892724 C 123.6920166548938,181.22121880892723 124.73201665489383,183.73121880892722 124.92201665489382,184.2012188089272 C 125.11201665489382,184.67121880892722 125.96201665489384,186.66121880892723 126.10201665489383,187.04121880892723 C 126.24201665489382,187.42121880892722 127.43201665489381,192.2012188089272 127.52201665489385,192.5812188089272 C 127.61201665489382,192.9612188089272 128.09201665489383,195.52121880892722 128.37201665489386,195.99121880892721 C 128.65201665489383,196.4612188089272 132.82201665489384,201.2012188089272 132.82201665489384,201.2012188089272 C 132.82201665489384,201.2012188089272 134.52201665489383,203.3812188089272 135.66201665489382,203.85121880892723 C 136.8020166548938,204.3212188089272 138.03201665489382,204.61121880892722 139.16201665489382,204.99121880892721 C 140.3020166548938,205.3712188089272 141.53201665489382,205.7512188089272 141.53201665489382,205.7512188089272 C 141.53201665489382,205.7512188089272 143.2320166548938,210.8912188089272 143.43201665489386,211.7012188089272 C 143.63201665489385,212.5012188089272 143.23201665489387,213.4412188089272 144.57201665489384,214.9812188089272 C 145.91201665489382,216.5212188089272 145.78201665489382,216.7212188089272 146.44201665489385,217.1212188089272 C 147.1120166548938,217.5212188089272 148.1120166548938,218.7312188089272 148.9820166548938,218.7912188089272 C 149.85201665489382,218.8612188089272 150.52201665489383,219.1212188089272 151.06201665489385,218.99121880892721 C 151.60201665489382,218.8612188089272 151.93201665489386,218.7912188089272 152.53201665489382,217.7212188089272 C 153.13201665489385,216.65121880892718 154.00201665489385,214.9712188089272 154.74201665489386,214.1712188089272 C 155.48201665489387,213.3712188089272 156.28201665489382,211.09121880892718 156.48201665489387,210.7512188089272 C 156.68201665489386,210.4212188089272 159.69201665489385,209.8112188089272 160.10201665489387,209.8112188089272 C 160.50201665489385,209.8112188089272 170.60201665489384,206.40121880892718 170.60201665489384,206.40121880892718 C 170.60201665489384,206.40121880892718 181.02201665489383,205.1712188089272 182.06201665489385,205.1712188089272 C 183.10201665489384,205.1712188089272 188.69201665489385,205.1712188089272 189.64201665489387,204.9812188089272 C 190.59201665489385,204.7912188089272 193.33201665489386,204.7912188089272 193.33201665489386,204.7912188089272 C 193.33201665489386,204.7912188089272 195.60201665489387,205.6412188089272 196.83201665489386,205.9312188089272 C 198.06201665489385,206.21121880892719 200.81201665489385,206.6912188089272 202.04201665489387,206.6912188089272 C 203.27201665489386,206.6912188089272 204.60201665489387,207.0712188089272 206.11201665489386,206.5012188089272 C 207.63201665489387,205.9312188089272 209.80201665489386,205.46121880892719 210.56201665489385,205.1712188089272 C 211.32201665489384,204.8912188089272 221.45201665489384,205.1712188089272 221.45201665489384,205.1712188089272 C 221.45201665489384,205.1712188089272 233.69201665489385,206.2012188089272 235.03201665489388,206.46121880892719 C 236.37201665489386,206.7312188089272 249.09201665489388,208.8712188089272 251.37201665489386,209.5412188089272 C 253.65201665489383,210.2112188089272 269.9920166548938,212.3512188089272 269.9920166548938,212.3512188089272 L 289.01201665489384,213.6912188089272 C 289.01201665489384,213.6912188089272 311.14201665489384,214.1612188089272 313.2320166548938,214.5412188089272 C 315.3120166548938,214.92121880892722 320.6220166548938,214.1612188089272 322.51201665489384,213.7812188089272 C 324.4020166548938,213.40121880892718 338.4220166548938,209.23121880892722 338.4220166548938,209.23121880892722 L 352.0120166548938,202.40121880892718 C 352.0120166548938,202.40121880892718 355.23201665489376,199.5612188089272 355.61201665489375,198.61121880892722 C 355.9920166548938,197.6612188089272 356.3720166548938,197.2812188089272 356.9420166548938,195.7712188089272 C 357.5120166548938,194.2512188089272 359.59201665489377,189.90121880892718 359.7820166548938,189.1412188089272 C 359.97201665489376,188.3812188089272 361.3020166548938,184.7812188089272 361.3020166548938,184.7812188089272 C 361.3020166548938,184.7812188089272 364.3820166548938,177.7712188089272 364.3820166548938,176.5712188089272 C 364.3820166548938,175.36121880892722 364.7820166548938,166.3912188089272 364.7820166548938,165.4512188089272 C 364.7820166548938,164.5112188089272 365.3220166548938,160.0912188089272 365.4520166548938,159.4212188089272 C 365.5820166548938,158.7512188089272 366.1220166548938,156.0712188089272 366.39201665489384,155.1312188089272 C 366.6620166548938,154.1912188089272 367.8620166548938,151.9212188089272 368.1320166548938,151.1112188089272 C 368.4020166548938,150.3112188089272 370.5420166548938,146.6912188089272 370.5420166548938,146.6912188089272 L 375.5020166548938,137.9812188089272 C 375.5020166548938,137.9812188089272 378.98201665489376,133.8312188089272 379.52201665489383,133.02121880892722 C 380.0620166548938,132.2212188089272 382.0620166548938,129.4012188089272 382.0620166548938,129.4012188089272 C 382.0620166548938,129.4012188089272 382.60201665489376,128.8612188089272 383.4020166548938,128.33121880892722 C 384.2020166548938,127.7912188089272 390.10201665489376,124.31121880892721 390.10201665489376,124.31121880892721 C 390.10201665489376,124.31121880892721 390.64201665489384,124.18121880892721 392.1120166548938,123.37121880892721 C 393.5820166548938,122.57121880892721 393.72201665489376,122.8312188089272 394.2520166548938,121.90121880892721 C 394.7620166548938,120.99121880892721 394.1620166548938,120.12121880892721 394.1620166548938,120.12121880892721 L 394.1620166548938,120.12121880892718" fill="none" stroke="#000000" stroke-width="0.27096769775315477"/>
</svg>
