<?xml version="1.0" ?>
<svg xmlns="http://www.w3.org/2000/svg" xmlns:ev="http://www.w3.org/2001/xml-events" xmlns:xlink="http://www.w3.org/1999/xlink" baseProfile="full" height="563px" version="1.1" viewBox="303.1784040891231 -915.314443996848 1747.1864842297596 1639.2382586839212" width="600px">
	<defs/>
	<path d="M 746.9700577868679,-776.349630380208 C 752.1262577868678,-775.4535303802081 762.8624577868678,-774.0512303802082 770.8280577868678,-773.2336303802081 L 785.3110577868678,-771.7468303802082 L 793.6621577868679,-765.6146303802082 C 798.9347577868679,-761.7428303802083 803.6469577868678,-756.928430380208 806.4450577868678,-752.5542303802081 C 812.0073577868678,-743.858830380208 815.1325577868678,-742.2562303802081 821.5816577868678,-744.791930380208 C 824.2015577868677,-745.821930380208 828.5950577868679,-747.0621303802079 831.3450577868679,-747.5476303802079 C 834.0950577868679,-748.0332303802079 839.380857786868,-750.1292303802079 843.0913577868679,-752.2052303802079 C 849.5803577868679,-755.836130380208 850.2714577868679,-755.9538303802078 861.2163577868679,-755.292830380208 C 867.4746577868679,-754.9148303802081 875.0137577868678,-754.239130380208 877.9699577868679,-753.791130380208 C 882.0970577868679,-753.165830380208 883.8882577868679,-753.468530380208 885.6854577868679,-755.0948303802079 C 886.9727577868679,-756.2598303802079 890.2870577868679,-757.5163303802078 893.0506577868679,-757.887030380208 C 896.0715577868679,-758.2922303802079 899.1879577868679,-759.7453303802081 900.8655577868678,-761.531130380208 C 902.5319577868678,-763.3049303802079 905.0848077868678,-764.501230380208 907.2037077868679,-764.501230380208 C 911.0454077868678,-764.501230380208 927.1931077868679,-760.3121303802079 929.7653077868679,-758.6481303802079 C 930.6341077868678,-758.086130380208 939.2200077868679,-757.279330380208 948.8450077868679,-756.855330380208 C 958.4700077868679,-756.431530380208 967.8566077868679,-755.669530380208 969.7040077868679,-755.162230380208 C 971.9148077868679,-754.5551303802081 974.4373077868679,-754.9253303802079 977.0835077868679,-756.245530380208 C 982.101507786868,-758.7487303802081 985.5280077868679,-758.779030380208 990.3716077868679,-756.3630303802081 C 993.0663077868679,-755.0186303802082 1000.3475077868679,-754.2407303802081 1015.6371077868679,-753.6633303802082 L 1037.1170077868678,-752.8525303802082 L 1040.7935077868678,-748.3921303802083 C 1043.1740077868678,-745.5040303802084 1044.4700077868679,-742.5157303802082 1044.4700077868679,-739.9152303802084 C 1044.4700077868679,-737.7061303802084 1045.1459077868678,-735.4811303802085 1045.9720077868678,-734.9705303802084 C 1048.859107786868,-733.1861303802084 1057.0210077868678,-734.6315303802085 1064.776607786868,-738.3005303802083 C 1073.636507786868,-742.4920303802082 1080.499607786868,-743.0103303802084 1087.638907786868,-740.0273303802082 C 1091.5034077868681,-738.4126303802082 1093.3722077868679,-738.3075303802082 1097.907607786868,-739.4496303802082 C 1100.957107786868,-740.2173303802083 1104.8661077868678,-741.7721303802082 1106.5943077868678,-742.9045303802081 C 1108.648307786868,-744.2503303802082 1113.396207786868,-745.1555303802081 1120.303207786868,-745.5180303802081 C 1130.792097786868,-746.0685303802081 1130.897927786868,-746.043830380208 1134.687657786868,-742.167630380208 C 1138.689437786868,-738.074530380208 1138.644077786868,-738.5532303802081 1136.155597786868,-726.6772303802081 C 1135.127767786868,-721.7721303802082 1137.554767786868,-719.5012303802082 1143.825187786868,-719.5012303802082 C 1153.583267786868,-719.5012303802082 1174.4700277868678,-731.1700303802081 1174.4700277868678,-736.6215303802082 C 1174.4700277868678,-737.5178303802084 1175.3137777868678,-738.2512303802082 1176.3450277868678,-738.2512303802082 C 1177.679377786868,-738.2512303802082 1178.2200277868678,-736.8955303802081 1178.2200277868678,-733.5494303802082 C 1178.2200277868678,-726.0957303802081 1171.782627786868,-717.4908303802081 1161.3450277868678,-710.9927303802081 L 1152.5950277868678,-705.545330380208 L 1143.2200277868678,-706.309030380208 C 1128.803797786868,-707.483130380208 1120.541407786868,-708.9399303802081 1115.399907786868,-711.2143303802079 C 1105.026507786868,-715.802830380208 1086.3888077868678,-714.9439303802078 1075.471407786868,-709.374330380208 C 1072.894607786868,-708.059830380208 1068.606407786868,-704.0349303802079 1065.941907786868,-700.4302303802081 C 1063.277507786868,-696.825430380208 1058.8024077868681,-691.8043303802081 1055.997307786868,-689.272030380208 C 1049.353107786868,-683.273830380208 1048.271307786868,-681.0578303802081 1047.392307786868,-671.6447303802079 C 1046.815607786868,-665.4693303802078 1047.492307786868,-660.0893303802079 1050.573707786868,-646.339130380208 C 1052.7262077868681,-636.7344303802079 1055.064507786868,-624.6575303802081 1055.7698077868681,-619.501230380208 C 1056.475107786868,-614.3450303802081 1057.623507786868,-605.9075303802081 1058.321707786868,-600.751230380208 C 1059.922007786868,-588.934030380208 1062.173107786868,-580.297130380208 1066.9553077868682,-567.626230380208 C 1069.0312077868682,-562.126230380208 1071.337907786868,-553.9700303802081 1072.081507786868,-549.501230380208 C 1073.348807786868,-541.8847303802079 1080.7593077868682,-514.790230380208 1083.2774077868683,-508.5660303802081 C 1083.9028077868682,-507.0203303802082 1085.2873077868683,-501.9917303802081 1086.3542077868683,-497.39133038020805 C 1087.4211077868683,-492.791030380208 1090.2461077868682,-484.7035303802081 1092.6320077868681,-479.4192303802081 C 1096.8275077868682,-470.1271303802082 1096.9705077868682,-469.303630380208 1096.9835077868681,-454.3439303802081 C 1096.9935077868681,-444.09933038020813 1097.6397077868683,-436.7657303802081 1098.9002077868681,-432.6262303802081 C 1100.6081077868682,-427.0170303802081 1101.9125077868682,-413.27159038020807 1101.954607786868,-400.4386903802081 C 1101.9676077868683,-396.69189038020806 1102.441007786868,-395.7511903802081 1104.317007786868,-395.7511903802081 C 1105.607807786868,-395.7511903802081 1107.3590077868682,-396.588790380208 1108.2086077868682,-397.6123903802081 C 1109.0582077868683,-398.6360903802081 1110.2840077868682,-399.1456903802082 1110.9327077868681,-398.7447903802081 C 1113.4280077868682,-397.2025903802081 1117.9552077868682,-399.5939903802081 1119.471807786868,-403.25549038020813 C 1121.6324077868683,-408.4716903802081 1124.470007786868,-406.00859038020815 1124.470007786868,-398.9168903802081 C 1124.470007786868,-395.33139038020806 1125.2265277868682,-392.9540903802081 1126.8289677868681,-391.5038903802081 C 1129.0789977868683,-389.4675903802081 1129.401927786868,-389.5884903802081 1133.8235677868681,-394.12259038020807 C 1136.7907277868683,-397.16519038020806 1138.6786277868682,-398.31379038020805 1139.0687977868681,-397.3136903802081 C 1140.1552477868681,-394.5287903802081 1143.7656977868683,-395.63209038020807 1147.1863477868683,-399.79439038020803 C 1151.0934977868683,-404.548690380208 1152.1323777868681,-403.999290380208 1152.7377877868682,-396.858390380208 C 1152.9819277868683,-393.978890380208 1153.4472677868682,-391.35729038020804 1153.7718677868681,-391.032690380208 C 1154.0964677868683,-390.708090380208 1156.6536677868683,-391.636990380208 1159.4545377868683,-393.09689038020804 C 1165.6479677868683,-396.32509038020805 1165.2792677868683,-396.321690380208 1166.1066677868682,-393.1578903802081 C 1166.7036477868683,-390.8750903802081 1167.1278277868682,-390.7478903802081 1169.6479877868683,-392.0966903802081 C 1171.222707786868,-392.9394903802081 1175.643817786868,-393.75139038020814 1179.472707786868,-393.9009903802081 C 1185.0845277868682,-394.1201903802081 1186.4807677868682,-393.78069038020806 1186.6738677868682,-392.1496903802081 C 1187.5593177868682,-384.67119038020803 1188.694537786868,-380.75139038020814 1189.9749277868682,-380.75139038020814 C 1191.185087786868,-380.75139038020814 1198.5370677868682,-389.2873903802081 1202.2145677868682,-394.9621903802081 C 1202.6927977868681,-395.70019038020814 1203.4337477868683,-395.9543903802081 1203.8610977868682,-395.5269903802081 C 1204.2884477868681,-395.09959038020804 1203.1940377868682,-391.90029038020805 1201.429067786868,-388.4172903802081 C 1197.8155277868682,-381.28629038020813 1197.221467786868,-375.75139038020814 1200.069627786868,-375.75139038020814 C 1201.0868977868681,-375.75139038020814 1203.0041377868681,-377.8607903802082 1204.3301377868681,-380.43889038020814 C 1205.6561477868681,-383.0169903802081 1208.523337786868,-386.81389038020814 1210.701677786868,-388.87639038020814 L 1214.662287786868,-392.62639038020814 L 1211.4562177868681,-387.00139038020814 C 1207.9486377868682,-380.84739038020814 1207.1713677868681,-374.50139038020814 1209.925207786868,-374.50139038020814 C 1210.863047786868,-374.50139038020814 1212.549367786868,-376.8919903802081 1213.672567786868,-379.81389038020814 C 1216.138917786868,-386.2298903802082 1221.358587786868,-393.0106903802082 1222.760367786868,-391.6198903802082 C 1223.318287786868,-391.0662903802082 1222.194777786868,-387.80259038020813 1220.2636777868681,-384.36719038020817 C 1216.410867786868,-377.51319038020813 1216.672317786868,-374.1705903802082 1221.027867786868,-374.5971903802082 C 1225.871777786868,-375.07159038020814 1228.289757786868,-373.3394903802082 1227.4506277868682,-369.9960903802082 C 1226.527287786868,-366.3171903802082 1229.500537786868,-365.8946903802082 1233.130427786868,-369.18889038020825 C 1238.9329577868682,-374.45479038020824 1239.6412877868681,-374.8300903802083 1241.073797786868,-373.39759038020827 C 1243.010917786868,-371.4604903802083 1246.421527786868,-371.65359038020824 1250.866017786868,-373.9518903802083 C 1252.9405277868682,-375.0246903802083 1255.584477786868,-375.68569038020826 1256.7414377868681,-375.4209903802083 C 1258.3368977868681,-375.05579038020835 1257.8656277868681,-374.35819038020827 1254.7904277868681,-372.5329903802083 C 1250.728257786868,-370.12189038020824 1249.654127786868,-367.8076903802083 1251.941187786868,-366.39419038020833 C 1253.389497786868,-365.4990903802084 1262.165047786868,-367.6283903802083 1267.950227786868,-370.27859038020836 C 1273.510547786868,-372.82579038020833 1278.8307677868681,-372.1432903802083 1278.8915377868682,-368.8748903802084 C 1278.9658377868682,-364.8829903802084 1280.5865877868682,-363.0941903802084 1282.9833877868682,-364.35889038020844 C 1284.1447877868682,-364.97169038020843 1288.470027786868,-366.3372903802084 1292.595027786868,-367.3934903802084 C 1296.720027786868,-368.4496903802084 1301.0793977868682,-369.69749038020836 1302.282527786868,-370.16639038020844 C 1303.8240177868681,-370.7670903802084 1304.470027786868,-370.4124903802084 1304.470027786868,-368.96569038020846 C 1304.470027786868,-367.7575903802085 1302.283427786868,-365.9310903802085 1299.157527786868,-364.5278903802084 C 1285.954917786868,-358.6016903802084 1284.890687786868,-353.7244903802084 1297.109637786868,-355.1425903802084 C 1305.2876177868682,-356.0917903802084 1307.098017786868,-354.4111903802084 1300.407527786868,-352.08119038020834 C 1293.5988377868682,-349.7099903802083 1286.501617786868,-344.46979038020834 1288.0295177868682,-342.9418903802083 C 1288.981547786868,-341.9898903802083 1291.6410877868682,-342.19939038020834 1297.2317877868682,-343.6668903802083 C 1303.7420377868682,-345.3757903802083 1310.687147786868,-345.67889038020826 1337.595027786868,-345.4286903802083 L 1370.095027786868,-345.12639038020836 L 1383.845027786868,-349.1158903802084 C 1391.407527786868,-351.3100903802084 1404.626277786868,-354.0237903802084 1413.220027786868,-355.1461903802084 C 1421.813777786868,-356.26869038020845 1432.220027786868,-357.6693903802085 1436.345027786868,-358.2589903802085 C 1440.470027786868,-358.84849038020855 1450.032527786868,-360.2146903802085 1457.595027786868,-361.29509038020853 C 1465.157527786868,-362.3753903802085 1476.970027786868,-364.1118903802085 1483.845027786868,-365.1539903802085 C 1490.720027786868,-366.1959903802085 1499.157527786868,-367.3436903802085 1502.595027786868,-367.7042903802085 C 1512.2163777868682,-368.71359038020853 1529.689617786868,-371.87289038020845 1547.595027786868,-375.8404903802085 C 1556.532527786868,-377.82089038020854 1570.355427786868,-379.9848903802085 1578.3125877868679,-380.64919038020855 C 1587.7668477868679,-381.43859038020855 1595.996687786868,-382.9510903802086 1602.0625877868679,-385.0140903802086 C 1607.167927786868,-386.7504903802086 1619.504817786868,-390.68309038020857 1629.477877786868,-393.75329038020857 C 1639.450947786868,-396.82349038020857 1652.300687786868,-401.3427903802086 1658.032847786868,-403.7962903802086 C 1663.764997786868,-406.24969038020856 1670.151527786868,-408.5559903802085 1672.2251277868681,-408.9212903802086 C 1674.298717786868,-409.2866903802086 1679.167727786868,-410.8976903802086 1683.0451677868682,-412.5012903802086 C 1686.922587786868,-414.10503038020863 1697.126277786868,-417.70413038020865 1705.720027786868,-420.4992303802086 C 1714.313777786868,-423.29433038020863 1728.376277786868,-428.45903038020856 1736.970027786868,-431.97633038020854 C 1754.518497786868,-439.1586303802086 1755.531767786868,-439.5163303802086 1780.720027786868,-447.4212303802086 C 1790.688777786868,-450.54973038020864 1802.501277786868,-453.6467303802086 1806.970030786868,-454.3034303802086 C 1811.813440786868,-455.0151303802087 1822.606250786868,-458.6016303802086 1833.692330786868,-463.18333038020853 C 1843.920840786868,-467.41053038020857 1854.889590786868,-471.37383038020846 1858.067330786868,-471.9904303802085 C 1873.9353707868681,-475.0698303802086 1874.9829407868679,-475.3478303802086 1888.845030786868,-480.15793038020854 C 1896.386630586868,-482.7748303802085 1903.4156405568679,-483.2003303802086 1904.138380556868,-481.0837303802085 C 1904.447370556868,-480.1788303802085 1901.394850586868,-477.9674303802086 1896.755090586868,-475.7350303802085 C 1892.4045507868682,-473.6417303802085 1887.438780786868,-470.8133303802084 1885.720030786868,-469.44953038020856 C 1882.6734907868681,-467.03243038020867 1882.655400786868,-466.9239303802086 1885.000050786868,-465.1264303802085 C 1887.244770786868,-463.40563038020844 1886.518440786868,-462.8645303802085 1874.104000786868,-457.0086303802085 C 1861.000420786868,-450.82763038020846 1846.1171807868682,-439.98763038020854 1839.765650786868,-431.9986303802085 C 1835.1798907868679,-426.2306303802085 1821.7846807868682,-416.1907303802085 1814.198700786868,-412.83579038020855 C 1806.204030786868,-409.3001903802085 1793.818987786868,-401.1712903802086 1790.095027786868,-397.0153903802086 C 1788.720027786868,-395.4808903802086 1780.858827786868,-389.3655903802086 1772.6256877868682,-383.42589038020856 C 1756.704627786868,-371.9397903802086 1740.720027786868,-357.74789038020856 1740.720027786868,-355.09849038020855 C 1740.720027786868,-354.2183903802086 1738.8919077868682,-352.41589038020857 1736.657527786868,-351.0927903802085 C 1731.763587786868,-348.19489038020845 1728.385467786868,-342.5859903802085 1730.350567786868,-340.6208903802085 C 1731.290587786868,-339.68079038020846 1733.830567786868,-339.84079038020855 1739.012807786868,-341.16639038020844 C 1743.0455277868682,-342.1978903802085 1748.876277786868,-343.60249038020845 1751.970027786868,-344.28769038020846 C 1759.176267786868,-345.88369038020846 1813.115270786868,-364.4399903802084 1821.345030786868,-368.1542903802084 C 1824.782530786868,-369.70579038020844 1831.813780786868,-372.38019038020843 1836.970030786868,-374.09749038020846 C 1842.126280786868,-375.81489038020845 1849.720030786868,-378.51289038020843 1853.845030786868,-380.0931903802085 C 1863.598780786868,-383.82979038020846 1878.4644707868679,-385.3441903802085 1880.563480786868,-382.81499038020854 C 1882.1021307868682,-380.9610903802086 1881.970330786868,-380.5130903802085 1875.726820786868,-366.3763903802086 C 1874.3654907868681,-363.29409038020856 1869.943940786868,-358.26019038020854 1864.198380786868,-353.2513903802086 C 1859.072290786868,-348.7826903802086 1853.3107407868679,-343.06819038020865 1851.3949407868681,-340.55269038020856 C 1847.786110786868,-335.81409038020854 1845.3706907868682,-334.3527903802086 1832.4159807868682,-329.06999038020854 C 1828.192510786868,-327.3477903802085 1822.1764407868682,-323.9841903802086 1819.0469707868679,-321.5953903802085 C 1815.917490786868,-319.2065903802086 1808.966820786868,-314.84979038020856 1803.601017786868,-311.9135903802086 C 1798.235227786868,-308.9773903802086 1792.3156177868682,-305.3156903802086 1790.446327786868,-303.77663038020853 C 1788.577037786868,-302.2374303802085 1784.077037786868,-300.0235303802085 1780.446327786868,-298.8568303802085 C 1776.8156177868682,-297.69003038020855 1771.8491177868682,-295.4561303802085 1769.409677786868,-293.89253038020854 C 1766.970227786868,-292.32903038020856 1760.933567786868,-289.5921303802086 1755.994847786868,-287.8106303802085 C 1751.056147786868,-286.02913038020847 1740.6770477868681,-281.67413038020857 1732.9302077868679,-278.1328303802085 C 1725.183367786868,-274.5914303802085 1714.063777786868,-269.7826303802085 1708.220027786868,-267.4465303802085 C 1694.479287786868,-261.95363038020855 1685.2785177868682,-257.35853038020855 1677.9939577868681,-252.3510303802085 C 1672.0574577868679,-248.27014038020855 1653.912467786868,-239.7408403802085 1645.485627786868,-237.07004038020852 C 1642.950467786868,-236.26654038020854 1639.5664777868678,-234.57884038020848 1637.965667786868,-233.3196403802085 C 1636.364837786868,-232.06044038020855 1627.751577786868,-226.1838403802085 1618.8250477868678,-220.26044038020848 C 1609.898537786868,-214.3370403802084 1600.3450277868678,-207.87073038020839 1597.5950277868678,-205.8908503802084 C 1590.756527786868,-200.96743038020844 1579.5558777868678,-194.95289038020843 1575.477347786868,-194.0140503802084 C 1571.6686877868678,-193.13735038020837 1558.201277786868,-184.2242003802084 1548.8450277868678,-176.38798038020838 C 1540.180477786868,-169.13109038020838 1529.860187786868,-163.1133403802084 1514.470027786868,-156.3439803802084 C 1507.251277786868,-153.16880038020844 1500.0723877868681,-149.9502403802084 1498.516927786868,-149.19162038020835 C 1494.185277786868,-147.0789803802083 1485.985067786868,-135.4117403802083 1482.0696677868682,-125.79049038020838 C 1477.077327786868,-113.52289038020837 1467.722357786868,-102.35173038020838 1455.373717786868,-93.91174038020841 C 1449.720437786868,-90.04786038020842 1442.282527786868,-84.62180038020841 1438.845027786868,-81.85381038020836 C 1435.407527786868,-79.08583038020839 1426.407527786868,-73.76160038020834 1418.845027786868,-70.0222003802084 C 1410.799737786868,-66.04409038020839 1399.057577786868,-58.691290380208386 1390.5430377868681,-52.299880380208435 C 1382.539457786868,-46.29199038020846 1372.414457786868,-39.22084038020847 1368.0430377868681,-36.58622038020843 C 1347.178587786868,-24.01133038020845 1314.5540277868681,-3.8215003802084198 1309.890677786868,-0.5984303802084128 C 1307.028287786868,1.37990961979159 1304.2840277868681,2.9985596197915925 1303.7923177868681,2.9985596197915925 C 1303.300607786868,2.9985596197915925 1299.5640177868681,5.274519619791647 1295.488767786868,8.056259619791547 C 1291.4135177868682,10.83799961979156 1286.759377786868,13.615769619791593 1285.1462377868681,14.229079619791548 C 1277.946417786868,16.96645961979158 1228.9759277868682,52.74816961979158 1211.4431577868681,68.08239961979163 C 1208.639177786868,70.53475961979163 1201.563777786868,75.96087961979165 1195.720027786868,80.14045961979164 C 1184.215167786868,88.36897961979165 1173.487777786868,98.33816961979161 1164.224367786868,109.41005961979167 C 1160.965087786868,113.3056496197917 1153.554677786868,119.65308961979164 1147.564977786868,123.67980961979165 C 1141.631167786868,127.66892961979167 1133.304217786868,134.67590961979167 1129.060627786868,139.25084961979164 C 1124.817107786868,143.82577961979163 1117.407507786868,150.16161961979165 1112.595007786868,153.33047961979165 C 1098.598907786868,162.54639961979163 1080.8456077868682,178.41037961979168 1070.720007786868,190.74895961979166 C 1065.563807786868,197.03215961979168 1056.001307786868,206.91659961979167 1049.470007786868,212.71436961979168 C 1042.938807786868,218.5121596197917 1034.220007786868,226.41895961979168 1030.095007786868,230.2850596197917 C 1011.3711077868682,247.83376961979172 995.5904077868681,260.5400796197917 984.4700077868681,267.0213096197917 C 976.9420077868681,271.4087996197917 953.1743077868681,291.13217961979166 950.4971077868681,295.2133596197917 C 944.9237077868681,303.7094596197917 932.1099077868681,357.74278961979167 928.7898077868681,386.74855961979165 C 928.357007786868,390.52980961979165 927.4999077868681,395.31105961979165 926.885107786868,397.37355961979165 C 926.2704077868681,399.43605961979165 925.185507786868,405.27795961979166 924.4742077868681,410.3555596197917 C 923.7095077868681,415.8143996197917 921.3499077868681,423.7330596197917 918.7009077868681,429.7305596197917 C 916.2369077868681,435.30920961979166 909.8207077868682,450.0462096197917 904.4427077868681,462.47945961979167 C 894.8663577868681,484.61855961979165 893.3756577868681,487.58961261979164 884.4700577868681,502.28480261979166 C 876.4678577868681,515.4893526197916 867.1363577868681,524.8748526197917 850.095057786868,536.8589026197917 C 842.543557786868,542.1693726197916 819.983557786868,554.3459626197916 811.345057786868,557.7738726197917 C 807.907557786868,559.1379526197917 800.595057786868,562.3499526197917 795.095057786868,564.9116526197917 C 778.3011577868681,572.7336526197917 774.1488577868679,574.4311526197916 766.006157786868,576.8034224197917 C 761.694757786868,578.0594824197917 753.697357786868,580.8110024197917 748.2340577868681,582.9178724197916 C 738.5900577868681,586.6369724397916 737.7078577868681,586.7474324397917 717.9479577868681,586.7099624397918 C 688.2006577868681,586.6535624397917 675.7985577868681,584.5776824197917 649.470057786868,575.2482226197917 C 612.3111577868681,562.0810126197916 588.066957786868,549.7903526197917 583.477057786868,541.7930226197917 C 581.172057786868,537.7767126197917 577.2411577868681,535.4985626197918 572.6161577868681,535.4985626197918 C 569.8235577868682,535.4985626197918 562.2739577868681,532.9281626197917 539.4700577868682,524.2133826197917 C 534.3137577868681,522.2428626197917 524.4700577868682,518.8664526197917 517.5950577868682,516.7102626197917 C 503.3527577868681,512.2435126197918 479.4357577868682,500.9721026197917 471.61705778686814,495.0421226197917 C 468.7174577868682,492.8430026197917 464.21815778686823,489.7393326197917 461.6185577868682,488.1451026197917 C 455.4922577868683,484.38804961979173 447.1811577868682,473.7916396197917 449.9216577868683,473.2320196197917 C 450.97615778686827,473.01666961979174 452.9301577868682,473.4244596197917 454.26395778686833,474.1382196197917 C 458.38705778686835,476.3448596197917 486.7924577868682,479.5933696197917 503.22005778686844,479.7369696197917 C 516.3362577868684,479.8515996197917 518.8450577868684,479.57250961979173 518.8450577868684,477.9985596197917 C 518.8450577868684,476.4719996197917 515.9414577868683,475.9838496197917 503.22005778686844,475.3717196197917 C 480.61765778686845,474.2841496197917 464.1224577868684,471.8950896197917 459.4041577868684,469.0257196197917 C 455.4225577868683,466.6043596197917 455.41275778686827,466.5741196197917 458.0339577868683,464.7382196197917 C 459.48575778686836,463.7213096197917 466.1684577868682,461.2721596197917 472.8842577868684,459.2956496197917 C 479.6001577868683,457.3191496197917 492.40755778686844,453.1712596197917 501.34505778686844,450.0781296197917 C 510.28255778686844,446.9850096197917 523.1376577868684,443.5138896197917 529.9120577868684,442.36451961979174 C 546.8696577868684,439.48744961979173 554.6604577868684,436.5463696197917 561.9970577868685,430.2520296197917 C 568.5490577868684,424.63093961979166 572.2895577868685,418.83081961979167 573.8011577868685,411.9484196197917 C 574.2935577868686,409.7067696197917 576.0534577868686,404.5329196197917 577.7120577868686,400.45097961979167 C 584.4966577868686,383.7538596197917 586.6781577868687,338.5033596197917 581.4159577868686,323.6235596197917 C 578.2745577868686,314.7412696197917 571.1734577868685,300.8410096197917 566.4106577868686,294.2511796197917 C 561.5876577868685,287.5782596197917 554.6699577868685,273.3390696197917 549.6244577868686,259.6994196197917 C 547.6254577868685,254.29519961979167 544.5227577868686,246.56919961979168 542.7299577868685,242.53051961979168 C 540.9370577868685,238.49184961979165 539.4700577868684,234.2536096197917 539.4700577868684,233.11219961979168 C 539.4700577868684,231.9707996197917 538.2860577868685,227.68140961979168 536.8387577868684,223.58023961979166 C 534.7190577868685,217.57295961979167 534.3670577868684,214.54964961979164 535.0277577868685,208.02628961979167 C 535.5220577868686,203.1471596197917 536.6920577868684,198.99568961979168 537.9715577868685,197.58065961979167 C 539.8407577868686,195.5135596197917 540.0950577868684,191.7677496197917 540.0950577868684,166.3029396197917 L 540.0950577868684,137.3735596197917 L 544.2930577868685,125.4985596197917 C 547.8191577868686,115.52383961979172 548.6516577868686,111.02318961979171 549.4950577868685,97.3735596197917 C 550.2181577868685,85.66961961979172 551.4392577868684,77.97628961979171 553.8595577868684,69.8735596197917 C 557.8324577868684,56.57351961979174 558.5356577868683,53.43239961979174 562.0414577868685,33.32800961979166 C 563.7934577868684,23.280819619791657 565.5422577868685,16.97250961979165 567.1384577868685,14.943389619791617 C 568.4749577868683,13.244399619791636 570.6545577868685,8.697169619791623 571.9821577868684,4.838449619791675 C 573.3096577868685,0.9797196197916378 576.3844577868683,-5.450880380208275 578.8149577868683,-9.451760380208327 C 581.2452577868683,-13.452650380208354 584.0974577868683,-19.173940380208307 585.1530577868682,-22.16571038020828 C 587.5932577868682,-29.082160380208336 593.3219577868681,-39.27319038020829 600.2115577868683,-48.95415038020832 C 603.1776577868684,-53.1218903802083 607.0185577868683,-60.45229038020835 608.7470577868683,-65.24393038020827 C 614.5639577868683,-81.36968038020831 623.2387577868683,-99.93684038020825 626.4661577868683,-103.16868038020829 C 628.2279577868683,-104.9329503802083 633.4296577868683,-113.6889403802083 638.0254577868682,-122.6264403802083 C 642.6212577868682,-131.5639403802083 648.6825577868681,-142.2514403802083 651.4950577868681,-146.3764403802083 C 654.3075577868681,-150.5014403802083 657.5644577868682,-155.73603038020832 658.732657786868,-158.00886038020832 C 659.9007577868681,-160.2817003802083 663.8526577868679,-165.3442003802083 667.514557786868,-169.25886038020832 C 679.9829577868679,-182.58800038020837 687.584957786868,-191.61861038020828 695.7112577868679,-202.75448038020835 C 700.1751577868679,-208.87156038020834 708.670957786868,-218.93894038020835 714.590557786868,-225.12644038020835 C 720.5101577868679,-231.31394038020835 727.099457786868,-238.8182403802084 729.2332577868681,-241.80274038020832 C 731.3672577868681,-244.78724038020835 737.704657786868,-251.2032303802083 743.3164577868681,-256.0605303802083 C 748.928157786868,-260.91783038020833 756.1240577868682,-268.3689303802083 759.3072577868681,-272.6185303802083 C 776.4836577868681,-295.54903038020836 784.5823577868681,-305.54769038020834 788.3746577868679,-308.50509038020834 C 790.695857786868,-310.31529038020835 796.9682577868679,-316.06979038020836 802.3132577868679,-321.2928903802083 C 807.6582577868679,-326.51599038020834 816.345557786868,-333.59339038020835 821.6183577868679,-337.02039038020826 L 831.2053577868679,-343.25139038020825 L 841.9909577868679,-343.25139038020825 C 852.1692577868679,-343.25139038020825 853.4047577868679,-343.5569903802083 863.9357577868678,-348.67939038020825 C 870.0733577868679,-351.6646903802083 877.2187577868677,-354.8067903802082 879.8143577868678,-355.66179038020823 C 882.4098577868679,-356.5166903802083 886.0715577868679,-358.51039038020826 887.9513577868678,-360.0920903802082 C 889.8310577868677,-361.6737903802082 893.3538577868678,-363.5159903802082 895.7796577868678,-364.18579038020823 C 898.2054577868678,-364.85559038020824 904.1522577868678,-368.29439038020826 908.9946077868678,-371.82749038020825 C 913.8370077868678,-375.3606903802082 918.4937077868678,-378.25139038020825 919.3429077868678,-378.25139038020825 C 920.1920077868679,-378.25139038020825 922.7316077868678,-379.65849038020826 924.9864077868679,-381.3782903802082 C 927.2411077868678,-383.0980903802082 931.7743077868679,-385.0073903802082 935.0601077868679,-385.6211903802082 C 942.4180077868679,-386.99589038020815 943.8560077868678,-388.8688903802082 943.3173077868679,-396.37639038020814 C 943.2183077868679,-397.75139038020814 944.1959077868679,-405.18019038020816 945.4890077868679,-412.88489038020816 C 947.2513077868679,-423.38553038020814 947.5509077868679,-428.3937303802081 946.6855077868679,-432.8849303802082 C 946.0505077868679,-436.1802303802082 945.0257077868679,-452.93893038020815 944.4081077868678,-470.12643038020815 C 943.7906077868679,-487.31393038020815 942.9244077868678,-507.45343038020815 942.4834077868678,-514.8809303802082 C 941.8227077868678,-526.0078303802081 942.0593077868679,-529.3745303802082 943.8273077868678,-534.0040303802082 C 945.6261077868678,-538.7142303802082 945.7220077868677,-540.2288303802081 944.4205077868678,-543.3710303802081 C 943.5665077868678,-545.4325303802082 941.3798077868678,-547.8888303802082 939.5611077868678,-548.8293303802081 C 935.2910077868678,-551.0375303802082 919.0587077868678,-568.0375303802082 910.5095077868677,-579.2550303802082 C 900.6095577868678,-592.2452303802081 885.0752577868677,-610.0994303802081 874.4268577868678,-620.7268303802082 C 869.2468577868677,-625.8967303802083 862.5250577868677,-633.5014303802081 859.4895577868677,-637.6264303802081 C 851.4184577868679,-648.5944303802082 831.7493577868678,-671.9200303802081 826.1696577868678,-677.140430380208 C 820.5346577868678,-682.4128303802081 801.4629577868678,-697.2948303802079 792.9075577868679,-703.0957303802081 C 787.3583577868679,-706.8582303802082 786.9700577868679,-707.475530380208 786.9700577868679,-712.5334303802081 C 786.9700577868679,-719.0367303802082 785.468757786868,-720.491030380208 777.6494577868679,-721.562830380208 C 774.0769577868679,-722.0524303802081 766.7826577868678,-725.016530380208 759.3635577868678,-728.9934303802079 C 749.4501577868679,-734.3075303802079 744.8020577868677,-735.9925303802079 735.7450577868677,-737.555530380208 C 729.5431577868677,-738.6258303802081 722.6410577868677,-739.502930380208 720.4070577868678,-739.504730380208 C 714.9956577868678,-739.504730380208 700.8941577868678,-736.259430380208 690.0950577868679,-732.5197303802081 C 685.2825577868679,-730.8530303802081 679.1346577868679,-729.492030380208 676.4331577868678,-729.4954303802081 C 670.7556577868678,-729.508430380208 656.5734577868678,-733.9173303802081 651.8938577868679,-737.134430380208 C 646.334557786868,-740.9563303802079 642.4818577868679,-741.271730380208 637.6711577868679,-738.2985303802079 C 630.7340577868678,-734.011230380208 613.5781577868678,-733.3178303802079 603.2101577868679,-736.9058303802078 C 593.1528577868679,-740.3864303802079 590.8958577868679,-741.5600303802078 586.6575577868679,-745.5130303802077 C 581.1855577868679,-750.6168303802078 582.0714577868679,-752.2375303802078 589.7825577868679,-751.2302303802078 C 593.3919577868679,-750.7585303802077 599.3861577868678,-749.3329303802077 603.1033577868678,-748.0620303802077 C 611.3101577868678,-745.2560303802077 614.6179577868678,-745.1877303802078 622.9171577868677,-747.6523303802078 C 630.0020577868678,-749.7563303802078 631.3374577868677,-751.8144303802078 630.0544577868678,-758.6534303802077 C 629.3293577868677,-762.5188303802076 629.6499577868677,-763.1587303802078 633.5073577868678,-765.5427303802078 C 635.8460577868678,-766.9880303802079 638.7940577868679,-769.3139303802077 640.0585577868679,-770.7110303802078 C 642.9770577868679,-773.9360303802077 647.594457786868,-773.9468303802078 659.772157786868,-770.7570303802079 C 665.0099577868681,-769.3851303802078 670.1783577868679,-768.6015303802078 671.257657786868,-769.0156303802078 C 673.5870577868681,-769.9096303802078 673.7969577868679,-772.1744303802077 671.7409577868681,-774.2304303802077 C 669.4391577868681,-776.5321303802077 671.517657786868,-777.4912303802078 675.3674577868682,-775.9040303802078 C 679.9281577868682,-774.0237303802078 699.8173577868682,-770.7989303802078 706.9700577868681,-770.7800303802078 C 714.4783577868681,-770.7600303802078 721.093657786868,-772.7110303802078 723.8514577868681,-775.7582303802078 C 726.5124577868681,-778.6986303802078 732.562857786868,-778.8534303802078 746.9700577868681,-776.3496303802078 L 746.9700577868679,-776.349630380208 M 942.9075077868679,-738.686930380208 C 941.7044077868679,-738.3546303802079 940.7200077868679,-736.995630380208 940.7200077868679,-735.666930380208 C 940.7200077868679,-733.582730380208 941.6305077868678,-733.251230380208 947.3561077868679,-733.251230380208 C 954.832807786868,-733.251230380208 959.0678077868679,-735.4888303802079 957.8074077868679,-738.7734303802081 C 957.1292077868679,-740.540830380208 955.9674077868679,-740.768430380208 951.0418077868679,-740.0991303802082 C 947.7711077868679,-739.6547303802081 944.110607786868,-739.0192303802082 942.9075077868679,-738.6869303802082 L 942.9075077868679,-738.686930380208 M 878.986757786868,-725.712330380208 C 860.097157786868,-723.5751303802081 848.9664577868681,-721.807330380208 846.6575577868681,-720.577930380208 C 843.3939577868681,-718.8403303802081 843.971257786868,-715.494730380208 849.0425577868681,-706.755730380208 C 855.6890577868681,-695.3023303802079 859.584657786868,-690.461330380208 874.494757786868,-675.126230380208 C 888.517357786868,-660.703830380208 902.4963577868681,-644.373430380208 915.095007786868,-627.6964303802079 C 919.220007786868,-622.2362303802079 928.172607786868,-612.9554303802079 934.989707786868,-607.0724303802078 C 941.806807786868,-601.1896303802077 953.619307786868,-590.1548303802078 961.239707786868,-582.5510303802077 C 968.8601077868681,-574.9469303802077 978.470007786868,-566.4333303802077 982.595007786868,-563.6316303802078 C 998.787107786868,-552.6338303802077 1008.245607786868,-540.3725303802078 1015.098207786868,-521.4967303802077 C 1016.322107786868,-518.1254303802077 1019.334907786868,-513.1407303802077 1021.793407786868,-510.4194303802078 C 1024.251907786868,-507.69823038020786 1026.9962077868681,-503.4252303802077 1027.891907786868,-500.9239303802078 C 1030.605907786868,-493.3448303802079 1033.432207786868,-476.8582303802077 1033.163307786868,-470.1743303802077 C 1032.8151077868679,-461.5208303802078 1032.964907786868,-460.75123038020774 1034.9981077868679,-460.75123038020774 C 1035.976007786868,-460.75123038020774 1037.4166077868679,-462.69183038020765 1038.1994077868678,-465.06373038020774 C 1038.9822077868678,-467.43563038020784 1041.502407786868,-471.0267303802077 1043.7998077868679,-473.04383038020774 C 1046.097307786868,-475.06093038020776 1048.593607786868,-477.8636303802077 1049.347207786868,-479.2717303802078 C 1050.100807786868,-480.67983038020793 1051.795907786868,-482.17423038020775 1053.114207786868,-482.59263038020777 C 1057.763507786868,-484.06823038020775 1058.0823077868681,-489.0842303802078 1054.507007786868,-504.50123038020774 C 1052.673407786868,-512.4075303802078 1049.686707786868,-523.3762303802077 1047.869807786868,-528.8762303802077 C 1044.396807786868,-539.3895303802078 1035.275407786868,-576.1892303802078 1033.7856077868678,-585.6983303802078 C 1033.3054077868678,-588.7630303802077 1031.6188077868678,-594.7077303802077 1030.037507786868,-598.9088303802077 C 1028.456107786868,-603.1101303802077 1026.508707786868,-610.1651303802078 1025.7098077868677,-614.5868303802079 C 1024.363707786868,-622.036630380208 1018.4524077868679,-642.2795303802079 1015.5184077868678,-649.4866303802078 C 1014.8220077868677,-651.1972303802079 1013.4488077868677,-657.5641303802079 1012.4669077868678,-663.6352303802078 C 1011.4850077868678,-669.7062303802077 1009.7908077868677,-676.7441303802077 1008.7020077868677,-679.2748303802077 C 1007.6132077868677,-681.8056303802077 1006.2326077868678,-688.0464303802078 1005.6339077868678,-693.1435303802077 C 1004.3376077868678,-704.1806303802077 1001.6765077868678,-707.6723303802078 990.0950077868678,-713.5322303802077 C 985.9700077868678,-715.6194303802076 980.7473077868677,-718.9413303802078 978.4890077868678,-720.9142303802078 C 972.9498077868677,-725.7532303802077 968.4420077868677,-725.5552303802078 960.5496077868678,-720.1262303802077 C 954.7236077868678,-716.1186303802078 953.4402077868677,-715.7535303802078 945.2672077868677,-715.7774303802078 C 935.9921077868678,-715.8044303802078 921.3842077868677,-719.4298303802077 910.7200077868678,-724.3507303802078 C 904.2801077868678,-727.3223303802079 896.2586577868677,-727.6666303802078 878.9867577868678,-725.7123303802077 L 878.986757786868,-725.712330380208" fill="none" stroke="#000000" stroke-width="1.4547764231721563"/>
</svg>
