<?xml version="1.0" ?>
<svg xmlns="http://www.w3.org/2000/svg" xmlns:ev="http://www.w3.org/2001/xml-events" xmlns:xlink="http://www.w3.org/1999/xlink" baseProfile="full" height="553px" version="1.1" viewBox="-4648.011510643173 -4284.089369441498 55614.87944051106 51177.536715393406" width="600px">
	<defs/>
	<path d="M 1429.9999999999745,42602.999999999956 C 1410.9999999999745,42600.999999999956 1284.9999999999745,42580.999999999956 1149.9999999999745,42557.999999999956 L 904.9999999999745,42517.999999999956 L 809.9999999999745,42429.999999999956 C 718.9999999999927,42346.999999999956 457.9999999999927,42065.999999999956 379.9999999999927,41967.999999999956 C 327.9999999999927,41902.999999999956 237.99999999999272,41648.999999999956 172.99999999999272,41380.999999999956 C 150.99999999999272,41286.999999999956 147.99999999999272,41255.999999999956 147.99999999999272,41075.999999999956 C 147.99999999999272,40813.999999999956 133.99999999999272,40496.999999999956 113.99999999999272,40336.999999999956 C 104.99999999999272,40266.999999999956 100.99999999999272,40178.999999999956 102.99999999999272,40141.999999999956 C 105.99999999999272,40104.999999999956 112.99999999999272,40011.999999999956 117.99999999999272,39934.999999999956 C 123.99999999999272,39857.999999999956 139.99999999999272,39666.999999999956 154.99999999999272,39509.999999999956 L 180.99999999999272,39224.999999999956 L 228.99999999999272,39089.999999999956 C 313.9999999999927,38852.999999999956 312.9999999999927,38854.999999999956 305.9999999999927,38765.999999999956 C 293.9999999999927,38616.999999999956 260.9999999999927,38407.999999999956 197.99999999999272,38079.99999999995 L 135.99999999999272,37754.99999999995 L 157.99999999999272,37354.99999999995 C 170.99999999999272,37134.99999999995 182.99999999999272,36855.99999999995 185.99999999999272,36734.99999999995 C 188.99999999999272,36613.99999999995 197.99999999999272,36471.99999999995 205.99999999999272,36419.99999999995 C 213.99999999999272,36367.99999999995 224.99999999999272,36281.99999999995 228.99999999999272,36229.99999999995 C 233.99999999999272,36177.99999999995 245.99999999999272,36091.99999999995 254.99999999999272,36039.99999999995 C 274.9999999999927,35927.99999999995 270.9999999999927,35831.99999999995 241.99999999999272,35744.99999999995 C 229.99999999999272,35711.99999999995 184.99999999999272,35598.99999999995 140.99999999999272,35494.99999999995 C 47.999999999992724,35273.99999999995 6.999999999970896,35115.99999999995 5.999999999970896,34979.99999999995 C 4.999999999970896,34888.99999999995 6.999999999970896,34883.99999999995 87.9999999999709,34754.99999999995 C 115.9999999999709,34710.99999999995 120.9999999999709,34690.99999999995 129.9999999999709,34599.99999999995 C 135.9999999999709,34541.99999999995 137.9999999999709,34436.99999999995 134.9999999999709,34364.99999999995 C 127.9999999999709,34208.99999999995 141.9999999999709,33983.99999999995 164.9999999999709,33875.99999999995 C 180.9999999999709,33801.99999999995 180.9999999999709,33792.99999999995 163.9999999999709,33680.99999999995 C 153.9999999999709,33616.99999999995 145.9999999999709,33560.99999999995 146.9999999999709,33554.99999999995 C 146.9999999999709,33549.99999999995 172.9999999999709,33447.99999999995 202.9999999999709,33329.99999999995 C 255.9999999999709,33124.99999999995 273.9999999999709,33022.99999999995 299.9999999999709,32791.99999999995 C 305.9999999999709,32735.99999999995 317.9999999999709,32667.99999999995 324.9999999999709,32641.99999999995 C 340.9999999999709,32589.99999999995 414.9999999999709,32465.99999999995 507.9999999999709,32335.99999999995 C 564.9999999999709,32256.99999999995 761.9999999999709,32049.99999999995 780.9999999999709,32049.99999999995 C 804.9999999999709,32049.99999999995 888.9999999999745,31948.99999999995 922.9999999999745,31879.99999999995 C 991.9999999999745,31739.99999999995 1085.9999999999745,31343.99999999995 1124.9999999999745,31034.99999999995 C 1142.9999999999745,30884.99999999995 1173.9999999999745,30695.99999999995 1230.9999999999745,30384.99999999995 C 1309.9999999999745,29951.99999999995 1323.9999999999745,29896.99999999995 1456.9999999999745,29519.99999999995 C 1625.9999999999745,29038.99999999995 1656.9999999999745,28957.99999999995 1737.9999999999745,28789.99999999995 C 1775.9999999999745,28709.99999999995 1862.9999999999745,28521.99999999995 1929.9999999999745,28370.99999999995 C 2039.9999999999745,28122.99999999995 2055.9999999999745,28079.99999999995 2099.9999999999745,27905.99999999995 C 2126.9999999999745,27800.99999999995 2162.9999999999745,27648.99999999995 2179.9999999999745,27567.99999999995 C 2212.9999999999745,27411.99999999995 2274.9999999999745,27202.99999999995 2475.9999999999745,26574.99999999995 C 2617.9999999999745,26131.99999999995 2656.9999999999745,26027.99999999995 2810.9999999999745,25681.99999999995 L 2920.9999999999745,25434.99999999995 L 2955.9999999999745,25124.99999999995 C 3014.9999999999745,24595.99999999995 3066.9999999999745,24211.99999999995 3104.9999999999745,24034.99999999995 C 3119.9999999999745,23960.99999999995 3158.9999999999745,23844.99999999995 3222.9999999999745,23679.99999999995 C 3274.9999999999745,23544.99999999995 3358.9999999999745,23325.99999999995 3408.9999999999745,23193.99999999995 C 3500.9999999999745,22949.99999999995 3560.9999999999745,22815.99999999995 4136.9999999999745,21554.99999999995 C 4313.9999999999745,21169.99999999995 4529.9999999999745,20682.99999999995 4618.9999999999745,20472.99999999995 C 5026.999999999971,19503.99999999995 5392.999999999971,18659.99999999995 5520.999999999971,18391.99999999995 C 5594.999999999971,18237.99999999995 5629.999999999971,18183.99999999995 5783.999999999971,17990.99999999995 C 5838.999999999971,17920.99999999995 5900.999999999971,17837.99999999995 5920.999999999971,17804.99999999995 C 5970.999999999971,17720.99999999995 6039.999999999971,17565.99999999995 6085.999999999971,17429.99999999995 L 6124.999999999971,17314.99999999995 L 6123.999999999971,17089.99999999995 C 6122.999999999971,16965.99999999995 6120.999999999971,16396.99999999995 6117.999999999971,15824.999999999949 L 6113.999999999971,14784.999999999949 L 6076.999999999971,14339.999999999949 C 6055.999999999971,14094.999999999949 6016.999999999971,13617.999999999947 5989.999999999971,13279.999999999947 C 5935.999999999971,12616.999999999947 5931.999999999971,12578.999999999947 5893.999999999971,12329.999999999947 C 5860.999999999971,12114.999999999947 5825.999999999971,11932.999999999947 5788.999999999971,11789.999999999947 C 5744.999999999971,11613.999999999947 5627.999999999971,10876.999999999947 5415.999999999971,9429.999999999947 C 5260.999999999971,8374.999999999947 5253.999999999971,8317.999999999947 5224.999999999971,7879.999999999947 C 5153.999999999971,6798.999999999947 5106.999999999971,6202.999999999947 5083.999999999971,6094.999999999947 C 5075.999999999971,6056.999999999947 4989.999999999971,5599.999999999947 4893.999999999971,5079.999999999947 C 4591.999999999971,3450.9999999999472 4561.999999999971,3300.9999999999472 4511.999999999971,3174.9999999999472 C 4454.999999999971,3029.9999999999472 4424.999999999971,2990.9999999999472 4328.999999999971,2933.9999999999472 C 4077.999999999971,2784.9999999999472 4083.999999999971,2786.9999999999472 3991.999999999971,2830.9999999999472 C 3903.999999999971,2871.9999999999472 3781.999999999971,2892.9999999999472 3654.999999999971,2887.9999999999472 C 3539.999999999971,2882.9999999999472 3542.999999999971,2883.9999999999472 3320.999999999971,2751.9999999999472 C 3154.999999999971,2651.9999999999472 3160.999999999971,2658.9999999999472 2860.999999999971,2286.9999999999472 C 2730.999999999971,2125.9999999999472 2643.999999999971,2026.9999999999472 2613.999999999971,2006.9999999999472 C 2584.999999999971,1986.9999999999472 2555.999999999971,1953.9999999999472 2536.999999999971,1920.9999999999472 C 2507.999999999971,1870.9999999999472 2505.999999999971,1857.9999999999472 2496.999999999971,1710.9999999999472 L 2486.999999999971,1554.9999999999472 L 2518.999999999971,1474.9999999999472 C 2557.999999999971,1375.9999999999472 2656.999999999971,1201.9999999999472 2712.999999999971,1131.9999999999472 C 2786.999999999971,1039.9999999999472 2804.999999999971,1034.9999999999472 3084.999999999971,1034.9999999999472 L 3324.999999999971,1033.9999999999472 L 3469.999999999971,969.9999999999472 L 3614.999999999971,904.9999999999472 L 3789.999999999971,904.9999999999472 C 3982.999999999971,904.9999999999472 4000.999999999971,909.9999999999472 4067.999999999971,973.9999999999472 C 4098.999999999971,1002.9999999999472 4105.999999999971,1004.9999999999472 4188.999999999971,1007.9999999999472 C 4304.999999999971,1012.9999999999472 4527.999999999971,986.9999999999472 4640.999999999971,954.9999999999472 C 4868.999999999971,890.9999999999472 4976.999999999971,879.9999999999472 5180.999999999971,899.9999999999472 C 5382.999999999971,920.9999999999472 5451.999999999971,949.9999999999472 5674.999999999971,1115.9999999999472 C 5804.999999999971,1213.9999999999472 5862.999999999971,1278.9999999999472 5981.999999999971,1464.9999999999468 C 6022.999999999971,1528.9999999999468 6253.999999999971,2000.9999999999468 6756.999999999971,3048.999999999947 L 6950.999999999971,3453.999999999947 L 7054.999999999971,3778.999999999947 C 7187.999999999971,4196.999999999947 7743.999999999971,5967.999999999947 8269.99999999997,7649.999999999946 C 8784.99999999997,9296.999999999945 9147.99999999997,10425.999999999945 9541.99999999997,11604.999999999945 C 9775.99999999997,12305.999999999945 9871.99999999997,12573.999999999945 9939.99999999997,12714.999999999945 C 10004.99999999997,12849.999999999945 10047.99999999997,12961.999999999945 10161.99999999997,13299.999999999945 C 10263.99999999997,13602.999999999945 10360.99999999997,13923.999999999949 10393.99999999997,14069.999999999949 C 10408.99999999997,14132.999999999949 10426.99999999997,14213.999999999949 10434.99999999997,14248.999999999949 C 10462.99999999997,14368.999999999949 10676.99999999997,14876.999999999949 10999.99999999997,15594.999999999949 L 11152.99999999997,15934.999999999949 L 11223.99999999997,16000.999999999949 L 11293.99999999997,16065.999999999949 L 11277.99999999997,16325.999999999949 C 11269.99999999997,16467.99999999995 11263.99999999997,16585.99999999995 11264.99999999997,16586.99999999995 C 11265.99999999997,16588.99999999995 11324.99999999997,16539.99999999994 11395.99999999997,16478.99999999994 C 11466.99999999997,16417.99999999994 11530.99999999997,16365.999999999944 11537.99999999997,16362.999999999944 C 11544.99999999997,16359.999999999944 11558.99999999997,16364.999999999944 11569.99999999997,16374.999999999944 C 11588.99999999997,16391.99999999994 11586.99999999997,16395.99999999994 11503.99999999997,16560.99999999994 C 11457.99999999997,16653.99999999994 11387.99999999997,16800.99999999994 11347.99999999997,16887.99999999994 C 11264.99999999997,17070.99999999995 11231.99999999997,17191.99999999995 11140.99999999997,17649.99999999995 C 11060.99999999997,18049.99999999995 11064.99999999997,18015.99999999995 11091.99999999997,18022.99999999995 C 11182.99999999997,18046.99999999995 11787.99999999997,17937.99999999994 12604.99999999997,17748.99999999994 C 12769.99999999997,17710.99999999994 13595.99999999997,17546.99999999994 14439.99999999997,17384.99999999994 L 15975.99999999997,17089.99999999994 L 16214.99999999997,16998.99999999994 C 17948.99999999997,16342.999999999944 19428.99999999997,15915.999999999944 20264.99999999997,15829.999999999944 C 20517.99999999997,15804.999999999944 22315.99999999997,15741.999999999944 23889.99999999997,15704.999999999944 C 24249.99999999997,15695.999999999944 24585.99999999997,15686.999999999944 24635.99999999997,15683.999999999944 L 24727.99999999997,15677.999999999944 L 24734.99999999997,15606.999999999944 C 24762.99999999997,15313.999999999944 24877.99999999997,14891.999999999944 25018.99999999997,14561.999999999944 C 25105.99999999997,14358.999999999944 25183.99999999997,14205.999999999944 25329.99999999997,13954.999999999944 C 25515.99999999997,13634.999999999942 25589.99999999997,13495.999999999942 25786.99999999997,13104.999999999942 C 26049.99999999997,12581.999999999942 26373.99999999997,11882.999999999942 26630.99999999997,11285.999999999942 L 26724.99999999997,11066.999999999942 L 27404.99999999997,10112.999999999942 C 28020.99999999997,9249.999999999942 28088.99999999997,9149.999999999942 28128.99999999997,9056.999999999942 C 28450.99999999997,8308.999999999942 28689.99999999997,7715.999999999941 28765.99999999997,7479.999999999942 C 28913.99999999997,7019.999999999942 28990.99999999997,6810.99999999994 29147.99999999997,6444.999999999942 L 29206.99999999997,6304.999999999942 L 29213.99999999997,5809.999999999942 L 29221.99999999997,5314.999999999942 L 29173.99999999997,5244.999999999942 C 29063.99999999997,5082.999999999942 28556.99999999997,4411.999999999942 28411.99999999997,4236.999999999942 C 28343.99999999997,4154.999999999942 28212.99999999997,4037.999999999942 27869.99999999997,3753.999999999942 C 27207.99999999997,3204.999999999942 26942.99999999997,2997.999999999942 26385.99999999997,2590.9999999999427 C 26067.99999999997,2357.9999999999427 25793.99999999997,2162.9999999999427 25777.99999999997,2157.9999999999427 C 25724.99999999997,2138.9999999999427 25459.99999999997,2154.9999999999427 25319.99999999997,2183.9999999999427 C 25250.99999999997,2198.9999999999427 25158.99999999997,2212.9999999999427 25114.99999999997,2216.9999999999427 C 25036.99999999997,2221.9999999999427 25032.99999999997,2220.9999999999427 24965.99999999997,2184.9999999999427 C 24806.99999999997,2099.9999999999427 24666.99999999997,1988.9999999999427 24527.99999999997,1837.9999999999427 C 24402.99999999997,1699.9999999999427 24364.99999999997,1631.9999999999427 24285.99999999997,1401.9999999999432 C 24196.99999999997,1142.9999999999427 24178.99999999997,1051.9999999999427 24178.99999999997,864.9999999999427 C 24178.99999999997,784.9999999999427 24183.99999999997,747.9999999999427 24203.99999999997,683.9999999999427 C 24217.99999999997,638.9999999999427 24235.99999999997,565.9999999999427 24243.99999999997,519.9999999999427 C 24273.99999999997,350.9999999999427 24344.99999999997,290.9999999999427 24606.99999999997,214.9999999999427 C 24729.99999999997,178.9999999999427 24887.99999999997,158.9999999999427 25049.99999999997,157.9999999999427 C 25203.99999999997,156.9999999999427 25254.99999999997,162.9999999999427 25585.99999999997,226.9999999999427 L 25775.99999999997,262.9999999999427 L 25875.99999999997,200.9999999999427 C 26066.99999999997,79.9999999999427 26264.99999999997,-5.729816621169448e-11 26369.99999999997,-5.729816621169448e-11 C 26415.99999999997,-5.729816621169448e-11 26684.99999999997,52.9999999999427 26809.99999999997,85.9999999999427 C 26861.99999999997,99.9999999999427 26941.99999999997,128.9999999999427 26985.99999999997,149.9999999999427 C 27075.99999999997,190.9999999999427 27122.99999999997,231.9999999999427 27439.99999999997,533.9999999999427 C 27630.99999999997,715.9999999999427 27535.99999999997,646.9999999999427 28684.99999999997,1444.9999999999404 C 29001.99999999997,1664.9999999999404 29525.99999999997,2024.9999999999404 29769.99999999997,2190.9999999999404 C 30178.99999999997,2468.9999999999404 30243.99999999997,2512.9999999999404 30374.99999999997,2596.9999999999404 C 30451.99999999997,2645.9999999999404 30550.99999999997,2705.9999999999404 30594.99999999997,2729.9999999999404 C 30745.99999999997,2811.9999999999404 31140.99999999997,3085.9999999999404 31479.99999999997,3342.9999999999404 C 31653.99999999997,3474.99999999994 31749.99999999997,3553.99999999994 31889.99999999997,3678.99999999994 C 32168.99999999997,3929.99999999994 32175.99999999997,3936.99999999994 32301.99999999997,4119.99999999994 C 32530.99999999997,4450.99999999994 32551.99999999997,4474.99999999994 32826.99999999997,4729.99999999994 C 33174.99999999997,5050.99999999994 33444.99999999997,5313.99999999994 33511.99999999997,5395.99999999994 C 33577.99999999997,5477.99999999994 33752.99999999997,5782.99999999994 33797.99999999997,5896.99999999994 C 33814.99999999997,5940.99999999994 33831.99999999997,5994.99999999994 33834.99999999997,6015.99999999994 C 33840.99999999997,6054.99999999994 33781.99999999997,6424.99999999994 33684.99999999997,6961.99999999994 C 33611.99999999997,7360.99999999994 33597.99999999997,7412.99999999994 33495.99999999997,7674.99999999994 C 33358.99999999997,8024.99999999994 33326.99999999997,8130.99999999994 33332.99999999997,8204.99999999994 C 33338.99999999997,8280.99999999994 33381.99999999997,8408.99999999994 33462.99999999997,8593.99999999994 L 33526.99999999997,8738.99999999994 L 33488.99999999997,9016.99999999994 C 33434.99999999997,9414.99999999994 33399.99999999997,9715.99999999994 33392.99999999997,9843.99999999994 C 33387.99999999997,9948.99999999994 33388.99999999997,9956.99999999994 33411.99999999997,9989.99999999994 C 33438.99999999997,10029.99999999994 33496.99999999997,10071.99999999994 33518.99999999997,10067.99999999994 C 33528.99999999997,10065.99999999994 33554.99999999997,10013.99999999994 33586.99999999997,9935.99999999994 C 33641.99999999997,9799.99999999994 33660.99999999997,9769.99999999994 33691.99999999997,9769.99999999994 C 33724.99999999997,9769.99999999994 33732.99999999997,9808.99999999994 33719.99999999997,9905.99999999994 C 33707.99999999997,9998.99999999994 33663.99999999997,10237.99999999994 33652.99999999997,10267.99999999994 C 33649.99999999997,10276.99999999994 33663.99999999997,10262.99999999994 33684.99999999997,10234.99999999994 C 33763.99999999997,10130.99999999994 33795.99999999997,10109.99999999994 33827.99999999997,10141.99999999994 C 33846.99999999997,10160.99999999994 33842.99999999997,10200.99999999994 33797.99999999997,10455.99999999994 C 33762.99999999997,10657.99999999994 33756.99999999997,10713.99999999994 33757.99999999997,10819.99999999994 C 33758.99999999997,10944.99999999994 33788.99999999997,11531.99999999994 33793.99999999997,11537.99999999994 C 33795.99999999997,11538.99999999994 34068.99999999997,11267.99999999994 34400.99999999997,10935.99999999994 C 35085.99999999997,10250.99999999994 34984.99999999997,10331.99999999994 35351.99999999997,10170.99999999994 C 35579.99999999997,10070.99999999994 36277.99999999997,9772.99999999994 36805.99999999997,9548.999999999938 C 36999.99999999997,9467.999999999938 37257.99999999997,9361.999999999938 37380.99999999997,9313.999999999938 C 38244.99999999997,8980.999999999938 38773.99999999997,8758.999999999938 39101.99999999997,8593.999999999938 C 39204.99999999997,8542.999999999938 39443.99999999997,8427.999999999938 39631.99999999997,8338.999999999938 C 40095.99999999997,8121.999999999938 40298.99999999997,8012.999999999938 40432.99999999997,7911.999999999938 C 40458.99999999997,7891.999999999938 40516.99999999997,7834.999999999938 40561.99999999997,7784.999999999938 C 40605.99999999997,7735.999999999938 40830.99999999997,7502.999999999938 41061.99999999997,7266.999999999938 C 41316.99999999997,7006.999999999938 41495.99999999997,6815.999999999938 41520.99999999997,6776.999999999938 C 41567.99999999997,6705.999999999938 41658.99999999997,6520.999999999938 41718.99999999997,6376.999999999938 L 41759.99999999997,6278.999999999938 L 41360.99999999997,4959.999999999938 L 40962.99999999997,3641.999999999938 L 40904.99999999997,3587.999999999938 C 40872.99999999997,3558.999999999938 40842.99999999997,3532.999999999938 40837.99999999997,3531.999999999938 C 40832.99999999997,3529.999999999938 40774.99999999997,3560.999999999938 40707.99999999997,3599.999999999938 C 40596.99999999997,3666.999999999938 40580.99999999997,3672.999999999938 40510.99999999997,3680.999999999938 C 40362.99999999997,3697.999999999938 40213.99999999997,3661.999999999938 39994.99999999997,3554.999999999938 C 39866.99999999997,3492.999999999938 39766.99999999997,3413.999999999938 39487.99999999997,3152.999999999938 C 39222.99999999997,2905.999999999938 39209.99999999997,2886.999999999938 39201.99999999997,2728.9999999999372 C 39191.99999999997,2522.9999999999372 39225.99999999997,2381.9999999999372 39325.99999999997,2218.9999999999372 C 39430.99999999997,2046.9999999999372 39506.99999999997,2007.9999999999372 39799.99999999997,1973.9999999999372 L 39934.99999999997,1957.9999999999372 L 40129.99999999997,1860.9999999999372 C 40396.99999999997,1726.9999999999372 40488.99999999997,1700.9999999999372 40804.99999999997,1663.9999999999372 C 41210.99999999997,1617.9999999999372 41587.99999999997,1642.9999999999372 41756.99999999997,1728.9999999999372 C 41879.99999999997,1790.9999999999372 42257.99999999997,2094.9999999999372 42818.99999999997,2581.9999999999372 L 42961.99999999997,2706.999999999937 L 43591.99999999997,4170.999999999938 C 44218.99999999997,5627.999999999938 44221.99999999997,5636.999999999938 44376.99999999997,6079.999999999936 C 44647.99999999997,6857.999999999936 44870.99999999997,7539.999999999937 44929.99999999997,7768.999999999937 C 44940.99999999997,7810.999999999937 44953.99999999997,7885.999999999937 44958.99999999997,7934.999999999937 C 44972.99999999997,8049.999999999937 45015.99999999997,8226.999999999938 45129.99999999997,8622.999999999938 C 45198.99999999997,8864.999999999938 45223.99999999997,8969.999999999938 45234.99999999997,9057.999999999938 C 45256.99999999997,9248.999999999938 45261.99999999997,9358.999999999938 45249.99999999997,9459.999999999938 C 45244.99999999997,9511.999999999938 45234.99999999997,9613.999999999936 45228.99999999997,9684.999999999936 C 45198.99999999997,10046.999999999936 45158.99999999997,10094.999999999936 44634.99999999997,10384.999999999938 C 44353.99999999997,10540.999999999938 44338.99999999997,10551.999999999938 44230.99999999997,10658.999999999938 C 44182.99999999997,10705.999999999938 44049.99999999997,10821.999999999938 43935.99999999997,10914.999999999938 C 43820.99999999997,11008.999999999938 43673.99999999997,11127.999999999938 43609.99999999997,11179.999999999938 C 43545.99999999997,11231.999999999938 43407.99999999997,11351.999999999938 43303.99999999997,11445.999999999938 C 43199.99999999997,11540.999999999938 43035.99999999997,11686.999999999938 42939.99999999997,11770.999999999938 C 42842.99999999997,11855.999999999938 42743.99999999997,11942.999999999938 42719.99999999997,11963.999999999938 C 42694.99999999997,11985.999999999938 42685.99999999997,11996.999999999938 42699.99999999997,11987.999999999938 C 43031.99999999997,11786.999999999938 43316.99999999997,11625.999999999938 43576.99999999997,11495.999999999938 C 43784.99999999997,11391.999999999938 43901.99999999997,11317.999999999938 44029.99999999997,11208.999999999938 C 44150.99999999997,11106.999999999938 44232.99999999997,11054.999999999938 44329.99999999997,11019.999999999938 C 44514.99999999997,10951.999999999938 44756.99999999997,10920.999999999936 45174.99999999997,10912.999999999936 C 45491.99999999997,10906.999999999936 45693.99999999997,10917.999999999936 45894.99999999997,10951.999999999936 C 46069.99999999997,10980.999999999936 46242.99999999997,11039.999999999936 46276.99999999997,11081.999999999936 C 46282.99999999997,11089.999999999936 46292.99999999997,11208.999999999936 46299.99999999997,11374.999999999936 L 46312.99999999997,11655.999999999936 L 46289.99999999997,11724.999999999936 C 46196.99999999997,12006.999999999936 45824.99999999997,12681.999999999936 45647.99999999997,12889.999999999936 C 45391.99999999997,13192.999999999936 44168.99999999997,14821.999999999936 43929.99999999997,15179.999999999936 C 43789.99999999997,15389.999999999936 43690.99999999997,15473.999999999936 42919.99999999997,16039.999999999936 C 42617.99999999997,16260.999999999936 42480.99999999997,16380.999999999936 42445.99999999997,16453.999999999935 C 42431.99999999997,16481.999999999935 42376.99999999997,16646.999999999935 42324.99999999997,16819.999999999935 C 42153.99999999997,17381.999999999935 42050.99999999997,17678.999999999935 41979.99999999997,17818.999999999935 C 41905.99999999997,17965.999999999935 41834.99999999997,18336.999999999935 41779.99999999997,18854.999999999935 C 41747.99999999997,19166.999999999935 41737.99999999997,19320.999999999935 41734.99999999997,19604.999999999935 C 41732.99999999997,19801.999999999935 41725.99999999997,19921.999999999935 41710.99999999997,20049.999999999935 C 41666.99999999997,20415.999999999935 41604.99999999997,20874.999999999935 41524.99999999997,21434.999999999935 L 41441.99999999997,22014.99999999994 L 41381.99999999997,22164.99999999994 C 40991.99999999997,23139.99999999994 40586.99999999997,24028.99999999994 40411.99999999998,24292.99999999994 C 40288.99999999998,24479.99999999994 39791.99999999998,24929.99999999994 38711.99999999998,25830.99999999994 L 38297.99999999998,26176.99999999994 L 37920.99999999998,26339.99999999994 C 35513.99999999998,27384.99999999994 34762.99999999998,27714.99999999994 34419.99999999998,27879.99999999994 C 33887.99999999997,28135.99999999994 32505.999999999975,28729.99999999994 32319.999999999975,28783.99999999994 C 32245.999999999975,28804.99999999994 32008.999999999975,28834.99999999994 31769.999999999975,28853.99999999994 C 31166.999999999975,28901.99999999994 30615.999999999975,28902.99999999994 30179.999999999975,28854.99999999994 C 30105.999999999975,28846.99999999994 29882.999999999975,28835.99999999994 29684.999999999975,28829.99999999994 C 29124.999999999975,28812.99999999994 28701.999999999975,28783.99999999994 28449.999999999975,28743.99999999994 C 28397.999999999975,28735.99999999994 28203.999999999975,28702.99999999994 28019.999999999975,28669.99999999994 C 26841.999999999975,28461.99999999994 26799.999999999975,28456.99999999994 26159.999999999975,28458.99999999994 C 25592.999999999975,28460.99999999994 24993.999999999975,28444.99999999994 23849.999999999975,28396.99999999994 C 23590.999999999975,28385.99999999994 23558.999999999975,28385.99999999994 23314.999999999975,28407.99999999994 C 22659.999999999975,28464.99999999994 21395.999999999975,28579.99999999994 20989.999999999975,28619.99999999994 C 19857.999999999975,28731.99999999994 19440.999999999975,28778.99999999994 19329.999999999975,28808.99999999994 C 19238.999999999975,28833.99999999994 18901.999999999975,28856.99999999994 18079.999999999975,28894.99999999995 C 16633.999999999975,28961.99999999995 16526.999999999975,28968.99999999995 16239.999999999975,29026.99999999995 C 15777.999999999975,29118.99999999995 14685.999999999975,29414.99999999995 14079.999999999975,29611.99999999995 C 13741.999999999975,29720.99999999995 12968.999999999975,30021.99999999995 12465.999999999975,30238.99999999995 C 12438.999999999975,30250.99999999995 12229.999999999975,30386.99999999995 12001.999999999975,30540.99999999995 C 11510.999999999975,30872.99999999995 11483.999999999975,30892.99999999995 11337.999999999975,31009.99999999995 C 11108.999999999975,31194.99999999995 10876.999999999975,31330.99999999995 10693.999999999975,31389.99999999995 C 10488.999999999975,31454.99999999995 10217.999999999975,31476.99999999995 9809.999999999975,31458.99999999995 C 9658.999999999975,31452.99999999995 9452.999999999975,31448.99999999995 9351.999999999975,31451.99999999995 L 9169.999999999975,31455.99999999995 L 9118.999999999975,31505.99999999995 C 9090.999999999975,31532.99999999995 9015.999999999975,31615.99999999995 8953.999999999975,31689.99999999995 L 8838.999999999975,31824.99999999995 L 8670.999999999975,32159.99999999995 C 8385.999999999975,32726.99999999995 8394.999999999975,32700.99999999995 8275.999999999975,33234.99999999995 C 8134.9999999999745,33869.99999999995 8134.9999999999745,33865.99999999995 8134.9999999999745,34114.99999999995 C 8135.9999999999745,34282.99999999995 8140.9999999999745,34379.99999999995 8158.9999999999745,34524.99999999995 C 8173.9999999999745,34647.99999999995 8179.9999999999745,34739.99999999995 8176.9999999999745,34784.99999999995 C 8170.9999999999745,34860.99999999995 8106.9999999999745,35216.99999999995 8031.9999999999745,35589.99999999995 L 7984.9999999999745,35824.99999999995 L 7983.9999999999745,36699.99999999995 C 7982.9999999999745,37668.99999999995 7976.9999999999745,37842.99999999995 7935.9999999999745,37983.99999999995 C 7921.9999999999745,38031.99999999995 7909.9999999999745,38080.99999999995 7909.9999999999745,38091.99999999995 C 7909.9999999999745,38101.99999999995 7940.9999999999745,38174.99999999995 7977.9999999999745,38252.99999999995 C 8014.9999999999745,38330.99999999994 8066.9999999999745,38457.99999999994 8092.9999999999745,38534.99999999994 L 8139.9999999999745,38674.99999999994 L 8189.9999999999745,39144.99999999994 C 8286.999999999975,40061.99999999994 8297.999999999975,40184.99999999994 8303.999999999975,40504.99999999994 C 8311.999999999975,40912.99999999994 8303.999999999975,41007.99999999994 8250.999999999975,41184.99999999994 C 8168.9999999999745,41455.99999999994 8145.9999999999745,41501.99999999994 8000.9999999999745,41682.99999999994 C 7889.9999999999745,41822.99999999994 7789.9999999999745,41918.99999999994 7722.9999999999745,41952.99999999994 C 7536.9999999999745,42047.99999999994 7346.9999999999745,42089.99999999994 7109.9999999999745,42089.99999999994 C 7051.9999999999745,42089.99999999994 6987.9999999999745,42084.99999999994 6967.9999999999745,42079.99999999994 C 6920.9999999999745,42066.99999999994 6766.9999999999745,41956.99999999994 6482.9999999999745,41732.99999999994 L 6259.9999999999745,41556.99999999994 L 5931.9999999999745,41100.99999999994 L 5603.9999999999745,40644.99999999994 L 5257.9999999999745,39989.99999999994 L 4911.9999999999745,39334.99999999994 L 4858.9999999999745,39144.99999999994 C 4830.9999999999745,39040.99999999994 4797.9999999999745,38936.99999999994 4786.9999999999745,38914.99999999994 C 4751.9999999999745,38844.99999999994 4680.9999999999745,38739.99999999994 4632.9999999999745,38687.99999999994 C 4557.9999999999745,38608.99999999994 4514.9999999999745,38588.99999999994 4401.9999999999745,38579.99999999994 C 4348.9999999999745,38575.99999999994 4290.9999999999745,38566.99999999994 4272.9999999999745,38559.99999999994 C 4243.9999999999745,38548.99999999994 4234.9999999999745,38550.99999999994 4179.9999999999745,38580.99999999994 C 4104.9999999999745,38620.99999999994 3996.9999999999745,38732.99999999994 3952.9999999999745,38814.99999999994 C 3935.9999999999745,38847.99999999994 3905.9999999999745,38917.99999999994 3886.9999999999745,38969.99999999994 C 3811.9999999999745,39175.999999999956 3458.9999999999745,40013.999999999956 3285.9999999999745,40394.999999999956 C 3237.9999999999745,40499.999999999956 3174.9999999999745,40629.999999999956 3143.9999999999745,40684.999999999956 C 3070.9999999999745,40818.999999999956 2921.9999999999745,41121.999999999956 2819.9999999999745,41349.999999999956 C 2732.9999999999745,41541.999999999956 2716.9999999999745,41567.999999999956 2486.9999999999745,41878.999999999956 C 2178.9999999999745,42294.999999999956 2087.9999999999745,42382.999999999956 1812.9999999999745,42522.999999999956 C 1650.9999999999745,42605.999999999956 1582.9999999999745,42619.999999999956 1429.9999999999745,42602.999999999956" fill="none" stroke="#000000" stroke-width="46.30714358077524"/>
</svg>
